<svg width="620" height="620" viewBox="0 0 620 620" fill="none" xmlns="http://www.w3.org/2000/svg">
<circle cx="583" cy="143" r="23" fill="#E2F0FF"/>
<circle cx="557" cy="31" r="14" fill="#E2F0FF"/>
<circle cx="533" cy="490" r="10" fill="#E2F0FF"/>
<circle cx="27.5" cy="555.5" r="27.5" fill="#E2F0FF"/>
<circle cx="84.5" cy="153.5" r="12.5" fill="#E2F0FF"/>
<circle cx="26.5" cy="385.5" r="10.5" fill="#E2F0FF"/>
<path d="M207.79 510.87L235.65 527C238.029 528.204 240.658 528.831 243.325 528.831C245.992 528.831 248.621 528.204 251 527L412.11 434C416.35 431.55 416.35 427.58 412.11 425.13L384.25 409C381.869 407.794 379.238 407.166 376.57 407.166C373.902 407.166 371.271 407.794 368.89 409L207.79 502C203.55 504.45 203.55 508.42 207.79 510.87Z" fill="#E6E6E6"/>
<path d="M223.55 499.891C223.99 488.431 224.3 477.081 218.88 460.631C214.33 446.821 201.17 432.841 192.67 432.531C181.44 432.121 180.11 440.101 185.89 448.391C190.17 454.521 204.23 462.581 210.71 477.531C214.274 485.997 216.054 495.106 215.94 504.291L223.55 499.891Z" fill="#2174CD"/>
<path d="M220.12 496.901C220.012 496.876 219.915 496.815 219.846 496.728C219.777 496.641 219.739 496.532 219.74 496.421C220.34 470.511 205.79 447.761 192.55 439.941C192.493 439.908 192.443 439.863 192.403 439.81C192.363 439.758 192.334 439.698 192.317 439.633C192.3 439.569 192.296 439.503 192.306 439.437C192.315 439.371 192.337 439.308 192.37 439.251C192.404 439.194 192.448 439.144 192.501 439.104C192.554 439.064 192.614 439.035 192.678 439.018C192.742 439.002 192.809 438.998 192.874 439.007C192.94 439.016 193.003 439.038 193.06 439.071C206.14 446.211 220.82 469.181 220.75 496.401C220.753 496.535 220.703 496.664 220.611 496.761C220.52 496.859 220.394 496.916 220.26 496.921C220.212 496.924 220.165 496.918 220.12 496.901Z" fill="white"/>
<path d="M216.64 503.892C216.203 504.151 215.713 504.311 215.207 504.359C214.701 504.407 214.19 504.342 213.712 504.169C213.234 503.996 212.8 503.719 212.442 503.358C212.083 502.997 211.81 502.561 211.64 502.082C209.534 496.641 206.311 491.701 202.18 487.582C194.87 480.252 184.76 475.582 183.18 470.672C181.24 464.672 186.54 461.672 195.12 463.752C205.43 466.222 217 478.622 218.33 502.912L216.64 503.892Z" fill="#2174CD"/>
<g opacity="0.1">
<path d="M216.64 503.892C216.203 504.151 215.713 504.311 215.207 504.359C214.701 504.407 214.19 504.342 213.712 504.169C213.234 503.996 212.8 503.719 212.442 503.358C212.083 502.997 211.81 502.561 211.64 502.082C209.534 496.641 206.311 491.701 202.18 487.582C194.87 480.252 184.76 475.582 183.18 470.672C181.24 464.672 186.54 461.672 195.12 463.752C205.43 466.222 217 478.622 218.33 502.912L216.64 503.892Z" fill="black"/>
</g>
<path d="M216.56 502.271C216.465 502.247 216.379 502.195 216.313 502.122C216.247 502.049 216.205 501.958 216.19 501.861C212.75 480.581 197.4 470.231 190.52 468.001C190.391 467.96 190.285 467.869 190.223 467.749C190.161 467.63 190.149 467.49 190.19 467.361C190.21 467.298 190.243 467.239 190.286 467.188C190.33 467.138 190.383 467.096 190.443 467.066C190.502 467.037 190.567 467.019 190.634 467.015C190.7 467.01 190.767 467.019 190.83 467.041C198.44 469.501 213.68 480.001 217.19 501.701C217.21 501.834 217.177 501.969 217.099 502.077C217.02 502.186 216.902 502.259 216.77 502.281C216.7 502.288 216.629 502.285 216.56 502.271Z" fill="white"/>
<path d="M252.42 518.439C248.25 520.849 242.49 520.509 236.12 516.829L222 508.649C220.874 507.925 219.936 506.946 219.262 505.79C218.587 504.634 218.196 503.335 218.12 501.999V319.569C218.068 319.094 218.144 318.615 218.339 318.179C218.534 317.743 218.841 317.367 219.23 317.089L370.49 229.759C370.925 229.556 371.407 229.472 371.885 229.518C372.364 229.564 372.821 229.737 373.21 230.019L387.37 238.199C400.09 245.549 410.37 263.409 410.37 278.099V416.209C410.37 423.559 407.78 428.729 403.6 431.129L252.42 518.439Z" fill="#455A64"/>
<path d="M409.69 271.06C407.14 258.11 398.12 244.41 387.37 238.2L373.21 230C372.821 229.717 372.364 229.544 371.885 229.499C371.407 229.453 370.925 229.536 370.49 229.74L219.23 317.09C218.841 317.367 218.534 317.743 218.339 318.179C218.144 318.615 218.068 319.095 218.12 319.57V340.08L254.12 360.87L409.69 271.06Z" fill="#2174CD"/>
<path opacity="0.5" d="M404.71 257.299L239.71 352.559L218.12 340.079V319.569C218.068 319.094 218.144 318.614 218.339 318.178C218.534 317.742 218.841 317.366 219.23 317.089L370.49 229.759C370.924 229.554 371.405 229.471 371.882 229.519C372.36 229.566 372.815 229.743 373.2 230.029L387.37 238.199C394.28 242.199 400.49 249.289 404.71 257.299Z" fill="white"/>
<path d="M410.41 416.209V412.049L254.13 502.279L218.13 481.479V501.999C218.205 503.334 218.595 504.632 219.267 505.788C219.94 506.944 220.876 507.924 222 508.649L236.16 516.829C242.53 520.509 248.29 520.829 252.46 518.439L403.68 431.129C407.82 428.729 410.41 423.559 410.41 416.209Z" fill="#2174CD"/>
<path d="M270.45 362.43L327.83 329.3C328.89 328.68 329.75 329.18 329.75 330.4V375.87C329.715 376.536 329.524 377.184 329.192 377.763C328.86 378.341 328.397 378.834 327.84 379.2L270.45 412.33C269.39 412.94 268.53 412.44 268.53 411.22V365.75C268.567 365.084 268.759 364.437 269.093 363.86C269.427 363.283 269.892 362.793 270.45 362.43Z" fill="#263238"/>
<path d="M326 373.41V330.33L270.41 362.43C269.852 362.794 269.387 363.284 269.053 363.861C268.72 364.437 268.527 365.085 268.49 365.75V408.83L324.09 376.73C324.647 376.366 325.11 375.876 325.442 375.299C325.774 374.722 325.965 374.075 326 373.41Z" fill="#2174CD"/>
<path d="M274.06 393.289C273.931 393.062 273.879 392.799 273.91 392.539V374.169C273.897 373.852 273.948 373.536 274.06 373.239C274.164 373.016 274.336 372.831 274.55 372.709L280.12 369.489C280.3 369.389 280.43 369.419 280.5 369.579C280.599 369.865 280.64 370.168 280.62 370.469V371.229C280.629 371.567 280.588 371.904 280.5 372.229C280.476 372.339 280.429 372.442 280.364 372.533C280.299 372.624 280.216 372.701 280.12 372.759L276.44 374.879V379.999L279.72 378.109C279.9 378.009 280.03 378.039 280.1 378.199C280.2 378.481 280.24 378.781 280.22 379.079V379.849C280.229 380.187 280.188 380.524 280.1 380.849C280.048 381.069 279.911 381.259 279.72 381.379L276.44 383.269V388.849L280.14 386.709C280.31 386.619 280.43 386.639 280.5 386.799C280.602 387.088 280.643 387.394 280.62 387.699V388.459C280.629 388.797 280.588 389.134 280.5 389.459C280.449 389.666 280.32 389.845 280.14 389.959L274.55 393.179C274.33 393.389 274.16 393.399 274.06 393.289Z" fill="#FAFAFA"/>
<path d="M282.58 387.829V369.159C282.568 368.844 282.622 368.531 282.74 368.239C282.846 368.005 283.025 367.812 283.25 367.689L286.32 365.919C288.873 364.439 290.15 365.559 290.15 369.279C290.206 371.418 289.579 373.52 288.36 375.279V375.389C288.87 375.529 289.3 376.389 289.65 377.839L290.8 382.839C290.796 382.896 290.796 382.952 290.8 383.009C290.805 383.069 290.805 383.129 290.8 383.189C290.8 383.639 290.46 384.059 289.8 384.459L289.24 384.769C288.64 385.119 288.32 385.089 288.24 384.669L287.19 379.669C287.129 379.268 286.948 378.895 286.67 378.599C286.47 378.459 286.17 378.499 285.76 378.739L285.06 379.139V386.389C285.041 386.697 284.938 386.995 284.761 387.249C284.585 387.503 284.342 387.703 284.06 387.829L283.54 388.129C282.91 388.489 282.58 388.389 282.58 387.829ZM286.45 374.759C286.882 374.438 287.192 373.979 287.33 373.459C287.583 372.712 287.705 371.927 287.69 371.139C287.752 370.495 287.631 369.847 287.34 369.269C287.1 368.969 286.78 368.939 286.34 369.169L285.05 369.919V375.549L286.45 374.759Z" fill="#FAFAFA"/>
<path d="M292.36 382.18V363.51C292.348 363.198 292.402 362.888 292.52 362.6C292.611 362.353 292.779 362.142 293 362L296.07 360.23C298.62 358.75 299.9 359.88 299.9 363.59C299.956 365.729 299.329 367.831 298.11 369.59V369.71C298.62 369.84 299.05 370.66 299.4 372.16L300.55 377.16C300.546 377.216 300.546 377.273 300.55 377.33C300.555 377.39 300.555 377.45 300.55 377.51C300.55 377.96 300.21 378.38 299.55 378.78L298.99 379.1C298.4 379.44 298.06 379.41 297.99 379L297 374C296.941 373.595 296.76 373.218 296.48 372.92C296.28 372.78 295.98 372.83 295.57 373.06L294.87 373.47V380.72C294.849 381.026 294.745 381.322 294.569 381.574C294.393 381.826 294.151 382.025 293.87 382.15L293.35 382.45C292.69 382.84 292.36 382.75 292.36 382.18ZM296.23 369.11C296.662 368.793 296.972 368.337 297.11 367.82C297.363 367.069 297.484 366.281 297.47 365.49C297.535 364.849 297.413 364.203 297.12 363.63C297.066 363.55 296.996 363.484 296.914 363.434C296.832 363.385 296.741 363.354 296.645 363.343C296.55 363.333 296.454 363.343 296.363 363.374C296.273 363.404 296.19 363.454 296.12 363.52L294.82 364.27V369.91L296.23 369.11Z" fill="#FAFAFA"/>
<path d="M301.76 367.239C301.76 360.279 303.4 355.849 306.68 353.949C309.96 352.049 311.593 354.593 311.58 361.579C311.58 368.579 309.947 373.023 306.68 374.909C303.413 376.796 301.773 374.239 301.76 367.239ZM308.43 368.949C308.875 367.019 309.067 365.039 309 363.059C309.112 361.303 308.922 359.541 308.44 357.849C308.403 357.667 308.319 357.498 308.197 357.358C308.075 357.218 307.92 357.111 307.745 357.049C307.57 356.987 307.382 356.971 307.199 357.002C307.016 357.034 306.844 357.112 306.7 357.229C305.789 357.851 305.151 358.8 304.92 359.879C304.474 361.802 304.282 363.776 304.35 365.749C304.242 367.512 304.435 369.281 304.92 370.979C305.31 371.859 305.92 372.079 306.7 371.609C307.59 370.993 308.209 370.059 308.43 368.999V368.949Z" fill="#FAFAFA"/>
<path d="M313.56 369.939V351.269C313.548 350.958 313.602 350.648 313.72 350.359C313.826 350.123 314.004 349.927 314.23 349.799L317.3 347.999C319.85 346.519 321.13 347.649 321.13 351.359C321.186 353.499 320.559 355.6 319.34 357.359V357.479C319.85 357.609 320.28 358.429 320.63 359.929L321.78 364.929C321.776 364.986 321.776 365.043 321.78 365.099C321.785 365.159 321.785 365.219 321.78 365.279C321.78 365.729 321.43 366.149 320.78 366.549L320.22 366.869C319.63 367.209 319.3 367.179 319.22 366.769L318.22 361.769C318.161 361.365 317.98 360.988 317.7 360.689C317.5 360.549 317.2 360.589 316.79 360.829L316.09 361.239V368.489C316.07 368.796 315.966 369.092 315.79 369.344C315.614 369.596 315.372 369.795 315.09 369.919L314.57 370.219C313.89 370.599 313.56 370.509 313.56 369.939ZM317.43 356.869C317.862 356.552 318.172 356.097 318.31 355.579C318.563 354.829 318.684 354.041 318.67 353.249C318.734 352.608 318.613 351.963 318.32 351.389C318.266 351.31 318.196 351.243 318.114 351.194C318.032 351.144 317.941 351.113 317.845 351.103C317.75 351.092 317.654 351.103 317.563 351.133C317.473 351.164 317.389 351.214 317.32 351.279L316.02 352.029V357.669L317.43 356.869Z" fill="#FAFAFA"/>
<path d="M280.55 416.219C280.426 416.165 280.289 416.145 280.155 416.159C280.02 416.173 279.891 416.221 279.78 416.299L270 421.999C269.684 422.208 269.42 422.487 269.231 422.815C269.042 423.143 268.932 423.511 268.91 423.889V431.239C268.894 431.376 268.916 431.513 268.972 431.638C269.028 431.763 269.118 431.871 269.23 431.949C269.42 432.069 270.93 432.949 271.12 433.039C271.244 433.101 271.382 433.127 271.52 433.114C271.658 433.102 271.789 433.052 271.9 432.969L281.69 427.319C282.006 427.111 282.27 426.832 282.459 426.504C282.648 426.175 282.758 425.807 282.78 425.429V417.999C282.796 417.863 282.774 417.725 282.718 417.6C282.662 417.475 282.572 417.368 282.46 417.289L280.55 416.219Z" fill="#F0F0F0"/>
<path d="M269.22 431.9C269.41 432.02 270.92 432.9 271.11 432.99C271.234 433.051 271.372 433.077 271.51 433.064C271.647 433.052 271.779 433.002 271.89 432.92L279.35 428.61L269.22 422.77C269.023 423.093 268.913 423.461 268.9 423.84V431.19C268.884 431.326 268.906 431.464 268.962 431.589C269.018 431.714 269.108 431.821 269.22 431.9Z" fill="#E0E0E0"/>
<path d="M270.8 424.94V432.29C270.8 432.99 271.29 433.29 271.89 432.92L281.68 427.27C281.996 427.062 282.26 426.783 282.449 426.455C282.638 426.126 282.748 425.759 282.77 425.38V418C282.77 417.3 282.28 417 281.68 417.37L271.89 423C271.567 423.214 271.299 423.501 271.11 423.838C270.92 424.176 270.814 424.554 270.8 424.94Z" fill="#FAFAFA"/>
<path d="M275.52 424.54C275.508 424.488 275.508 424.433 275.52 424.38C275.531 424.318 275.551 424.257 275.58 424.2L276.76 422.13L276.87 421.95C276.903 421.889 276.951 421.837 277.01 421.8L277.68 421.41C277.68 421.41 277.76 421.41 277.78 421.41C277.789 421.432 277.794 421.456 277.794 421.48C277.794 421.504 277.789 421.528 277.78 421.55V427C277.793 427.059 277.793 427.121 277.78 427.18C277.764 427.234 277.728 427.281 277.68 427.31L276.96 427.72C276.953 427.727 276.946 427.732 276.937 427.736C276.929 427.739 276.919 427.741 276.91 427.741C276.901 427.741 276.891 427.739 276.883 427.736C276.874 427.732 276.867 427.727 276.86 427.72C276.86 427.72 276.86 427.65 276.86 427.59V423.9L276.2 425.03C276.2 425.09 276.14 425.13 276.1 425.14C276.06 425.15 276.02 425.14 276 425.14L275.52 424.54Z" fill="#455A64"/>
<path d="M296.76 406.87C296.636 406.81 296.498 406.786 296.36 406.798C296.223 406.81 296.092 406.859 295.98 406.94L286.2 412.59C285.88 412.797 285.613 413.077 285.422 413.408C285.231 413.738 285.121 414.109 285.1 414.49V421.84C285.086 421.974 285.108 422.11 285.165 422.233C285.221 422.356 285.309 422.462 285.42 422.54L287.32 423.64C287.445 423.698 287.584 423.722 287.721 423.708C287.858 423.694 287.989 423.643 288.1 423.56L297.88 417.92C298.206 417.712 298.479 417.43 298.673 417.096C298.868 416.762 298.98 416.386 299 416V408.65C299.012 408.513 298.988 408.375 298.93 408.25C298.872 408.125 298.783 408.018 298.67 407.94L296.76 406.87Z" fill="#F0F0F0"/>
<path d="M285.42 422.54L287.32 423.64C287.445 423.699 287.584 423.723 287.721 423.708C287.858 423.694 287.989 423.643 288.1 423.56L295.55 419.26L285.42 413.41C285.226 413.738 285.116 414.109 285.1 414.49V421.84C285.086 421.975 285.108 422.111 285.165 422.234C285.221 422.357 285.309 422.463 285.42 422.54Z" fill="#E0E0E0"/>
<path d="M287 415.579V422.929C287 423.629 287.49 423.929 288.1 423.559L297.88 417.919C298.207 417.712 298.479 417.429 298.673 417.095C298.868 416.761 298.98 416.385 299 415.999V408.649C299 407.949 298.51 407.649 297.9 408.019L288.12 413.669C287.794 413.875 287.523 414.155 287.328 414.488C287.133 414.82 287.02 415.194 287 415.579Z" fill="#FAFAFA"/>
<path d="M294.48 413.59C294.49 413.754 294.49 413.917 294.48 414.08C294.457 414.253 294.42 414.423 294.37 414.59C294.31 414.774 294.24 414.954 294.16 415.13C294.07 415.32 293.97 415.52 293.85 415.74L293.08 417.07L294.45 416.28C294.466 416.268 294.485 416.262 294.505 416.262C294.525 416.262 294.544 416.268 294.56 416.28C294.56 416.28 294.56 416.35 294.56 416.41V417.3C294.574 417.363 294.574 417.428 294.56 417.49C294.534 417.542 294.496 417.586 294.45 417.62L291.56 419.28C291.546 419.292 291.528 419.298 291.51 419.298C291.492 419.298 291.474 419.292 291.46 419.28C291.443 419.235 291.443 419.186 291.46 419.14V418.42C291.451 418.324 291.451 418.227 291.46 418.13C291.488 418.026 291.528 417.925 291.58 417.83L293.22 415.08C293.326 414.913 293.407 414.731 293.46 414.54C293.49 414.416 293.507 414.288 293.51 414.16C293.514 414.11 293.514 414.06 293.51 414.01C293.503 413.945 293.479 413.883 293.44 413.83C293.407 413.781 293.357 413.745 293.3 413.73C293.214 413.725 293.129 413.75 293.06 413.8C292.963 413.857 292.878 413.932 292.81 414.02C292.752 414.106 292.702 414.196 292.66 414.29C292.627 414.371 292.604 414.455 292.59 414.54V414.72C292.577 414.792 292.55 414.86 292.51 414.92C292.47 414.965 292.423 415.003 292.37 415.03L291.7 415.42C291.689 415.43 291.675 415.436 291.66 415.436C291.645 415.436 291.631 415.43 291.62 415.42C291.612 415.403 291.609 415.384 291.609 415.365C291.609 415.346 291.612 415.328 291.62 415.31C291.626 415.054 291.659 414.799 291.72 414.55C291.78 414.273 291.874 414.005 292 413.75C292.126 413.485 292.283 413.237 292.47 413.01C292.659 412.79 292.882 412.601 293.13 412.45C293.325 412.335 293.544 412.266 293.77 412.25C293.94 412.245 294.105 412.306 294.23 412.42C294.369 412.547 294.469 412.71 294.52 412.89C294.541 413.124 294.527 413.36 294.48 413.59Z" fill="#455A64"/>
<path d="M313 397.509C312.876 397.452 312.739 397.429 312.604 397.444C312.469 397.458 312.339 397.508 312.23 397.589L302.44 403.239C302.122 403.446 301.858 403.725 301.669 404.054C301.479 404.382 301.37 404.75 301.35 405.129V412.479C301.335 412.615 301.357 412.753 301.414 412.877C301.47 413.002 301.558 413.11 301.67 413.189L303.56 414.279C303.684 414.338 303.822 414.363 303.96 414.35C304.097 414.338 304.228 414.289 304.34 414.209L314.13 408.559C314.448 408.35 314.712 408.069 314.901 407.739C315.091 407.409 315.2 407.039 315.22 406.659V399.309C315.235 399.174 315.213 399.038 315.157 398.915C315.1 398.791 315.012 398.686 314.9 398.609L313 397.509Z" fill="#F0F0F0"/>
<path d="M301.63 413.189L303.52 414.279C303.644 414.338 303.782 414.363 303.919 414.35C304.057 414.338 304.188 414.289 304.3 414.209L311.76 409.899L301.63 404.049C301.433 404.376 301.323 404.747 301.31 405.129V412.479C301.295 412.615 301.317 412.752 301.374 412.877C301.43 413.002 301.518 413.11 301.63 413.189Z" fill="#E0E0E0"/>
<path d="M303.21 406.229V413.579C303.21 414.269 303.7 414.579 304.3 414.209L314.09 408.559C314.408 408.35 314.672 408.069 314.861 407.739C315.05 407.409 315.16 407.039 315.18 406.659V399.309C315.18 398.619 314.69 398.309 314.09 398.679L304.3 404.329C303.982 404.538 303.718 404.819 303.529 405.149C303.339 405.479 303.23 405.849 303.21 406.229Z" fill="#FAFAFA"/>
<path d="M310.46 402.469C310.475 402.455 310.494 402.447 310.515 402.447C310.535 402.447 310.555 402.455 310.57 402.469C310.57 402.469 310.57 402.539 310.57 402.599V403.489C310.584 403.552 310.584 403.617 310.57 403.679C310.55 403.737 310.527 403.794 310.5 403.849L309.84 405.259C309.96 405.23 310.086 405.23 310.206 405.26C310.326 405.289 310.437 405.347 310.53 405.429C310.634 405.553 310.712 405.696 310.758 405.851C310.805 406.006 310.819 406.169 310.8 406.329C310.811 406.916 310.666 407.496 310.38 408.009C310.085 408.494 309.672 408.896 309.18 409.179C308.97 409.313 308.735 409.401 308.49 409.439C308.315 409.466 308.136 409.434 307.98 409.349C307.835 409.274 307.722 409.15 307.66 408.999C307.576 408.832 307.535 408.646 307.54 408.459C307.53 408.41 307.53 408.359 307.54 408.309C307.559 408.267 307.59 408.232 307.63 408.209L308.32 407.809C308.344 407.791 308.374 407.78 308.405 407.78C308.436 407.78 308.466 407.791 308.49 407.809L308.63 407.899C308.683 407.943 308.751 407.964 308.82 407.959C308.938 407.956 309.053 407.918 309.15 407.849C309.323 407.752 309.473 407.619 309.59 407.459C309.701 407.309 309.761 407.126 309.76 406.939C309.76 406.739 309.7 406.629 309.59 406.599C309.434 406.589 309.279 406.631 309.15 406.719L308.7 406.979C308.686 406.991 308.668 406.997 308.65 406.997C308.632 406.997 308.614 406.991 308.6 406.979C308.583 406.934 308.583 406.884 308.6 406.839V406.119C308.591 406.056 308.591 405.992 308.6 405.929C308.623 405.868 308.65 405.807 308.68 405.749L309.26 404.509L307.83 405.329C307.83 405.329 307.75 405.329 307.73 405.329C307.712 405.311 307.698 405.289 307.69 405.265C307.681 405.24 307.678 405.215 307.68 405.189V404.299C307.683 404.236 307.7 404.175 307.73 404.119C307.736 404.092 307.749 404.066 307.766 404.043C307.783 404.021 307.805 404.003 307.83 403.989L310.46 402.469Z" fill="#455A64"/>
<path d="M329.17 388.149C329.045 388.095 328.909 388.074 328.774 388.088C328.64 388.102 328.511 388.151 328.4 388.229L318.61 393.879C318.292 394.088 318.028 394.369 317.839 394.699C317.649 395.029 317.54 395.399 317.52 395.779V403.119C317.505 403.254 317.526 403.391 317.581 403.515C317.635 403.64 317.721 403.748 317.83 403.829L319.73 404.929C319.855 404.986 319.994 405.008 320.131 404.994C320.268 404.98 320.399 404.93 320.51 404.849L330.29 399.199C330.61 398.994 330.876 398.715 331.068 398.387C331.259 398.058 331.369 397.689 331.39 397.309V389.999C331.403 389.863 331.381 389.726 331.325 389.601C331.269 389.477 331.181 389.369 331.07 389.289L329.17 388.149Z" fill="#F0F0F0"/>
<path d="M317.83 403.829L319.73 404.919C319.854 404.981 319.992 405.006 320.13 404.994C320.267 404.982 320.399 404.932 320.51 404.849L327.97 400.549L317.84 394.699C317.642 395.026 317.532 395.398 317.52 395.779V403.119C317.505 403.254 317.526 403.391 317.581 403.515C317.635 403.64 317.721 403.748 317.83 403.829Z" fill="#E0E0E0"/>
<path d="M319.41 396.87V404.22C319.41 404.92 319.9 405.22 320.51 404.85L330.29 399.2C330.61 398.995 330.876 398.717 331.068 398.388C331.259 398.059 331.369 397.69 331.39 397.31V390C331.39 389.3 330.9 389 330.29 389.37L320.51 395C320.191 395.203 319.926 395.478 319.734 395.803C319.543 396.128 319.432 396.494 319.41 396.87Z" fill="#FAFAFA"/>
<path d="M325.37 393.859C325.384 393.848 325.402 393.842 325.42 393.842C325.438 393.842 325.456 393.848 325.47 393.859C325.488 393.878 325.502 393.9 325.51 393.924C325.519 393.948 325.522 393.974 325.52 393.999V394.889C325.517 394.952 325.5 395.014 325.47 395.069C325.453 395.123 325.418 395.169 325.37 395.199L323.73 396.199V397.349L325.26 396.469C325.267 396.463 325.274 396.457 325.283 396.454C325.291 396.45 325.301 396.448 325.31 396.448C325.319 396.448 325.329 396.45 325.337 396.454C325.346 396.457 325.353 396.463 325.36 396.469C325.369 396.49 325.374 396.512 325.374 396.534C325.374 396.557 325.369 396.579 325.36 396.599V397.489C325.374 397.552 325.374 397.617 325.36 397.679C325.338 397.73 325.303 397.775 325.26 397.809L323.73 398.689V400.509C323.744 400.569 323.744 400.63 323.73 400.689C323.707 400.743 323.669 400.788 323.62 400.819L322.91 401.229C322.894 401.242 322.875 401.248 322.855 401.248C322.835 401.248 322.816 401.242 322.8 401.229C322.783 401.184 322.783 401.134 322.8 401.089V395.649C322.787 395.587 322.787 395.522 322.8 395.459C322.823 395.409 322.861 395.367 322.91 395.339L325.37 393.859Z" fill="#455A64"/>
<path d="M325.83 395.489C325.818 395.466 325.812 395.44 325.812 395.414C325.812 395.388 325.818 395.362 325.83 395.339C325.839 395.273 325.859 395.209 325.89 395.149L327.07 393.089C327.1 393.027 327.133 392.967 327.17 392.909C327.204 392.845 327.256 392.793 327.32 392.759L327.99 392.369C328.004 392.358 328.022 392.352 328.04 392.352C328.058 392.352 328.076 392.358 328.09 392.369C328.107 392.411 328.107 392.457 328.09 392.499V397.999C328.104 398.062 328.104 398.127 328.09 398.189C328.064 398.238 328.03 398.282 327.99 398.319L327.27 398.729C327.254 398.741 327.235 398.748 327.215 398.748C327.195 398.748 327.176 398.741 327.16 398.729C327.147 398.687 327.147 398.641 327.16 398.599V394.919L326.51 396.049C326.487 396.097 326.448 396.136 326.4 396.159C326.385 396.168 326.367 396.173 326.35 396.173C326.332 396.173 326.315 396.168 326.3 396.159L325.83 395.489Z" fill="#455A64"/>
<path d="M280.55 432.54C280.427 432.482 280.291 432.458 280.155 432.47C280.02 432.482 279.89 432.531 279.78 432.61L270 438.26C269.682 438.469 269.418 438.75 269.229 439.08C269.039 439.41 268.93 439.78 268.91 440.16V447.51C268.895 447.646 268.917 447.784 268.974 447.909C269.03 448.033 269.118 448.141 269.23 448.22C269.42 448.33 270.93 449.22 271.12 449.31C271.245 449.369 271.384 449.393 271.521 449.379C271.658 449.364 271.789 449.313 271.9 449.23L281.69 443.59C282.008 443.381 282.272 443.1 282.461 442.77C282.65 442.44 282.76 442.07 282.78 441.69V434.34C282.794 434.204 282.773 434.067 282.716 433.942C282.66 433.817 282.572 433.709 282.46 433.63L280.55 432.54Z" fill="#F0F0F0"/>
<path d="M269.22 448.22C269.41 448.33 270.92 449.22 271.11 449.31C271.235 449.369 271.374 449.393 271.511 449.378C271.649 449.364 271.78 449.313 271.89 449.23L279.35 444.93L269.22 439.08C269.022 439.406 268.912 439.778 268.9 440.16V447.51C268.885 447.646 268.907 447.784 268.964 447.909C269.02 448.033 269.108 448.141 269.22 448.22Z" fill="#E0E0E0"/>
<path d="M270.8 441.25V448.6C270.8 449.3 271.29 449.6 271.89 449.23L281.68 443.59C281.998 443.381 282.262 443.1 282.451 442.77C282.64 442.44 282.75 442.07 282.77 441.69V434.34C282.77 433.64 282.28 433.34 281.68 433.71L271.89 439.36C271.573 439.569 271.31 439.848 271.121 440.176C270.932 440.504 270.822 440.872 270.8 441.25Z" fill="#FAFAFA"/>
<path d="M277.05 443.999C277.034 444.011 277.015 444.018 276.995 444.018C276.975 444.018 276.956 444.011 276.94 443.999C276.927 443.957 276.927 443.912 276.94 443.869V442.999L275.22 443.999C275.204 444.011 275.185 444.018 275.165 444.018C275.145 444.018 275.126 444.011 275.11 443.999C275.093 443.954 275.093 443.904 275.11 443.859V442.969C275.106 442.832 275.129 442.696 275.18 442.569L276.82 438.449C276.839 438.385 276.87 438.324 276.91 438.269C276.94 438.232 276.978 438.201 277.02 438.179L277.84 437.699C277.84 437.699 277.92 437.699 277.95 437.699C277.967 437.741 277.967 437.788 277.95 437.829V440.999L278.42 440.729C278.435 440.715 278.454 440.707 278.475 440.707C278.495 440.707 278.515 440.715 278.53 440.729C278.547 440.774 278.547 440.824 278.53 440.869V441.759C278.544 441.818 278.544 441.88 278.53 441.939C278.51 441.994 278.471 442.04 278.42 442.069L277.95 442.339V443.199C277.965 443.262 277.965 443.327 277.95 443.389C277.928 443.443 277.889 443.488 277.84 443.519L277.05 443.999ZM276.93 441.639V440.089L276.13 442.089L276.93 441.639Z" fill="#455A64"/>
<path d="M296.76 423.181C296.635 423.124 296.496 423.101 296.359 423.115C296.222 423.129 296.091 423.18 295.98 423.261L286.2 428.911C285.88 429.116 285.613 429.394 285.422 429.723C285.231 430.052 285.121 430.421 285.1 430.801V438.151C285.087 438.286 285.11 438.423 285.166 438.548C285.223 438.672 285.31 438.78 285.42 438.861L287.32 439.951C287.444 440.01 287.582 440.034 287.72 440.022C287.857 440.01 287.988 439.961 288.1 439.881L297.88 434.231C298.2 434.023 298.467 433.743 298.658 433.412C298.849 433.082 298.959 432.712 298.98 432.331V425.001C298.993 424.865 298.969 424.729 298.911 424.605C298.853 424.482 298.763 424.377 298.65 424.301L296.76 423.181Z" fill="#F0F0F0"/>
<path d="M285.42 438.859L287.32 439.949C287.444 440.008 287.582 440.033 287.72 440.02C287.857 440.008 287.988 439.959 288.1 439.879L295.55 435.569L285.42 429.719C285.227 430.047 285.118 430.418 285.1 430.799V438.149C285.087 438.285 285.11 438.422 285.166 438.546C285.223 438.67 285.31 438.778 285.42 438.859Z" fill="#E0E0E0"/>
<path d="M287 431.901V439.251C287 439.941 287.49 440.251 288.1 439.881L297.88 434.231C298.2 434.023 298.467 433.743 298.658 433.412C298.849 433.082 298.959 432.712 298.98 432.331V425.001C298.98 424.311 298.49 424.001 297.88 424.371L288.1 430.001C287.78 430.208 287.513 430.488 287.322 430.819C287.131 431.149 287.021 431.52 287 431.901Z" fill="#FAFAFA"/>
<path d="M292.4 433.349L292.49 433.459C292.519 433.497 292.557 433.528 292.6 433.549C292.652 433.565 292.708 433.565 292.76 433.549C292.837 433.536 292.912 433.508 292.98 433.469C293.062 433.424 293.136 433.367 293.2 433.299C293.271 433.224 293.332 433.14 293.38 433.049C293.439 432.957 293.483 432.855 293.51 432.749C293.543 432.635 293.559 432.517 293.56 432.399C293.57 432.328 293.562 432.256 293.536 432.189C293.509 432.122 293.466 432.064 293.41 432.019C293.32 431.949 293.18 431.969 293.02 432.069C292.965 432.099 292.915 432.136 292.87 432.179C292.827 432.226 292.787 432.276 292.75 432.329L292.64 432.459C292.619 432.491 292.592 432.518 292.56 432.539L291.7 433.029C291.685 433.043 291.665 433.051 291.645 433.051C291.624 433.051 291.605 433.043 291.59 433.029C291.579 433.007 291.573 432.983 291.573 432.959C291.573 432.934 291.579 432.91 291.59 432.889L291.75 429.789C291.754 429.723 291.771 429.658 291.8 429.599C291.808 429.573 291.821 429.549 291.838 429.529C291.855 429.508 291.876 429.491 291.9 429.479L294.24 428.129C294.254 428.118 294.272 428.111 294.29 428.111C294.308 428.111 294.326 428.118 294.34 428.129C294.374 428.167 294.392 428.218 294.39 428.269V429.159C294.387 429.225 294.37 429.29 294.34 429.349C294.32 429.399 294.285 429.441 294.24 429.469L292.65 430.389V431.169C292.786 430.973 292.959 430.807 293.16 430.679C293.34 430.57 293.541 430.498 293.75 430.469C293.916 430.456 294.081 430.498 294.22 430.589C294.364 430.702 294.472 430.855 294.53 431.029C294.609 431.285 294.646 431.551 294.64 431.819C294.645 432.156 294.604 432.492 294.52 432.819C294.437 433.113 294.323 433.398 294.18 433.669C294.041 433.92 293.87 434.152 293.67 434.359C293.487 434.553 293.279 434.721 293.05 434.859C292.847 434.986 292.618 435.064 292.38 435.089C292.209 435.112 292.035 435.073 291.89 434.979C291.744 434.889 291.634 434.751 291.58 434.589C291.501 434.399 291.46 434.195 291.46 433.989C291.446 433.94 291.446 433.888 291.46 433.839C291.475 433.795 291.503 433.757 291.54 433.729L292.24 433.329C292.26 433.317 292.282 433.311 292.305 433.311C292.328 433.311 292.35 433.317 292.37 433.329C292.381 433.334 292.391 433.341 292.4 433.349Z" fill="#455A64"/>
<path d="M313 413.819C312.876 413.765 312.739 413.744 312.605 413.758C312.47 413.772 312.341 413.821 312.23 413.899L302.44 419.549C302.122 419.758 301.858 420.039 301.669 420.369C301.479 420.699 301.37 421.069 301.35 421.449V428.799C301.335 428.934 301.357 429.07 301.413 429.193C301.47 429.316 301.558 429.422 301.67 429.499L303.56 430.599C303.685 430.656 303.824 430.678 303.961 430.664C304.098 430.65 304.229 430.6 304.34 430.519L314.13 424.869C314.448 424.662 314.712 424.383 314.901 424.054C315.091 423.726 315.2 423.357 315.22 422.979V415.629C315.236 415.493 315.214 415.355 315.158 415.23C315.102 415.105 315.012 414.997 314.9 414.919L313 413.819Z" fill="#F0F0F0"/>
<path d="M301.63 429.499L303.52 430.599C303.645 430.656 303.784 430.678 303.921 430.664C304.058 430.65 304.189 430.6 304.3 430.519L311.76 426.219L301.63 420.369C301.432 420.695 301.322 421.068 301.31 421.449V428.799C301.295 428.934 301.317 429.07 301.373 429.193C301.43 429.317 301.518 429.422 301.63 429.499Z" fill="#E0E0E0"/>
<path d="M303.21 422.539V429.889C303.21 430.589 303.7 430.889 304.3 430.519L314.09 424.869C314.407 424.662 314.672 424.383 314.861 424.055C315.05 423.726 315.16 423.358 315.18 422.979V415.629C315.18 414.929 314.69 414.629 314.09 414.999L304.3 420.649C303.982 420.856 303.717 421.135 303.528 421.463C303.338 421.792 303.229 422.161 303.21 422.539Z" fill="#FAFAFA"/>
<path d="M310.84 422.429C310.846 422.767 310.802 423.104 310.71 423.429C310.631 423.733 310.513 424.025 310.36 424.299C310.212 424.556 310.038 424.798 309.84 425.019C309.657 425.217 309.444 425.386 309.21 425.519C309.023 425.639 308.811 425.714 308.59 425.739C308.408 425.753 308.227 425.711 308.07 425.619C307.905 425.511 307.779 425.353 307.71 425.169C307.612 424.907 307.568 424.628 307.58 424.349C307.565 424.183 307.565 424.015 307.58 423.849C307.58 423.699 307.64 423.539 307.68 423.399C307.72 423.259 307.76 423.109 307.81 422.969C307.86 422.829 307.9 422.709 307.95 422.589L308.95 419.819L309.01 419.679C309.032 419.625 309.071 419.58 309.12 419.549L309.99 419.049C309.99 419.049 310.05 419.049 310.07 419.049C310.083 419.084 310.083 419.123 310.07 419.159C310.075 419.182 310.075 419.206 310.07 419.229C310.071 419.246 310.071 419.262 310.07 419.279L309.35 421.179C309.523 421.105 309.711 421.071 309.9 421.079C310.061 421.087 310.215 421.146 310.34 421.249C310.482 421.372 310.589 421.531 310.65 421.709C310.752 421.937 310.816 422.18 310.84 422.429ZM308.59 423.729C308.587 423.832 308.607 423.935 308.65 424.029C308.677 424.094 308.727 424.148 308.79 424.179C308.854 424.204 308.926 424.204 308.99 424.179C309.067 424.166 309.142 424.139 309.21 424.099C309.296 424.047 309.373 423.983 309.44 423.909C309.52 423.833 309.587 423.745 309.64 423.649C309.7 423.549 309.747 423.441 309.78 423.329C309.813 423.212 309.829 423.091 309.83 422.969C309.832 422.87 309.815 422.771 309.78 422.679C309.753 422.611 309.703 422.555 309.64 422.519C309.575 422.498 309.505 422.498 309.44 422.519C309.36 422.533 309.282 422.56 309.21 422.599C309.132 422.653 309.058 422.713 308.99 422.779C308.912 422.86 308.845 422.951 308.79 423.049C308.727 423.148 308.68 423.256 308.65 423.369C308.611 423.485 308.59 423.606 308.59 423.729Z" fill="#455A64"/>
<path d="M280.55 448.819C280.427 448.761 280.291 448.737 280.155 448.749C280.02 448.762 279.89 448.81 279.78 448.889L270 454.539C269.682 454.749 269.418 455.03 269.229 455.36C269.039 455.69 268.93 456.06 268.91 456.439V463.789C268.895 463.924 268.917 464.06 268.973 464.184C269.03 464.307 269.118 464.413 269.23 464.489L271.12 465.589C271.245 465.646 271.384 465.669 271.521 465.655C271.658 465.641 271.789 465.59 271.9 465.509L281.69 459.859C282.007 459.652 282.272 459.373 282.461 459.045C282.65 458.716 282.76 458.348 282.78 457.969V450.619C282.796 450.483 282.774 450.345 282.718 450.22C282.661 450.095 282.572 449.988 282.46 449.909L280.55 448.819Z" fill="#F0F0F0"/>
<path d="M269.22 464.489L271.11 465.589C271.235 465.646 271.374 465.669 271.511 465.655C271.648 465.64 271.779 465.59 271.89 465.509L279.35 461.209L269.22 455.359C269.022 455.686 268.912 456.058 268.9 456.439V463.789C268.885 463.924 268.907 464.06 268.963 464.184C269.02 464.307 269.108 464.412 269.22 464.489Z" fill="#E0E0E0"/>
<path d="M270.8 457.53V464.88C270.8 465.58 271.29 465.88 271.89 465.51L281.68 459.86C281.997 459.652 282.262 459.373 282.451 459.045C282.64 458.717 282.75 458.348 282.77 457.97V450.62C282.77 449.92 282.28 449.62 281.68 449.99L271.89 455.64C271.572 455.846 271.307 456.125 271.118 456.454C270.928 456.782 270.819 457.151 270.8 457.53Z" fill="#FAFAFA"/>
<path d="M275.91 460.699C275.908 460.662 275.908 460.626 275.91 460.589L277.09 455.659L275.46 456.609C275.444 456.621 275.425 456.628 275.405 456.628C275.385 456.628 275.366 456.621 275.35 456.609C275.335 456.563 275.335 456.515 275.35 456.469V455.579C275.341 455.519 275.341 455.459 275.35 455.399C275.37 455.344 275.409 455.298 275.46 455.269L278.07 453.759C278.086 453.747 278.105 453.74 278.125 453.74C278.145 453.74 278.164 453.747 278.18 453.759C278.18 453.759 278.18 453.829 278.18 453.889V454.669C278.167 454.832 278.137 454.993 278.09 455.149L277 460.089L276.94 460.259C276.918 460.31 276.883 460.354 276.84 460.389L276.07 460.829C276.064 460.835 276.057 460.84 276.05 460.844C276.042 460.847 276.034 460.849 276.025 460.849C276.017 460.849 276.008 460.847 276 460.844C275.993 460.84 275.986 460.835 275.98 460.829C275.98 460.829 275.91 460.759 275.91 460.699Z" fill="#455A64"/>
<path d="M296.76 439.459C296.635 439.4 296.496 439.377 296.359 439.391C296.221 439.405 296.09 439.456 295.98 439.539L286.2 445.179C285.88 445.387 285.613 445.667 285.422 445.997C285.231 446.327 285.121 446.698 285.1 447.079V454.429C285.087 454.565 285.11 454.702 285.166 454.826C285.223 454.951 285.31 455.058 285.42 455.139L287.32 456.229C287.444 456.288 287.582 456.313 287.72 456.301C287.857 456.288 287.988 456.239 288.1 456.159L297.88 450.509C298.2 450.302 298.467 450.021 298.658 449.691C298.849 449.361 298.959 448.99 298.98 448.609V441.259C298.992 441.122 298.969 440.984 298.911 440.86C298.853 440.735 298.763 440.628 298.65 440.549L296.76 439.459Z" fill="#F0F0F0"/>
<path d="M285.42 455.14L287.32 456.23C287.444 456.289 287.582 456.314 287.72 456.302C287.857 456.289 287.988 456.24 288.1 456.16L295.55 451.85L285.42 446C285.226 446.328 285.116 446.699 285.1 447.08V454.43C285.087 454.566 285.11 454.703 285.166 454.827C285.223 454.952 285.31 455.059 285.42 455.14Z" fill="#E0E0E0"/>
<path d="M287 448.17V455.52C287 456.22 287.49 456.52 288.1 456.16L297.88 450.51C298.2 450.303 298.467 450.022 298.658 449.692C298.849 449.362 298.959 448.991 298.98 448.61V441.26C298.98 440.56 298.49 440.26 297.88 440.63L288.1 446.28C287.781 446.486 287.514 446.765 287.323 447.093C287.132 447.422 287.021 447.791 287 448.17Z" fill="#FAFAFA"/>
<path d="M291.45 447.799C291.451 447.522 291.491 447.245 291.57 446.979C291.656 446.708 291.77 446.447 291.91 446.199C292.047 445.961 292.211 445.739 292.4 445.539C292.57 445.349 292.769 445.187 292.99 445.059C293.17 444.951 293.371 444.883 293.58 444.859C293.749 444.836 293.921 444.867 294.07 444.949C294.218 445.046 294.333 445.186 294.4 445.349C294.496 445.563 294.54 445.796 294.53 446.029C294.529 446.252 294.502 446.473 294.45 446.689C294.401 446.91 294.327 447.125 294.23 447.329C294.355 447.429 294.451 447.56 294.51 447.709C294.579 447.912 294.613 448.125 294.61 448.339C294.611 448.621 294.567 448.901 294.48 449.169C294.316 449.718 294.021 450.219 293.62 450.629C293.436 450.826 293.224 450.995 292.99 451.129C292.795 451.249 292.577 451.328 292.35 451.359C292.176 451.385 291.998 451.357 291.84 451.279C291.685 451.192 291.565 451.055 291.5 450.889C291.405 450.675 291.361 450.443 291.37 450.209C291.368 449.959 291.402 449.71 291.47 449.469C291.528 449.225 291.619 448.989 291.74 448.769C291.642 448.657 291.57 448.523 291.53 448.379C291.474 448.191 291.447 447.995 291.45 447.799ZM292.38 449.639C292.371 449.703 292.381 449.767 292.407 449.826C292.434 449.884 292.476 449.934 292.53 449.969C292.63 449.969 292.78 449.969 292.99 449.859C293.175 449.763 293.331 449.618 293.44 449.439C293.541 449.292 293.596 449.118 293.6 448.939C293.61 448.876 293.599 448.811 293.571 448.754C293.542 448.696 293.496 448.649 293.44 448.619C293.35 448.569 293.19 448.619 292.99 448.719C292.801 448.819 292.642 448.967 292.53 449.149C292.438 449.297 292.387 449.466 292.38 449.639ZM292.46 447.199C292.451 447.262 292.46 447.325 292.485 447.383C292.509 447.442 292.549 447.492 292.6 447.529C292.7 447.589 292.82 447.529 292.99 447.469C293.15 447.378 293.284 447.247 293.38 447.089C293.465 446.94 293.509 446.771 293.51 446.599C293.51 446.439 293.51 446.319 293.38 446.269C293.25 446.219 293.15 446.269 292.99 446.329C292.827 446.417 292.692 446.549 292.6 446.709C292.512 446.858 292.464 447.027 292.46 447.199Z" fill="#455A64"/>
<path d="M313 430.099C312.876 430.042 312.739 430.019 312.604 430.033C312.469 430.047 312.339 430.098 312.23 430.179L302.44 435.829C302.124 436.037 301.86 436.316 301.671 436.645C301.482 436.973 301.372 437.341 301.35 437.719V445.069C301.335 445.205 301.357 445.342 301.414 445.467C301.47 445.592 301.558 445.7 301.67 445.779L303.56 446.869C303.684 446.93 303.822 446.956 303.96 446.944C304.097 446.931 304.229 446.881 304.34 446.799L314.13 441.149C314.446 440.94 314.71 440.661 314.899 440.333C315.088 440.005 315.198 439.637 315.22 439.259V431.909C315.236 431.773 315.214 431.635 315.158 431.51C315.101 431.385 315.012 431.277 314.9 431.199L313 430.099Z" fill="#F0F0F0"/>
<path d="M301.63 445.779L303.52 446.869C303.644 446.93 303.782 446.956 303.92 446.944C304.057 446.931 304.189 446.881 304.3 446.799L311.76 442.489L301.63 436.639C301.433 436.966 301.323 437.337 301.31 437.719V445.069C301.295 445.205 301.317 445.342 301.374 445.467C301.43 445.592 301.518 445.699 301.63 445.779Z" fill="#E0E0E0"/>
<path d="M303.21 438.82V446.17C303.21 446.87 303.7 447.17 304.3 446.8L314.09 441.15C314.406 440.942 314.67 440.663 314.859 440.334C315.048 440.006 315.158 439.638 315.18 439.26V431.91C315.18 431.21 314.69 430.91 314.09 431.27L304.3 436.92C303.982 437.129 303.718 437.41 303.529 437.74C303.339 438.07 303.23 438.44 303.21 438.82Z" fill="#FAFAFA"/>
<path d="M307.58 438.739C307.577 438.401 307.624 438.064 307.72 437.739C307.807 437.437 307.928 437.145 308.08 436.869C308.222 436.614 308.393 436.376 308.59 436.159C308.763 435.965 308.965 435.8 309.19 435.669C309.37 435.56 309.571 435.492 309.78 435.469C309.962 435.45 310.145 435.492 310.3 435.589C310.465 435.697 310.591 435.855 310.66 436.039C310.756 436.295 310.8 436.567 310.79 436.839C310.806 436.996 310.806 437.153 310.79 437.309C310.771 437.461 310.74 437.612 310.7 437.759C310.7 437.899 310.62 438.039 310.57 438.179C310.52 438.319 310.48 438.449 310.43 438.569L309.43 441.389C309.406 441.434 309.386 441.481 309.37 441.529C309.348 441.583 309.309 441.628 309.26 441.659L308.39 442.159C308.379 442.169 308.365 442.175 308.35 442.175C308.335 442.175 308.321 442.169 308.31 442.159C308.298 442.124 308.298 442.085 308.31 442.049C308.304 442.023 308.304 441.996 308.31 441.969V441.919L309.01 439.999C308.847 440.06 308.673 440.084 308.5 440.069C308.34 440.061 308.188 439.997 308.07 439.889C307.931 439.77 307.827 439.614 307.77 439.439C307.668 439.218 307.603 438.982 307.58 438.739ZM309.78 437.469C309.782 437.374 309.765 437.279 309.73 437.189C309.704 437.124 309.658 437.068 309.6 437.029C309.538 437.009 309.472 437.009 309.41 437.029C309.332 437.034 309.256 437.058 309.19 437.099C309.106 437.144 309.031 437.205 308.97 437.279C308.895 437.357 308.831 437.444 308.78 437.539C308.72 437.639 308.677 437.747 308.65 437.859C308.615 437.966 308.598 438.077 308.6 438.189C308.594 438.285 308.611 438.381 308.65 438.469C308.673 438.536 308.719 438.593 308.78 438.629C308.841 438.651 308.909 438.651 308.97 438.629C309.048 438.623 309.123 438.599 309.19 438.559C309.27 438.509 309.344 438.448 309.41 438.379C309.479 438.297 309.542 438.21 309.6 438.119C309.655 438.018 309.699 437.911 309.73 437.799C309.761 437.692 309.778 437.581 309.78 437.469Z" fill="#455A64"/>
<path d="M329.17 404.469C329.047 404.41 328.91 404.386 328.774 404.4C328.638 404.415 328.508 404.466 328.4 404.549L318.61 410.189C318.292 410.398 318.028 410.679 317.839 411.009C317.649 411.339 317.54 411.709 317.52 412.089V419.439C317.506 419.574 317.528 419.71 317.582 419.835C317.636 419.959 317.722 420.067 317.83 420.149L319.73 421.239C319.854 421.298 319.992 421.323 320.13 421.311C320.267 421.298 320.398 421.25 320.51 421.169L330.29 415.519C330.61 415.312 330.877 415.031 331.068 414.701C331.259 414.371 331.369 414 331.39 413.619V406.269C331.403 406.133 331.38 405.996 331.324 405.872C331.267 405.748 331.18 405.64 331.07 405.559L329.17 404.469Z" fill="#F0F0F0"/>
<path d="M317.83 420.15L319.73 421.24C319.854 421.299 319.992 421.324 320.13 421.312C320.267 421.299 320.398 421.25 320.51 421.17L327.97 416.86L317.84 411C317.642 411.326 317.532 411.698 317.52 412.08V419.43C317.505 419.567 317.525 419.705 317.579 419.831C317.634 419.957 317.72 420.067 317.83 420.15Z" fill="#E0E0E0"/>
<path d="M319.41 413.18V420.53C319.41 421.23 319.9 421.53 320.51 421.17L330.29 415.52C330.61 415.312 330.877 415.032 331.068 414.702C331.259 414.372 331.369 414.001 331.39 413.62V406.27C331.39 405.57 330.9 405.27 330.29 405.64L320.51 411.29C320.191 411.496 319.924 411.775 319.733 412.103C319.542 412.431 319.431 412.8 319.41 413.18Z" fill="#FAFAFA"/>
<path d="M324.92 410.429C324.936 410.417 324.955 410.41 324.975 410.41C324.995 410.41 325.014 410.417 325.03 410.429C325.047 410.474 325.047 410.524 325.03 410.569V411.459C325.044 411.518 325.044 411.58 325.03 411.639C325.01 411.694 324.971 411.74 324.92 411.769L323.29 412.769V413.919L324.81 413.039C324.826 413.027 324.845 413.02 324.865 413.02C324.885 413.02 324.904 413.027 324.92 413.039C324.937 413.081 324.937 413.127 324.92 413.169V413.999C324.935 414.061 324.935 414.126 324.92 414.189C324.894 414.24 324.856 414.285 324.81 414.319L323.29 415.199V417.019C323.303 417.078 323.303 417.14 323.29 417.199C323.27 417.251 323.236 417.297 323.19 417.329L322.47 417.739C322.456 417.75 322.438 417.756 322.42 417.756C322.402 417.756 322.384 417.75 322.37 417.739C322.353 417.694 322.353 417.644 322.37 417.599V412.159C322.357 412.1 322.357 412.038 322.37 411.979C322.387 411.925 322.422 411.879 322.47 411.849L324.92 410.429Z" fill="#455A64"/>
<path d="M328.58 410.221C328.59 410.384 328.59 410.547 328.58 410.71C328.557 410.88 328.52 411.047 328.47 411.21C328.41 411.39 328.34 411.571 328.26 411.761C328.165 411.966 328.058 412.167 327.94 412.36L327.18 413.701L328.55 412.911C328.55 412.911 328.63 412.911 328.65 412.911C328.667 412.956 328.667 413.005 328.65 413.05V413.941C328.662 414.003 328.662 414.068 328.65 414.131C328.642 414.156 328.629 414.18 328.612 414.201C328.595 414.221 328.574 414.238 328.55 414.251L325.66 415.921C325.646 415.932 325.628 415.938 325.61 415.938C325.592 415.938 325.574 415.932 325.56 415.921C325.543 415.904 325.53 415.883 325.521 415.861C325.512 415.838 325.509 415.814 325.51 415.791V415.061C325.502 414.964 325.502 414.867 325.51 414.77C325.537 414.666 325.577 414.565 325.63 414.471L327.27 411.731C327.376 411.563 327.457 411.381 327.51 411.191C327.523 411.064 327.523 410.937 327.51 410.811C327.51 410.811 327.51 410.721 327.51 410.661C327.503 410.595 327.479 410.533 327.44 410.481C327.407 410.431 327.357 410.395 327.3 410.381C327.215 410.371 327.13 410.392 327.06 410.441C326.961 410.498 326.876 410.577 326.81 410.671C326.755 410.754 326.705 410.841 326.66 410.93C326.63 411.012 326.607 411.095 326.59 411.18V411.36C326.575 411.434 326.548 411.505 326.51 411.571L326.37 411.68L325.7 412.071C325.694 412.077 325.687 412.082 325.68 412.085C325.672 412.089 325.663 412.091 325.655 412.091C325.646 412.091 325.638 412.089 325.63 412.085C325.623 412.082 325.616 412.077 325.61 412.071C325.597 412.035 325.597 411.996 325.61 411.96C325.616 411.704 325.65 411.45 325.71 411.201C325.841 410.64 326.098 410.117 326.46 409.671C326.646 409.447 326.869 409.258 327.12 409.11C327.31 408.984 327.532 408.915 327.76 408.911C327.93 408.905 328.095 408.966 328.22 409.08C328.359 409.207 328.459 409.37 328.51 409.55C328.565 409.769 328.588 409.995 328.58 410.221Z" fill="#455A64"/>
<path d="M329.17 420.769C329.047 420.71 328.911 420.686 328.775 420.698C328.64 420.711 328.51 420.759 328.4 420.839L318.61 426.489C318.292 426.698 318.028 426.979 317.839 427.309C317.649 427.639 317.54 428.009 317.52 428.389V435.739C317.506 435.872 317.527 436.007 317.582 436.13C317.636 436.253 317.722 436.359 317.83 436.439L319.73 437.539C319.855 437.595 319.994 437.618 320.131 437.604C320.268 437.59 320.399 437.54 320.51 437.459L330.29 431.809C330.611 431.605 330.878 431.326 331.07 430.997C331.261 430.669 331.371 430.299 331.39 429.919V422.569C331.403 422.433 331.38 422.296 331.324 422.171C331.267 422.047 331.18 421.939 331.07 421.859L329.17 420.769Z" fill="#F0F0F0"/>
<path d="M317.83 436.441L319.73 437.541C319.855 437.597 319.994 437.62 320.131 437.606C320.268 437.592 320.399 437.542 320.51 437.461L327.97 433.161L317.84 427.311C317.642 427.637 317.532 428.009 317.52 428.391V435.741C317.506 435.874 317.527 436.009 317.582 436.132C317.636 436.255 317.722 436.361 317.83 436.441Z" fill="#E0E0E0"/>
<path d="M319.41 429.479V436.829C319.41 437.529 319.9 437.829 320.51 437.459L330.29 431.809C330.611 431.605 330.878 431.326 331.07 430.998C331.261 430.669 331.371 430.299 331.39 429.919V422.569C331.39 421.869 330.9 421.569 330.29 421.939L320.51 427.589C320.19 427.794 319.923 428.073 319.732 428.401C319.541 428.73 319.43 429.099 319.41 429.479Z" fill="#FAFAFA"/>
<path d="M324.89 426.75C324.905 426.736 324.924 426.729 324.945 426.729C324.965 426.729 324.985 426.736 325 426.75C325 426.75 325 426.82 325 426.88V427.77C325.014 427.833 325.014 427.898 325 427.96C324.98 428.013 324.941 428.056 324.89 428.08L323.26 429.08V430.23L324.79 429.35C324.804 429.339 324.822 429.333 324.84 429.333C324.858 429.333 324.876 429.339 324.89 429.35C324.907 429.392 324.907 429.439 324.89 429.48V430.38C324.904 430.44 324.904 430.501 324.89 430.56C324.867 430.611 324.833 430.655 324.79 430.69L323.26 431.57V433.39C323.268 433.453 323.268 433.517 323.26 433.58C323.237 433.631 323.198 433.673 323.15 433.7L322.44 434.12C322.39 434.12 322.36 434.12 322.33 434.12C322.313 434.079 322.313 434.032 322.33 433.99V428.5C322.316 428.441 322.316 428.38 322.33 428.32C322.349 428.265 322.389 428.219 322.44 428.19L324.89 426.75Z" fill="#455A64"/>
<path d="M328.36 424.75C328.374 424.739 328.392 424.732 328.41 424.732C328.428 424.732 328.446 424.739 328.46 424.75C328.46 424.75 328.46 424.82 328.46 424.88V425.77C328.47 425.833 328.47 425.897 328.46 425.96L328.39 426.13L327.72 427.54C327.842 427.511 327.969 427.511 328.09 427.541C328.212 427.57 328.325 427.628 328.42 427.71C328.524 427.833 328.602 427.977 328.648 428.132C328.695 428.287 328.709 428.449 328.69 428.61C328.705 429.188 328.562 429.758 328.277 430.261C327.991 430.763 327.574 431.178 327.07 431.46C326.856 431.592 326.618 431.68 326.37 431.72C326.195 431.744 326.016 431.713 325.86 431.63C325.715 431.555 325.602 431.431 325.54 431.28C325.456 431.113 325.415 430.927 325.42 430.74C325.406 430.691 325.406 430.639 325.42 430.59C325.436 430.549 325.463 430.514 325.5 430.49L326.19 430.09C326.27 430.04 326.33 430.04 326.36 430.09L326.5 430.18C326.554 430.222 326.621 430.243 326.69 430.24C326.811 430.236 326.929 430.198 327.03 430.13C327.2 430.033 327.347 429.9 327.46 429.74C327.575 429.592 327.635 429.408 327.63 429.22C327.63 429.02 327.58 428.91 327.46 428.89C327.308 428.87 327.154 428.91 327.03 429L326.57 429.26C326.57 429.26 326.5 429.26 326.47 429.26C326.453 429.215 326.453 429.165 326.47 429.12V428.4C326.46 428.337 326.46 428.273 326.47 428.21C326.493 428.148 326.52 428.088 326.55 428.03L327.13 426.79L325.7 427.62C325.686 427.631 325.668 427.638 325.65 427.638C325.632 427.638 325.614 427.631 325.6 427.62C325.591 427.598 325.586 427.574 325.586 427.55C325.586 427.526 325.591 427.502 325.6 427.48V426.59C325.587 426.531 325.587 426.469 325.6 426.41C325.617 426.356 325.652 426.31 325.7 426.28L328.36 424.75Z" fill="#455A64"/>
<path d="M280.55 465.15C280.426 465.093 280.289 465.07 280.154 465.084C280.018 465.098 279.889 465.148 279.78 465.23L270 470.88C269.682 471.086 269.417 471.365 269.228 471.693C269.038 472.022 268.929 472.391 268.91 472.77V480.12C268.895 480.256 268.917 480.393 268.974 480.518C269.03 480.643 269.118 480.75 269.23 480.83C269.42 480.94 270.93 481.83 271.12 481.92C271.244 481.979 271.382 482.003 271.519 481.991C271.657 481.979 271.788 481.93 271.9 481.85L281.69 476.2C282.008 475.99 282.272 475.709 282.461 475.379C282.65 475.049 282.76 474.679 282.78 474.3V467C282.794 466.863 282.773 466.726 282.716 466.601C282.66 466.476 282.572 466.369 282.46 466.29L280.55 465.15Z" fill="#F0F0F0"/>
<path d="M269.22 480.829C269.41 480.939 270.92 481.829 271.11 481.919C271.234 481.979 271.372 482.003 271.51 481.991C271.647 481.979 271.778 481.93 271.89 481.849L279.35 477.539L269.22 471.689C269.022 472.016 268.912 472.388 268.9 472.769V480.119C268.885 480.256 268.907 480.393 268.964 480.518C269.02 480.643 269.108 480.75 269.22 480.829Z" fill="#E0E0E0"/>
<path d="M270.8 473.871V481.211C270.8 481.911 271.29 482.211 271.89 481.851L281.68 476.201C281.998 475.991 282.262 475.71 282.451 475.38C282.64 475.05 282.75 474.68 282.77 474.301V467.001C282.77 466.311 282.28 466.001 281.68 466.371L271.89 472.001C271.576 472.207 271.314 472.483 271.125 472.807C270.936 473.132 270.825 473.496 270.8 473.871Z" fill="#FAFAFA"/>
<path d="M277.05 473.59L277.43 472.98C277.43 472.98 277.49 472.93 277.52 472.98C277.55 473.03 277.52 472.98 277.59 473.05L277.76 473.75C277.77 473.796 277.77 473.844 277.76 473.89C277.745 473.94 277.721 473.988 277.69 474.03L277.24 474.34L277.6 474.57C277.612 474.612 277.612 474.658 277.6 474.7C277.612 474.749 277.612 474.801 277.6 474.85L277.16 475.6C277.142 475.637 277.109 475.666 277.07 475.68C277.058 475.688 277.044 475.693 277.03 475.693C277.016 475.693 277.002 475.688 276.99 475.68V475.63L276.82 475.07L276.66 475.82V475.89C276.639 475.931 276.612 475.968 276.58 476C276.566 476.008 276.551 476.012 276.535 476.012C276.519 476.012 276.504 476.008 276.49 476L276.05 475.76C276.041 475.745 276.037 475.728 276.037 475.71C276.037 475.692 276.041 475.675 276.05 475.66C276.04 475.611 276.04 475.56 276.05 475.51V475.45L276.41 474.81L275.95 475.03C275.95 475.03 275.95 475.03 275.88 474.97C275.865 474.928 275.865 474.882 275.88 474.84L276.05 473.94C276.059 473.89 276.08 473.842 276.11 473.8C276.11 473.75 276.17 473.73 276.2 473.73L276.59 473.89L276.46 473.29V473.22C276.448 473.174 276.448 473.126 276.46 473.08C276.473 473.035 276.501 472.996 276.54 472.97L277.09 472.65C277.101 472.64 277.115 472.635 277.13 472.635C277.145 472.635 277.159 472.64 277.17 472.65C277.181 472.686 277.181 472.724 277.17 472.76C277.174 472.783 277.174 472.807 277.17 472.83L277.05 473.59Z" fill="#455A64"/>
<path d="M296.76 455.79C296.634 455.736 296.496 455.715 296.36 455.729C296.223 455.743 296.093 455.791 295.98 455.869L286.2 461.519C285.881 461.725 285.614 462.004 285.423 462.333C285.232 462.661 285.121 463.03 285.1 463.41V470.76C285.086 470.896 285.109 471.033 285.165 471.157C285.221 471.282 285.309 471.39 285.42 471.469L287.32 472.559C287.444 472.621 287.582 472.647 287.72 472.634C287.857 472.622 287.989 472.572 288.1 472.489L297.88 466.839C298.197 466.641 298.463 466.371 298.657 466.052C298.851 465.732 298.969 465.372 299 464.999V457.6C299.013 457.462 298.99 457.324 298.932 457.199C298.874 457.075 298.783 456.968 298.67 456.89L296.76 455.79Z" fill="#F0F0F0"/>
<path d="M285.42 471.47L287.32 472.56C287.444 472.621 287.582 472.647 287.72 472.635C287.857 472.622 287.989 472.572 288.1 472.49L295.55 468.18L285.42 462.34C285.226 462.664 285.116 463.032 285.1 463.41V470.76C285.086 470.896 285.109 471.033 285.165 471.158C285.221 471.282 285.309 471.39 285.42 471.47Z" fill="#E0E0E0"/>
<path d="M287 464.51V471.86C287 472.56 287.49 472.86 288.1 472.49L297.88 466.84C298.197 466.641 298.463 466.371 298.657 466.052C298.851 465.732 298.969 465.372 299 465V457.6C299 456.9 298.51 456.6 297.9 456.96L288.12 462.61C287.796 462.815 287.526 463.094 287.331 463.425C287.136 463.755 287.023 464.127 287 464.51Z" fill="#FAFAFA"/>
<path d="M293 461.4C293.207 461.261 293.45 461.184 293.7 461.18C293.884 461.183 294.06 461.259 294.19 461.39C294.335 461.547 294.435 461.74 294.48 461.95C294.553 462.214 294.594 462.486 294.6 462.76C294.6 463 294.6 463.25 294.6 463.51C294.6 463.77 294.6 464.02 294.6 464.26C294.589 464.573 294.549 464.884 294.48 465.19C294.421 465.501 294.324 465.803 294.19 466.09C294.061 466.37 293.897 466.632 293.7 466.87C293.505 467.108 293.268 467.308 293 467.46C292.789 467.6 292.543 467.676 292.29 467.68C292.106 467.674 291.931 467.599 291.8 467.47C291.658 467.31 291.559 467.117 291.51 466.91C291.445 466.644 291.408 466.373 291.4 466.1C291.4 465.88 291.4 465.63 291.4 465.37C291.4 465.11 291.4 464.85 291.4 464.6C291.412 464.287 291.449 463.976 291.51 463.67C291.573 463.36 291.671 463.058 291.8 462.77C291.932 462.491 292.097 462.23 292.29 461.99C292.491 461.754 292.731 461.554 293 461.4ZM293.58 464.8C293.58 464.31 293.58 463.8 293.58 463.38C293.591 463.26 293.591 463.139 293.58 463.02C293.567 462.931 293.537 462.846 293.49 462.77C293.446 462.712 293.382 462.672 293.31 462.66C293.213 462.663 293.119 462.694 293.04 462.75C292.833 462.873 292.674 463.064 292.59 463.29C292.545 463.406 292.511 463.527 292.49 463.65C292.49 463.78 292.49 463.92 292.49 464.06C292.49 464.54 292.49 465.01 292.49 465.48C292.483 465.6 292.483 465.72 292.49 465.84C292.501 465.93 292.535 466.017 292.59 466.09C292.61 466.12 292.637 466.146 292.668 466.165C292.699 466.184 292.734 466.196 292.77 466.2C292.868 466.201 292.963 466.169 293.04 466.11C293.145 466.052 293.237 465.974 293.31 465.88C293.384 465.785 293.444 465.681 293.49 465.57C293.54 465.455 293.573 465.334 293.59 465.21C293.594 465.073 293.587 464.936 293.57 464.8H293.58Z" fill="#455A64"/>
<path d="M313 446.441C312.877 446.382 312.741 446.358 312.605 446.37C312.47 446.383 312.34 446.431 312.23 446.511L302.44 452.161C302.122 452.37 301.858 452.651 301.669 452.981C301.479 453.311 301.37 453.681 301.35 454.061V461.411C301.335 461.545 301.357 461.681 301.413 461.805C301.47 461.928 301.558 462.034 301.67 462.111L303.56 463.211C303.685 463.267 303.824 463.29 303.961 463.276C304.098 463.262 304.229 463.212 304.34 463.131L314.13 457.481C314.448 457.274 314.713 456.995 314.902 456.667C315.092 456.338 315.201 455.969 315.22 455.591V448.241C315.235 448.104 315.213 447.967 315.156 447.842C315.1 447.717 315.012 447.61 314.9 447.531L313 446.441Z" fill="#F0F0F0"/>
<path d="M301.63 462.11L303.52 463.21C303.645 463.267 303.784 463.289 303.921 463.275C304.058 463.261 304.189 463.211 304.3 463.13L311.76 458.83L301.63 453C301.432 453.326 301.322 453.698 301.31 454.08V461.43C301.299 461.561 301.322 461.694 301.379 461.813C301.435 461.932 301.522 462.035 301.63 462.11Z" fill="#E0E0E0"/>
<path d="M303.21 455.149V462.499C303.21 463.199 303.7 463.499 304.3 463.129L314.09 457.479C314.408 457.272 314.673 456.993 314.862 456.665C315.052 456.336 315.161 455.967 315.18 455.589V448.239C315.18 447.539 314.69 447.239 314.09 447.609L304.3 453.259C303.982 453.466 303.718 453.745 303.529 454.073C303.339 454.402 303.23 454.77 303.21 455.149Z" fill="#FAFAFA"/>
<path d="M310.39 452.7L310.68 452.54C310.68 452.54 310.76 452.54 310.78 452.54C310.797 452.557 310.81 452.577 310.819 452.6C310.827 452.622 310.831 452.646 310.83 452.67V453.48C310.826 453.546 310.809 453.611 310.78 453.67C310.772 453.696 310.759 453.72 310.742 453.74C310.725 453.761 310.704 453.778 310.68 453.79L310.28 454.03L310.19 454.95L310.54 454.75C310.554 454.739 310.572 454.733 310.59 454.733C310.608 454.733 310.626 454.739 310.64 454.75C310.657 454.767 310.67 454.787 310.679 454.81C310.687 454.832 310.691 454.856 310.69 454.88V455.69C310.687 455.756 310.67 455.821 310.64 455.88C310.62 455.93 310.585 455.972 310.54 456L310.07 456.28L310 457.03C309.989 457.085 309.973 457.139 309.95 457.19C309.931 457.232 309.9 457.267 309.86 457.29L309.28 457.62C309.275 457.626 309.269 457.631 309.262 457.635C309.255 457.638 309.248 457.64 309.24 457.64C309.232 457.64 309.225 457.638 309.218 457.635C309.211 457.631 309.205 457.626 309.2 457.62C309.193 457.603 309.189 457.584 309.189 457.565C309.189 457.546 309.193 457.527 309.2 457.51L309.26 456.78L308.86 457.01L308.78 457.77C308.791 457.819 308.791 457.871 308.78 457.92C308.758 457.963 308.727 458 308.69 458.03L308.11 458.36C308.105 458.366 308.099 458.371 308.092 458.375C308.085 458.378 308.078 458.38 308.07 458.38C308.062 458.38 308.055 458.378 308.048 458.375C308.041 458.371 308.035 458.366 308.03 458.36C308.021 458.343 308.017 458.324 308.017 458.305C308.017 458.286 308.021 458.267 308.03 458.25L308.1 457.52L307.82 457.68C307.806 457.691 307.788 457.698 307.77 457.698C307.752 457.698 307.734 457.691 307.72 457.68C307.703 457.663 307.69 457.643 307.681 457.62C307.672 457.598 307.669 457.574 307.67 457.55V456.74C307.672 456.674 307.689 456.609 307.72 456.55C307.742 456.499 307.777 456.455 307.82 456.42L308.22 456.19L308.31 455.27L307.96 455.47C307.946 455.481 307.928 455.488 307.91 455.488C307.892 455.488 307.874 455.481 307.86 455.47C307.842 455.452 307.828 455.43 307.82 455.405C307.811 455.381 307.808 455.356 307.81 455.33V454.53C307.811 454.464 307.828 454.398 307.86 454.34C307.882 454.289 307.917 454.245 307.96 454.21L308.43 453.94L308.5 453.18C308.512 453.132 308.529 453.085 308.55 453.04C308.565 452.996 308.593 452.958 308.63 452.93L309.21 452.6C309.21 452.6 309.28 452.6 309.3 452.6C309.311 452.636 309.311 452.674 309.3 452.71L309.22 453.43L309.63 453.19L309.7 452.44C309.712 452.389 309.729 452.338 309.75 452.29C309.766 452.246 309.798 452.211 309.84 452.19L310.42 451.85C310.425 451.844 310.431 451.839 310.438 451.835C310.445 451.832 310.452 451.83 310.46 451.83C310.468 451.83 310.475 451.832 310.482 451.835C310.489 451.839 310.495 451.844 310.5 451.85C310.509 451.867 310.513 451.886 310.513 451.905C310.513 451.924 310.509 451.943 310.5 451.96L310.39 452.7ZM308.95 455.7L309.36 455.46L309.44 454.54L309.03 454.77L308.95 455.7Z" fill="#455A64"/>
<path d="M329.17 437.079C329.046 437.022 328.91 437 328.774 437.014C328.639 437.028 328.509 437.078 328.4 437.159L318.61 442.809C318.292 443.016 318.027 443.295 317.838 443.623C317.648 443.952 317.539 444.32 317.52 444.699V452.049C317.506 452.184 317.528 452.32 317.582 452.445C317.636 452.569 317.722 452.677 317.83 452.759L319.73 453.849C319.854 453.908 319.992 453.933 320.13 453.921C320.267 453.908 320.398 453.86 320.51 453.779L330.29 448.129C330.61 447.922 330.877 447.641 331.068 447.311C331.259 446.981 331.369 446.61 331.39 446.229V438.879C331.404 438.745 331.381 438.609 331.325 438.486C331.269 438.363 331.181 438.257 331.07 438.179L329.17 437.079Z" fill="#F0F0F0"/>
<path d="M317.83 452.759L319.73 453.849C319.854 453.908 319.992 453.933 320.13 453.921C320.267 453.908 320.398 453.86 320.51 453.779L327.97 449.469L317.84 443.619C317.643 443.946 317.533 444.318 317.52 444.699V452.049C317.506 452.184 317.528 452.32 317.582 452.445C317.636 452.569 317.722 452.677 317.83 452.759Z" fill="#E0E0E0"/>
<path d="M319.41 445.799V453.149C319.41 453.839 319.9 454.149 320.51 453.779L330.29 448.129C330.61 447.922 330.877 447.642 331.068 447.311C331.259 446.981 331.369 446.61 331.39 446.229V438.879C331.39 438.189 330.9 437.879 330.29 438.249L320.51 443.899C320.19 444.107 319.923 444.387 319.732 444.718C319.541 445.048 319.431 445.418 319.41 445.799Z" fill="#FAFAFA"/>
<path d="M324.82 443.099C324.836 443.087 324.855 443.08 324.875 443.08C324.895 443.08 324.914 443.087 324.93 443.099C324.945 443.144 324.945 443.193 324.93 443.239V444.129C324.939 444.188 324.939 444.249 324.93 444.309C324.91 444.364 324.871 444.41 324.82 444.439L323.18 445.389V446.539L324.71 445.659C324.71 445.659 324.79 445.659 324.81 445.659C324.828 445.675 324.841 445.696 324.85 445.718C324.859 445.741 324.862 445.765 324.86 445.789V446.679C324.859 446.745 324.842 446.81 324.81 446.869C324.791 446.921 324.756 446.967 324.71 446.999L323.18 447.879V449.699C323.194 449.758 323.194 449.82 323.18 449.879C323.16 449.931 323.126 449.976 323.08 450.009L322.36 450.419C322.346 450.43 322.328 450.436 322.31 450.436C322.292 450.436 322.274 450.43 322.26 450.419C322.226 450.38 322.208 450.33 322.21 450.279V444.839C322.213 444.776 322.23 444.714 322.26 444.659C322.277 444.605 322.312 444.559 322.36 444.529L324.82 443.099Z" fill="#455A64"/>
<path d="M327.35 447.54C327.336 447.551 327.318 447.557 327.3 447.557C327.282 447.557 327.264 447.551 327.25 447.54C327.233 447.498 327.233 447.451 327.25 447.41V446.55L325.52 447.55C325.506 447.561 325.488 447.567 325.47 447.567C325.452 447.567 325.434 447.561 325.42 447.55C325.411 447.529 325.406 447.507 325.406 447.485C325.406 447.462 325.411 447.44 325.42 447.42V446.53C325.42 446.389 325.448 446.25 325.5 446.12L327 442C327.021 441.939 327.052 441.882 327.09 441.83C327.119 441.792 327.157 441.761 327.2 441.74L328.03 441.26C328.044 441.248 328.062 441.242 328.08 441.242C328.098 441.242 328.116 441.248 328.13 441.26C328.148 441.276 328.161 441.296 328.17 441.319C328.178 441.342 328.182 441.366 328.18 441.39V444.63L328.65 444.35C328.664 444.338 328.682 444.332 328.7 444.332C328.718 444.332 328.736 444.338 328.75 444.35C328.768 444.368 328.781 444.39 328.79 444.414C328.799 444.438 328.802 444.464 328.8 444.49V445.38C328.797 445.443 328.78 445.504 328.75 445.56C328.733 445.613 328.697 445.659 328.65 445.69L328.18 445.96V446.82C328.177 446.886 328.16 446.951 328.13 447.01C328.11 447.059 328.075 447.101 328.03 447.13L327.35 447.54ZM327.23 445.17V443.62L326.43 445.62L327.23 445.17Z" fill="#455A64"/>
<path d="M259.16 365.42V503.53C259.16 518.22 248.84 524.17 236.16 516.83L222 508.65C220.874 507.927 219.936 506.947 219.262 505.791C218.587 504.635 218.196 503.336 218.12 502V319.57C218.12 317.12 219.83 316.13 221.96 317.35L236.12 325.53C248.84 332.87 259.16 350.73 259.16 365.42Z" fill="#37474F"/>
<path d="M246.41 510.22C244.32 510.071 242.304 509.382 240.56 508.22L228.38 501.22C227.955 500.972 227.602 500.617 227.356 500.191C227.111 499.765 226.981 499.282 226.98 498.79V337.11C226.979 336.618 227.108 336.134 227.353 335.708C227.599 335.282 227.952 334.927 228.378 334.681C228.804 334.435 229.287 334.305 229.779 334.305C230.271 334.304 230.754 334.434 231.18 334.68C241.72 340.77 250.29 353.85 250.29 366.02V502.64C250.29 505.56 249.71 507.97 248.69 509.24C248.424 509.582 248.075 509.852 247.676 510.023C247.277 510.195 246.842 510.262 246.41 510.22ZM230.53 498.38L242.33 505.19C243.483 505.927 244.772 506.426 246.12 506.66C246.588 505.38 246.799 504.021 246.74 502.66V366C246.74 355.58 239.43 344.26 230.53 338.43V498.38Z" fill="#263238"/>
<path d="M221.66 321.28L234.35 328.6C246.07 335.37 255.61 351.89 255.61 365.42V503.53C255.61 511.61 252.17 516.43 246.41 516.43C243.391 516.288 240.459 515.368 237.9 513.76L223.73 505.58C223.152 505.163 222.669 504.628 222.313 504.011C221.956 503.394 221.733 502.709 221.66 502V321.28ZM220.24 316.82C218.98 316.82 218.12 317.82 218.12 319.57V502C218.196 503.336 218.587 504.635 219.262 505.791C219.936 506.947 220.874 507.927 222 508.65L236.16 516.83C239.245 518.757 242.776 519.849 246.41 520C253.97 520 259.16 514 259.16 503.55V365.42C259.16 350.73 248.84 332.87 236.16 325.53L222 317.35C221.483 317.025 220.89 316.843 220.28 316.82H220.24Z" fill="#2174CD"/>
<path opacity="0.35" d="M221.66 321.28L234.35 328.6C246.07 335.37 255.61 351.89 255.61 365.42V503.53C255.61 511.61 252.17 516.43 246.41 516.43C243.391 516.288 240.459 515.368 237.9 513.76L223.73 505.58C223.152 505.163 222.669 504.628 222.313 504.011C221.956 503.394 221.733 502.709 221.66 502V321.28ZM220.24 316.82C218.98 316.82 218.12 317.82 218.12 319.57V502C218.196 503.336 218.587 504.635 219.262 505.791C219.936 506.947 220.874 507.927 222 508.65L236.16 516.83C239.245 518.757 242.776 519.849 246.41 520C253.97 520 259.16 514 259.16 503.55V365.42C259.16 350.73 248.84 332.87 236.16 325.53L222 317.35C221.483 317.025 220.89 316.843 220.28 316.82H220.24Z" fill="black"/>
<path d="M347.64 435.29C346.435 435.302 345.248 434.995 344.2 434.4C341.74 432.98 340.38 430.05 340.38 426.17V336.34C340.38 328.72 345.75 319.43 352.38 315.62L386.97 295.62C390.33 293.68 393.54 293.4 395.97 294.82C398.4 296.24 399.79 299.16 399.79 303.04V392.88C399.79 400.49 394.42 409.79 387.79 413.59L353.2 433.59C351.527 434.632 349.61 435.218 347.64 435.29ZM392.51 295.73C390.846 295.799 389.229 296.303 387.82 297.19L353.23 317.19C347.13 320.71 342.16 329.32 342.16 336.37V426.2C342.16 429.42 343.16 431.8 345.09 432.89C347.02 433.98 349.55 433.69 352.34 432.08L386.93 412.08C393 408.56 398 400 398 392.91V303.07C398 299.85 397 297.47 395.07 296.38C394.289 295.941 393.406 295.717 392.51 295.73Z" fill="#37474F"/>
<path d="M370.71 340.51C367.64 342.29 365.22 346.73 363.87 351.41C363.59 352.41 363.77 353.13 364.23 353.41C364.81 353.77 365.76 353.58 366.23 352.41C367.43 349.15 368.78 345.48 370.79 344C372.99 342.37 374.86 342.64 375.92 345.3C376.25 346.12 377.12 346.3 377.7 345.3C377.904 344.949 378.025 344.555 378.053 344.149C378.081 343.743 378.015 343.336 377.86 342.96C376.47 339.84 373.79 338.73 370.71 340.51Z" fill="#F0F0F0"/>
<path d="M369.77 333.169C365.2 335.819 361.17 341.829 358.87 348.699C358.53 349.699 358.63 350.699 359.12 351.049C359.68 351.409 360.7 351.049 361.12 349.959C362.98 344.339 366.05 339.029 369.79 336.859C373.53 334.689 376.79 335.809 378.7 339.269C379.09 339.969 379.89 339.739 380.45 338.729C380.691 338.339 380.84 337.9 380.885 337.444C380.93 336.988 380.87 336.528 380.71 336.099C378.4 331.879 374.36 330.519 369.77 333.169Z" fill="#F0F0F0"/>
<path d="M384.53 330.599C384.426 330.95 384.278 331.286 384.09 331.599C383.5 332.549 382.69 332.779 382.29 332.089C381.707 330.966 380.885 329.984 379.881 329.213C378.877 328.442 377.716 327.902 376.48 327.629C369.87 326.399 361.27 333.989 357.03 345.729L356.82 346.309C356.42 347.449 355.88 348.139 354.88 347.799C353.88 347.459 353.95 346.219 354.34 345.079L354.58 344.409C359.58 330.659 369.88 321.959 377.58 323.409C379.029 323.728 380.391 324.361 381.568 325.265C382.745 326.169 383.708 327.321 384.39 328.639C384.681 329.252 384.731 329.951 384.53 330.599Z" fill="#F0F0F0"/>
<path d="M363 365.309C363 365.409 363 365.529 363 365.689V366.689C362.994 366.809 362.994 366.929 363 367.049C363.008 367.191 363.028 367.331 363.06 367.469C363.082 367.576 363.13 367.676 363.2 367.759C363.269 367.83 363.361 367.873 363.46 367.879C363.594 367.869 363.724 367.828 363.84 367.759C363.978 367.678 364.102 367.577 364.21 367.459C364.305 367.357 364.386 367.243 364.45 367.119C364.509 367.011 364.556 366.897 364.59 366.779C364.59 366.659 364.65 366.559 364.67 366.469C364.681 366.376 364.704 366.285 364.74 366.199C364.776 366.134 364.828 366.079 364.89 366.039L365.77 365.539C365.784 365.528 365.802 365.522 365.82 365.522C365.838 365.522 365.856 365.528 365.87 365.539C365.87 365.539 365.87 365.609 365.87 365.669C365.866 366.036 365.809 366.399 365.7 366.749C365.598 367.115 365.454 367.467 365.27 367.799C365.082 368.128 364.861 368.436 364.61 368.719C364.377 368.981 364.103 369.203 363.8 369.379C363.543 369.547 363.246 369.644 362.94 369.659C362.706 369.66 362.48 369.578 362.3 369.429C362.108 369.253 361.966 369.029 361.89 368.779C361.789 368.455 361.735 368.118 361.73 367.779C361.73 367.499 361.73 367.199 361.73 366.879C361.73 366.559 361.73 366.249 361.73 365.949C361.755 365.157 361.949 364.38 362.3 363.669C362.469 363.309 362.684 362.973 362.94 362.669C363.183 362.384 363.474 362.144 363.8 361.959C364.045 361.806 364.322 361.71 364.61 361.679C364.841 361.668 365.07 361.723 365.27 361.839C365.466 361.974 365.617 362.166 365.7 362.389C365.82 362.67 365.877 362.974 365.87 363.279C365.884 363.338 365.884 363.4 365.87 363.459C365.847 363.507 365.813 363.548 365.77 363.579L364.89 364.089C364.82 364.089 364.77 364.139 364.74 364.089C364.7 364.033 364.676 363.968 364.67 363.899C364.67 363.829 364.62 363.759 364.59 363.679C364.563 363.606 364.514 363.543 364.45 363.499C364.378 363.456 364.294 363.435 364.21 363.439C364.078 363.453 363.952 363.498 363.84 363.569C363.696 363.654 363.568 363.762 363.46 363.889C363.353 364.012 363.265 364.15 363.2 364.299C363.137 364.447 363.09 364.601 363.06 364.759C363.027 364.941 363.007 365.125 363 365.309Z" fill="#FAFAFA"/>
<path d="M369 359.14C369.027 359.115 369.063 359.102 369.1 359.102C369.137 359.102 369.172 359.115 369.2 359.14C369.244 359.185 369.279 359.24 369.3 359.3L370.74 364.92C370.763 364.97 370.775 365.024 370.775 365.08C370.775 365.135 370.763 365.19 370.74 365.24C370.717 365.287 370.683 365.329 370.64 365.36L369.8 365.85C369.71 365.85 369.65 365.91 369.61 365.85C369.572 365.816 369.547 365.77 369.54 365.72L369.35 364.98L367.58 365.98L367.4 366.98C367.383 367.052 367.359 367.122 367.33 367.19C367.288 367.271 367.222 367.338 367.14 367.38L366.3 367.87C366.286 367.881 366.268 367.887 366.25 367.887C366.232 367.887 366.214 367.881 366.2 367.87C366.183 367.853 366.17 367.833 366.161 367.81C366.152 367.788 366.149 367.764 366.15 367.74C366.144 367.683 366.144 367.626 366.15 367.57L367.6 360.28C367.623 360.183 367.657 360.089 367.7 360C367.738 359.902 367.809 359.821 367.9 359.77L369 359.14ZM367.92 364.24L369 363.61L368.46 361.47L367.92 364.24Z" fill="#FAFAFA"/>
<path d="M373.29 356.66C373.532 356.509 373.8 356.404 374.08 356.35C374.278 356.305 374.485 356.337 374.66 356.44C374.845 356.562 374.979 356.747 375.04 356.96C375.137 357.284 375.181 357.621 375.17 357.96C375.176 358.435 375.105 358.907 374.96 359.36C374.828 359.758 374.632 360.133 374.38 360.47L375.2 362.47C375.206 362.503 375.206 362.537 375.2 362.57C375.209 362.629 375.209 362.69 375.2 362.75C375.174 362.801 375.137 362.846 375.09 362.88L374.19 363.4C374.1 363.45 374.04 363.46 374 363.4C373.961 363.359 373.93 363.312 373.91 363.26L373.17 361.5L372.56 361.85V364C372.574 364.076 372.574 364.154 372.56 364.23C372.533 364.292 372.488 364.344 372.43 364.38L371.56 364.89C371.541 364.902 371.518 364.909 371.495 364.909C371.472 364.909 371.449 364.902 371.43 364.89C371.394 364.841 371.376 364.78 371.38 364.72V358.11C371.383 358.031 371.4 357.953 371.43 357.88C371.46 357.819 371.504 357.768 371.56 357.73L373.29 356.66ZM372.54 360.2L373.29 359.76C373.475 359.655 373.633 359.507 373.75 359.33C373.887 359.123 373.953 358.877 373.94 358.63C373.94 358.34 373.88 358.18 373.75 358.14C373.588 358.115 373.423 358.155 373.29 358.25L372.54 358.68V360.2Z" fill="#FAFAFA"/>
<path d="M377.87 353.999C378.123 353.839 378.411 353.743 378.71 353.719C378.945 353.711 379.175 353.785 379.36 353.929C379.564 354.105 379.717 354.333 379.8 354.589C379.905 354.913 379.962 355.25 379.97 355.589C379.97 355.729 379.97 355.859 379.97 355.979V356.659C379.97 356.779 379.97 356.899 379.97 357.039C379.959 357.464 379.902 357.887 379.8 358.299C379.705 358.695 379.564 359.077 379.38 359.439C379.21 359.798 378.995 360.134 378.74 360.439C378.505 360.715 378.224 360.949 377.91 361.129L376.11 362.129C376.092 362.145 376.069 362.153 376.045 362.153C376.021 362.153 375.998 362.145 375.98 362.129C375.961 362.078 375.961 362.021 375.98 361.969V355.349C375.966 355.277 375.966 355.202 375.98 355.129C376.007 355.065 376.052 355.009 376.11 354.969L377.87 353.999ZM378.74 356.309C378.74 355.543 378.44 355.323 377.84 355.649L377.16 356.039V359.999L377.87 359.589C378.154 359.415 378.386 359.167 378.539 358.871C378.692 358.574 378.762 358.242 378.74 357.909C378.74 357.769 378.74 357.629 378.74 357.499V356.769C378.75 356.599 378.75 356.469 378.74 356.329V356.309Z" fill="#FAFAFA"/>
<path d="M390.28 302.271C389.309 302.906 388.5 303.762 387.92 304.768C387.34 305.773 387.004 306.901 386.94 308.061C386.94 310.191 388.44 311.061 390.28 309.991C391.255 309.357 392.066 308.503 392.649 307.497C393.231 306.491 393.567 305.361 393.63 304.201C393.63 302.071 392.13 301.201 390.28 302.271Z" fill="#F28F8F"/>
<path d="M256 231.138C255.853 231.25 255.671 231.304 255.487 231.292C255.303 231.279 255.13 231.199 255 231.068C254.85 230.893 254.737 230.689 254.666 230.469C254.596 230.25 254.57 230.018 254.59 229.788V221.678L238.31 231.078C238.164 231.192 237.981 231.248 237.797 231.235C237.612 231.222 237.439 231.141 237.31 231.008C237.158 230.834 237.044 230.631 236.973 230.411C236.903 230.19 236.878 229.958 236.9 229.728V221.298C236.884 219.998 237.111 218.706 237.57 217.488L253.02 178.578C253.235 177.996 253.52 177.441 253.87 176.928C254.18 176.545 254.565 176.229 255 175.998L262.8 171.498C262.946 171.385 263.129 171.329 263.313 171.342C263.498 171.355 263.671 171.435 263.8 171.568C263.95 171.742 264.064 171.943 264.134 172.162C264.204 172.38 264.23 172.61 264.21 172.838V203.388L268.65 200.818C268.796 200.705 268.979 200.649 269.163 200.662C269.348 200.675 269.521 200.755 269.65 200.888C269.804 201.062 269.92 201.265 269.992 201.485C270.064 201.705 270.091 201.938 270.07 202.168V210.598C270.065 211.206 269.921 211.804 269.65 212.348C269.451 212.843 269.101 213.263 268.65 213.548L264.21 216.118V224.228C264.204 224.835 264.064 225.432 263.8 225.978C263.597 226.474 263.248 226.896 262.8 227.188L256 231.138ZM254.87 208.798V194.158L247.32 213.158L254.87 208.798Z" fill="#2174CD"/>
<path d="M289.43 155.348C292.01 153.855 294.23 153.155 296.09 153.248C297.835 153.288 299.495 154.005 300.72 155.248C302.068 156.753 303.008 158.577 303.45 160.548C304.089 163.044 304.445 165.603 304.51 168.178C304.58 170.418 304.62 172.778 304.62 175.278C304.62 177.778 304.62 180.118 304.51 182.338C304.406 185.31 304.051 188.267 303.45 191.178C302.869 194.097 301.953 196.94 300.72 199.648C299.504 202.293 297.947 204.767 296.09 207.008C294.222 209.257 291.966 211.154 289.43 212.608C286.843 214.102 284.62 214.802 282.76 214.708C281.015 214.672 279.353 213.955 278.13 212.708C276.778 211.207 275.837 209.381 275.4 207.408C274.761 204.916 274.405 202.36 274.34 199.788C274.27 197.658 274.23 195.338 274.23 192.848C274.23 190.358 274.23 187.948 274.34 185.628C274.445 182.654 274.799 179.694 275.4 176.778C275.982 173.863 276.898 171.024 278.13 168.318C279.347 165.687 280.904 163.226 282.76 160.998C284.625 158.729 286.885 156.815 289.43 155.348ZM295 187.478C295.14 182.885 295.14 178.428 295 174.108C294.953 172.958 294.826 171.812 294.62 170.678C294.494 169.828 294.183 169.016 293.71 168.298C293.527 168.019 293.284 167.785 292.998 167.612C292.713 167.439 292.392 167.332 292.06 167.298C291.14 167.282 290.237 167.555 289.48 168.078C288.482 168.637 287.603 169.384 286.89 170.278C286.199 171.161 285.642 172.142 285.24 173.188C284.807 174.298 284.495 175.452 284.31 176.628C284.095 177.908 283.975 179.201 283.95 180.498C283.77 184.998 283.77 189.452 283.95 193.858C283.966 195.022 284.076 196.183 284.28 197.328C284.409 198.178 284.727 198.988 285.21 199.698C285.403 199.975 285.653 200.207 285.943 200.379C286.232 200.551 286.555 200.66 286.89 200.698C287.813 200.709 288.716 200.437 289.48 199.918C290.453 199.34 291.308 198.584 292 197.688C292.7 196.803 293.266 195.819 293.68 194.768C294.121 193.661 294.433 192.507 294.61 191.328C294.825 190.055 294.955 188.769 295 187.478Z" fill="#2174CD"/>
<path d="M308.29 163.149C308.024 162.719 307.932 162.205 308.03 161.709C308.106 161.107 308.299 160.526 308.6 159.999L319.71 140.459C319.98 139.979 320.32 139.459 320.71 138.759C321.043 138.18 321.514 137.693 322.08 137.339L328.39 133.699C328.535 133.583 328.718 133.526 328.904 133.539C329.089 133.552 329.262 133.634 329.39 133.769C329.54 133.942 329.654 134.144 329.724 134.362C329.794 134.581 329.82 134.811 329.8 135.039V186.439C329.792 187.045 329.652 187.642 329.39 188.189C329.185 188.68 328.836 189.099 328.39 189.389L321.62 193.299C321.474 193.413 321.291 193.469 321.107 193.456C320.922 193.443 320.749 193.362 320.62 193.229C320.466 193.056 320.35 192.853 320.278 192.632C320.206 192.412 320.179 192.18 320.2 191.949V157.139L314.05 167.849C313.841 168.287 313.488 168.64 313.05 168.849C312.885 168.923 312.699 168.933 312.527 168.878C312.356 168.822 312.21 168.705 312.12 168.549L308.29 163.149Z" fill="#2174CD"/>
<path d="M207 288.42C207.043 288.383 207.098 288.363 207.155 288.363C207.212 288.363 207.267 288.383 207.31 288.42C207.359 288.473 207.396 288.537 207.418 288.606C207.441 288.675 207.448 288.748 207.44 288.82V290.58C207.44 290.768 207.395 290.953 207.31 291.12C207.248 291.275 207.14 291.408 207 291.5L200 295.61C199.957 295.646 199.902 295.667 199.845 295.667C199.788 295.667 199.733 295.646 199.69 295.61C199.642 295.558 199.605 295.496 199.583 295.429C199.561 295.362 199.553 295.29 199.56 295.22V279.22C199.56 279.032 199.605 278.847 199.69 278.68C199.752 278.524 199.86 278.392 200 278.3L206.95 274.3C206.992 274.264 207.045 274.244 207.1 274.244C207.155 274.244 207.208 274.264 207.25 274.3C207.297 274.354 207.333 274.418 207.356 274.487C207.378 274.555 207.386 274.628 207.38 274.7V276.46C207.38 276.651 207.335 276.839 207.25 277.01C207.188 277.16 207.084 277.288 206.95 277.38L201.74 280.38V284.32L206.59 281.52C206.633 281.483 206.688 281.463 206.745 281.463C206.802 281.463 206.857 281.483 206.9 281.52C206.993 281.628 207.04 281.768 207.03 281.91V283.67C207.026 283.86 206.982 284.048 206.9 284.22C206.835 284.374 206.728 284.505 206.59 284.6L201.74 287.4V291.52L207 288.42Z" fill="#455A64"/>
<path d="M214.05 270.089C215.4 269.309 216.42 269.199 217.12 269.759C217.82 270.319 218.12 271.449 218.12 273.149C218.128 274.305 217.946 275.453 217.58 276.549C217.239 277.582 216.702 278.539 216 279.369L218.22 284.209C218.234 284.292 218.234 284.377 218.22 284.459C218.217 284.612 218.18 284.763 218.11 284.899C218.063 285.027 217.975 285.136 217.86 285.209L216.49 285.999C216.28 286.119 216.12 286.139 216.02 285.999C215.925 285.913 215.85 285.807 215.8 285.689L213.69 281.129L211.55 282.359V288.149C211.545 288.336 211.501 288.52 211.42 288.689C211.358 288.845 211.25 288.977 211.11 289.069L209.8 289.819C209.758 289.855 209.705 289.875 209.65 289.875C209.595 289.875 209.542 289.855 209.5 289.819C209.451 289.766 209.414 289.702 209.392 289.633C209.369 289.564 209.362 289.491 209.37 289.419V273.419C209.371 273.228 209.416 273.04 209.5 272.869C209.562 272.719 209.666 272.591 209.8 272.499L214.05 270.089ZM211.64 279.299L214 277.999C214.585 277.67 215.088 277.212 215.47 276.659C215.87 275.998 216.062 275.231 216.02 274.459C216.02 273.529 215.84 273.019 215.47 272.909C214.949 272.838 214.421 272.974 214 273.289L211.67 274.639L211.64 279.299Z" fill="#455A64"/>
<path d="M224.85 263.85C226.2 263.08 227.22 262.97 227.92 263.52C228.62 264.07 228.92 265.21 228.92 266.91C228.928 268.068 228.746 269.22 228.38 270.32C228.045 271.352 227.508 272.307 226.8 273.13L229.06 278C229.074 278.079 229.074 278.16 229.06 278.24C229.056 278.395 229.022 278.547 228.96 278.69C228.909 278.813 228.822 278.918 228.71 278.99L227.33 279.79C227.12 279.91 226.96 279.92 226.86 279.79C226.765 279.703 226.69 279.597 226.64 279.48L224.53 274.92L222.39 276.16V282C222.385 282.19 222.341 282.377 222.26 282.55C222.198 282.702 222.089 282.832 221.95 282.92L220.64 283.68C220.598 283.715 220.545 283.735 220.49 283.735C220.435 283.735 220.382 283.715 220.34 283.68C220.293 283.625 220.257 283.561 220.234 283.493C220.212 283.424 220.204 283.352 220.21 283.28V267.28C220.21 267.092 220.255 266.907 220.34 266.74C220.405 266.589 220.509 266.458 220.64 266.36L224.85 263.85ZM222.44 273.07L224.77 271.72C225.358 271.389 225.861 270.927 226.24 270.37C226.641 269.709 226.833 268.942 226.79 268.17C226.79 267.24 226.61 266.73 226.24 266.63C225.72 266.555 225.192 266.688 224.77 267L222.44 268.35V273.07Z" fill="#455A64"/>
<path d="M230.67 266.999C230.706 266.051 230.824 265.107 231.02 264.179C231.212 263.268 231.507 262.383 231.9 261.539C232.282 260.719 232.769 259.953 233.35 259.259C233.932 258.571 234.629 257.989 235.41 257.539C236.006 257.144 236.696 256.916 237.41 256.879C237.68 256.876 237.947 256.928 238.196 257.031C238.445 257.134 238.671 257.286 238.86 257.479C239.285 257.938 239.591 258.494 239.75 259.099C239.967 259.891 240.084 260.708 240.1 261.529C240.1 261.839 240.1 262.179 240.1 262.529C240.1 262.879 240.1 263.289 240.1 263.699C240.1 264.109 240.1 264.499 240.1 264.879C240.1 265.259 240.1 265.619 240.1 265.939C240.071 266.887 239.957 267.831 239.76 268.759C239.568 269.67 239.273 270.555 238.88 271.399C238.498 272.218 238.007 272.982 237.42 273.669C236.833 274.349 236.137 274.927 235.36 275.379C234.746 275.783 234.034 276.014 233.3 276.049C233.031 276.053 232.764 276.003 232.515 275.902C232.266 275.8 232.04 275.65 231.85 275.459C231.418 275.003 231.115 274.44 230.97 273.829C230.76 273.039 230.643 272.227 230.62 271.409C230.62 271.099 230.62 270.759 230.62 270.409C230.62 270.059 230.62 269.639 230.62 269.239C230.62 268.839 230.62 268.439 230.62 268.059C230.62 267.679 230.66 267.289 230.67 266.999ZM238 262.879C238.065 262.031 237.796 261.191 237.25 260.539C236.79 260.149 236.19 260.169 235.43 260.609C234.642 261.082 234.012 261.778 233.62 262.609C233.14 263.608 232.884 264.7 232.87 265.809C232.87 266.449 232.87 267.149 232.87 267.919C232.87 268.689 232.87 269.389 232.87 269.999C232.832 270.416 232.878 270.837 233.007 271.236C233.136 271.635 233.345 272.003 233.62 272.319C234.08 272.709 234.68 272.679 235.43 272.239C236.224 271.77 236.858 271.073 237.25 270.239C237.722 269.24 237.977 268.153 238 267.049C238 266.409 238 265.709 238 264.939C238 264.169 238 263.489 238 262.879Z" fill="#455A64"/>
<path d="M246.88 251.138C248.213 250.358 249.233 250.248 249.94 250.808C250.64 251.358 250.94 252.498 250.94 254.198C250.948 255.353 250.766 256.502 250.4 257.598C250.055 258.631 249.516 259.588 248.81 260.418L251.03 265.258C251.049 265.34 251.049 265.426 251.03 265.508C251.031 265.66 250.996 265.811 250.93 265.948C250.877 266.072 250.79 266.18 250.68 266.258L249.31 267.048C249.09 267.168 248.93 267.188 248.83 267.048C248.738 266.96 248.663 266.855 248.61 266.738L246.5 262.178L244.36 263.408V269.198C244.36 269.386 244.315 269.571 244.23 269.738C244.168 269.893 244.06 270.026 243.92 270.118L242.62 270.868C242.577 270.905 242.522 270.925 242.465 270.925C242.408 270.925 242.353 270.905 242.31 270.868C242.261 270.814 242.224 270.751 242.202 270.682C242.179 270.613 242.172 270.54 242.18 270.468V254.468C242.181 254.277 242.226 254.089 242.31 253.918C242.375 253.767 242.483 253.638 242.62 253.548L246.88 251.138ZM244.46 260.348L246.8 258.998C247.385 258.671 247.885 258.213 248.26 257.658C248.66 256.997 248.852 256.23 248.81 255.458C248.81 254.528 248.63 254.018 248.26 253.908C247.742 253.839 247.218 253.976 246.8 254.288L244.46 255.638V260.348Z" fill="#455A64"/>
<path d="M252.86 262.248C252.888 261.983 252.955 261.723 253.06 261.478C253.154 261.231 253.326 261.02 253.55 260.878L254.95 260.078C254.985 260.048 255.029 260.031 255.075 260.031C255.121 260.031 255.165 260.048 255.2 260.078C255.239 260.123 255.269 260.175 255.288 260.232C255.307 260.289 255.315 260.349 255.31 260.408C255.315 260.468 255.315 260.528 255.31 260.588L254.25 265.318C254.192 265.54 254.118 265.757 254.03 265.968C253.936 266.2 253.767 266.394 253.55 266.518L252.83 266.938C252.795 266.968 252.751 266.985 252.705 266.985C252.659 266.985 252.615 266.968 252.58 266.938C252.541 266.895 252.511 266.844 252.492 266.789C252.473 266.734 252.466 266.676 252.47 266.618V266.568L252.86 262.248Z" fill="#455A64"/>
<path d="M269.77 237.919C269.812 237.883 269.865 237.863 269.92 237.863C269.975 237.863 270.028 237.883 270.07 237.919C270.117 237.974 270.153 238.037 270.176 238.106C270.198 238.174 270.206 238.247 270.2 238.319V248.499C270.207 249.486 270.109 250.472 269.91 251.439C269.729 252.351 269.437 253.238 269.04 254.079C268.662 254.883 268.174 255.63 267.59 256.299C267.015 256.948 266.34 257.502 265.59 257.939C264.99 258.33 264.303 258.567 263.59 258.629C263.325 258.641 263.06 258.599 262.813 258.504C262.565 258.409 262.339 258.265 262.15 258.079C261.717 257.626 261.42 257.062 261.29 256.449C261.086 255.591 260.992 254.711 261.01 253.829V243.669C261.011 243.482 261.052 243.298 261.13 243.129C261.195 242.975 261.302 242.843 261.44 242.749L262.75 241.999C262.792 241.963 262.845 241.943 262.9 241.943C262.955 241.943 263.008 241.963 263.05 241.999C263.099 242.053 263.136 242.116 263.158 242.185C263.181 242.254 263.188 242.327 263.18 242.399V252.449C263.165 252.998 263.226 253.546 263.36 254.079C263.435 254.418 263.609 254.728 263.86 254.969C263.965 255.058 264.088 255.125 264.221 255.165C264.353 255.204 264.493 255.216 264.63 255.199C264.985 255.152 265.326 255.029 265.63 254.839C265.999 254.628 266.335 254.365 266.63 254.059C266.941 253.724 267.204 253.347 267.41 252.939C267.635 252.466 267.806 251.97 267.92 251.459C268.046 250.854 268.106 250.237 268.1 249.619V239.619C268.105 239.429 268.149 239.241 268.23 239.069C268.292 238.916 268.401 238.787 268.54 238.699L269.77 237.919Z" fill="#455A64"/>
<path d="M280 249.409C279.81 249.519 279.67 249.519 279.58 249.409C279.504 249.341 279.434 249.268 279.37 249.189L274.85 241.469V251.689C274.85 251.88 274.805 252.068 274.72 252.239C274.665 252.393 274.559 252.523 274.42 252.609L273.11 253.369C273.067 253.403 273.014 253.421 272.96 253.421C272.905 253.421 272.853 253.403 272.81 253.369C272.763 253.314 272.727 253.251 272.704 253.182C272.682 253.113 272.674 253.041 272.68 252.969V236.969C272.68 236.781 272.725 236.596 272.81 236.429C272.868 236.274 272.973 236.141 273.11 236.049L274.24 235.399C274.42 235.299 274.56 235.289 274.66 235.399C274.739 235.467 274.809 235.544 274.87 235.629L279.38 243.349V233.059C279.385 232.872 279.429 232.688 279.51 232.519C279.572 232.363 279.68 232.231 279.82 232.139L281.12 231.389C281.163 231.352 281.218 231.332 281.275 231.332C281.332 231.332 281.387 231.352 281.43 231.389C281.479 231.442 281.516 231.506 281.538 231.575C281.561 231.644 281.568 231.717 281.56 231.789V247.789C281.559 247.98 281.514 248.168 281.43 248.339C281.368 248.492 281.26 248.621 281.12 248.709L280 249.409Z" fill="#455A64"/>
<path d="M289.34 226.62C289.51 226.52 289.64 226.52 289.72 226.62C289.837 226.765 289.916 226.937 289.95 227.12L293.95 240.53C293.956 240.583 293.956 240.637 293.95 240.69C293.946 240.88 293.902 241.068 293.82 241.24C293.758 241.393 293.649 241.522 293.51 241.61L292.35 242.28C292.14 242.41 291.98 242.42 291.9 242.28C291.814 242.198 291.752 242.094 291.72 241.98L291.03 239.62L285.93 242.56L285.24 245.72C285.201 245.897 285.14 246.068 285.06 246.23C284.967 246.432 284.808 246.598 284.61 246.7L283.45 247.37C283.408 247.406 283.355 247.426 283.3 247.426C283.245 247.426 283.192 247.406 283.15 247.37C283.101 247.316 283.064 247.253 283.042 247.184C283.019 247.115 283.012 247.042 283.02 246.97C283.015 246.91 283.015 246.85 283.02 246.79L286.97 228.79C287.02 228.529 287.097 228.275 287.2 228.03C287.276 227.846 287.414 227.694 287.59 227.6L289.34 226.62ZM290.22 237.01L288.45 231.01L286.68 239.1L290.22 237.01Z" fill="#455A64"/>
<path d="M303.86 218.24C303.902 218.201 303.958 218.18 304.015 218.18C304.072 218.18 304.128 218.201 304.17 218.24C304.218 218.292 304.254 218.354 304.277 218.421C304.299 218.488 304.307 218.559 304.3 218.63V228.81C304.302 229.8 304.205 230.789 304.01 231.76C303.829 232.672 303.537 233.559 303.14 234.4C302.76 235.199 302.272 235.943 301.69 236.61C301.119 237.267 300.443 237.824 299.69 238.26C299.088 238.645 298.402 238.878 297.69 238.94C297.426 238.953 297.162 238.912 296.914 238.819C296.666 238.726 296.44 238.584 296.25 238.4C295.814 237.944 295.513 237.376 295.38 236.76C295.181 235.901 295.087 235.021 295.1 234.14V224C295.099 223.809 295.143 223.62 295.23 223.45C295.292 223.297 295.401 223.168 295.54 223.08L296.84 222.32C296.883 222.283 296.938 222.263 296.995 222.263C297.052 222.263 297.107 222.283 297.15 222.32C297.197 222.374 297.233 222.438 297.255 222.507C297.278 222.575 297.286 222.648 297.28 222.72V232.72C297.264 233.272 297.325 233.824 297.46 234.36C297.531 234.701 297.706 235.012 297.96 235.25C298.066 235.338 298.189 235.402 298.322 235.44C298.454 235.478 298.593 235.488 298.73 235.47C299.086 235.426 299.428 235.303 299.73 235.11C300.102 234.904 300.44 234.641 300.73 234.33C301.048 233.998 301.314 233.62 301.52 233.21C301.745 232.742 301.913 232.248 302.02 231.74C302.154 231.132 302.218 230.512 302.21 229.89V219.89C302.211 219.699 302.256 219.511 302.34 219.34C302.402 219.19 302.506 219.061 302.64 218.97L303.86 218.24Z" fill="#455A64"/>
<path d="M314.25 212.239C314.292 212.203 314.345 212.184 314.4 212.184C314.455 212.184 314.508 212.203 314.55 212.239C314.597 212.294 314.633 212.357 314.656 212.426C314.678 212.495 314.686 212.567 314.68 212.639V214.399C314.68 214.59 314.635 214.778 314.55 214.949C314.492 215.101 314.387 215.231 314.25 215.319L311.34 216.999V230.599C311.338 230.789 311.298 230.976 311.22 231.149C311.155 231.3 311.047 231.429 310.91 231.519L309.6 232.279C309.558 232.315 309.505 232.335 309.45 232.335C309.395 232.335 309.342 232.315 309.3 232.279C309.252 232.227 309.215 232.165 309.193 232.098C309.171 232.031 309.163 231.96 309.17 231.889V218.289L306.27 219.959C306.227 219.996 306.172 220.016 306.115 220.016C306.058 220.016 306.003 219.996 305.96 219.959C305.912 219.905 305.875 219.842 305.853 219.773C305.83 219.704 305.823 219.631 305.83 219.559V217.799C305.831 217.608 305.876 217.42 305.96 217.249C306.025 217.098 306.133 216.97 306.27 216.879L314.25 212.239Z" fill="#455A64"/>
<path d="M325.08 205.999C325.122 205.963 325.175 205.943 325.23 205.943C325.285 205.943 325.338 205.963 325.38 205.999C325.429 206.053 325.466 206.116 325.488 206.185C325.511 206.254 325.518 206.327 325.51 206.399V222.399C325.509 222.59 325.464 222.778 325.38 222.949C325.322 223.101 325.217 223.23 325.08 223.319L323.77 224.079C323.728 224.115 323.675 224.135 323.62 224.135C323.565 224.135 323.512 224.115 323.47 224.079C323.422 224.027 323.385 223.965 323.363 223.898C323.341 223.831 323.333 223.76 323.34 223.689V217.129L318.47 219.999V226.559C318.47 226.747 318.425 226.932 318.34 227.099C318.278 227.254 318.17 227.387 318.03 227.479L316.73 228.229C316.687 228.266 316.632 228.286 316.575 228.286C316.518 228.286 316.463 228.266 316.42 228.229C316.371 228.173 316.335 228.108 316.312 228.037C316.29 227.967 316.282 227.893 316.29 227.819V211.819C316.296 211.629 316.34 211.442 316.42 211.269C316.485 211.118 316.593 210.989 316.73 210.899L318.03 210.139C318.073 210.102 318.128 210.082 318.185 210.082C318.242 210.082 318.297 210.102 318.34 210.139C318.388 210.191 318.424 210.253 318.447 210.32C318.469 210.387 318.477 210.458 318.47 210.529V216.909L323.34 214.099V207.719C323.34 207.531 323.385 207.346 323.47 207.179C323.525 207.023 323.631 206.889 323.77 206.799L325.08 205.999Z" fill="#455A64"/>
<path d="M327.64 210.999C327.672 210.054 327.789 209.113 327.99 208.189C328.179 207.278 328.474 206.391 328.87 205.549C329.248 204.727 329.736 203.96 330.32 203.269C330.901 202.578 331.598 201.992 332.38 201.539C332.993 201.142 333.7 200.915 334.43 200.879C334.7 200.876 334.967 200.928 335.216 201.031C335.465 201.134 335.691 201.286 335.88 201.479C336.307 201.94 336.613 202.5 336.77 203.109C336.986 203.898 337.104 204.711 337.12 205.529C337.12 205.839 337.12 206.179 337.12 206.529V208.889C337.12 209.269 337.12 209.629 337.12 209.949C337.088 210.894 336.971 211.835 336.77 212.759C336.583 213.673 336.291 214.562 335.9 215.409C335.514 216.223 335.023 216.983 334.44 217.669C333.858 218.355 333.161 218.934 332.38 219.379C331.768 219.788 331.055 220.019 330.32 220.049C330.051 220.053 329.784 220.003 329.535 219.902C329.286 219.8 329.06 219.65 328.87 219.459C328.44 219.005 328.137 218.447 327.99 217.839C327.776 217.049 327.658 216.237 327.64 215.419C327.64 215.109 327.64 214.769 327.64 214.419C327.64 214.069 327.64 213.649 327.64 213.239C327.64 212.829 327.64 212.449 327.64 212.059C327.64 211.669 327.63 211.309 327.64 210.999ZM334.94 206.909C335.01 206.065 334.744 205.228 334.2 204.579C333.932 204.388 333.609 204.29 333.28 204.301C332.951 204.312 332.635 204.431 332.38 204.639C331.594 205.114 330.964 205.809 330.57 206.639C330.091 207.639 329.835 208.731 329.82 209.839C329.82 210.479 329.82 211.189 329.82 211.959C329.82 212.729 329.82 213.419 329.82 214.039C329.783 214.456 329.83 214.877 329.959 215.275C330.088 215.674 330.296 216.042 330.57 216.359C331.02 216.739 331.63 216.709 332.38 216.279C333.169 215.805 333.802 215.109 334.2 214.279C334.672 213.281 334.924 212.193 334.94 211.089C334.94 210.449 334.94 209.739 334.94 208.969C334.94 208.199 335 207.509 334.94 206.889V206.909Z" fill="#455A64"/>
<path d="M343.84 195.148C345.19 194.378 346.21 194.268 346.91 194.828C347.61 195.388 347.91 196.508 347.91 198.218C347.918 199.374 347.735 200.522 347.37 201.618C347.031 202.649 346.494 203.603 345.79 204.428L348.01 209.278C348.024 209.358 348.024 209.439 348.01 209.518C348.007 209.675 347.969 209.828 347.9 209.968C347.853 210.094 347.765 210.2 347.65 210.268L346.28 211.068C346.07 211.188 345.91 211.198 345.81 211.068C345.717 210.98 345.643 210.875 345.59 210.758L343.48 206.188L341.34 207.428V213.208C341.336 213.399 341.292 213.586 341.21 213.758C341.148 213.911 341.039 214.04 340.9 214.128L339.59 214.888C339.548 214.924 339.495 214.944 339.44 214.944C339.385 214.944 339.332 214.924 339.29 214.888C339.243 214.834 339.207 214.77 339.184 214.702C339.162 214.633 339.154 214.56 339.16 214.488V198.488C339.159 198.297 339.203 198.109 339.29 197.938C339.348 197.786 339.453 197.657 339.59 197.568L343.84 195.148ZM341.43 204.368L343.76 203.018C344.348 202.688 344.851 202.226 345.23 201.668C345.631 201.007 345.823 200.24 345.78 199.468C345.78 198.548 345.6 198.028 345.23 197.928C344.71 197.854 344.182 197.987 343.76 198.298L341.43 199.648V204.368Z" fill="#455A64"/>
<path d="M350.49 208.689C350.447 208.726 350.392 208.746 350.335 208.746C350.278 208.746 350.223 208.726 350.18 208.689C350.131 208.636 350.094 208.573 350.072 208.504C350.049 208.435 350.042 208.362 350.05 208.289V192.289C350.051 192.099 350.096 191.911 350.18 191.739C350.245 191.588 350.353 191.46 350.49 191.369L351.79 190.609C351.833 190.573 351.888 190.553 351.945 190.553C352.002 190.553 352.057 190.573 352.1 190.609C352.193 190.717 352.24 190.857 352.23 190.999V206.999C352.225 207.187 352.181 207.371 352.1 207.539C352.038 207.695 351.93 207.827 351.79 207.919L350.49 208.689Z" fill="#455A64"/>
<path d="M362.64 198.569C362.682 198.53 362.738 198.509 362.795 198.509C362.852 198.509 362.908 198.53 362.95 198.569C363.043 198.677 363.09 198.817 363.08 198.959V200.719C363.076 200.909 363.032 201.097 362.95 201.269C362.888 201.421 362.779 201.551 362.64 201.639L354.56 206.309C354.518 206.345 354.465 206.364 354.41 206.364C354.355 206.364 354.302 206.345 354.26 206.309C354.213 206.254 354.177 206.191 354.154 206.122C354.132 206.053 354.124 205.981 354.13 205.909V204.149C354.126 203.945 354.156 203.742 354.22 203.549L354.37 203.139L360.09 188.859L354.73 191.999C354.687 192.035 354.632 192.056 354.575 192.056C354.518 192.056 354.463 192.035 354.42 191.999C354.372 191.947 354.335 191.885 354.313 191.818C354.291 191.751 354.283 191.679 354.29 191.609V189.789C354.29 189.601 354.335 189.416 354.42 189.249C354.478 189.091 354.587 188.958 354.73 188.869L362.48 184.389C362.523 184.352 362.578 184.332 362.635 184.332C362.692 184.332 362.747 184.352 362.79 184.389C362.878 184.503 362.921 184.645 362.91 184.789V186.559C362.909 186.883 362.841 187.203 362.71 187.499L357 201.849L362.64 198.569Z" fill="#455A64"/>
<path d="M372.49 192.888C372.533 192.852 372.588 192.832 372.645 192.832C372.702 192.832 372.757 192.852 372.8 192.888C372.893 192.996 372.94 193.136 372.93 193.278V195.048C372.925 195.236 372.881 195.419 372.8 195.588C372.738 195.744 372.63 195.876 372.49 195.968L365.41 200.048C365.368 200.084 365.315 200.104 365.26 200.104C365.205 200.104 365.152 200.084 365.11 200.048C365.062 199.996 365.025 199.935 365.003 199.867C364.981 199.8 364.973 199.729 364.98 199.658V183.658C364.981 183.468 365.026 183.28 365.11 183.108C365.172 182.958 365.276 182.83 365.41 182.738L372.41 178.738C372.453 178.702 372.508 178.682 372.565 178.682C372.622 178.682 372.677 178.702 372.72 178.738C372.814 178.85 372.86 178.993 372.85 179.138V180.898C372.844 181.089 372.8 181.276 372.72 181.448C372.655 181.599 372.547 181.728 372.41 181.818L367.2 184.818V188.758L372.06 185.958C372.102 185.923 372.155 185.903 372.21 185.903C372.265 185.903 372.318 185.923 372.36 185.958C372.407 186.013 372.443 186.077 372.466 186.145C372.488 186.214 372.496 186.286 372.49 186.358V188.118C372.491 188.309 372.447 188.498 372.36 188.668C372.302 188.823 372.197 188.956 372.06 189.048L367.2 191.848V195.998L372.49 192.888Z" fill="#455A64"/>
<path d="M379.34 174.658C379.961 174.255 380.672 174.012 381.41 173.948C381.678 173.934 381.946 173.973 382.199 174.064C382.451 174.155 382.683 174.296 382.88 174.478C383.321 174.935 383.632 175.501 383.78 176.118C384.011 176.97 384.139 177.846 384.16 178.728C384.16 179.928 384.16 181.148 384.16 182.398C384.121 183.408 383.993 184.411 383.78 185.398C383.582 186.318 383.283 187.214 382.89 188.068C382.514 188.868 382.03 189.612 381.45 190.278C380.878 190.937 380.203 191.498 379.45 191.938L375.39 194.278C375.347 194.315 375.292 194.335 375.235 194.335C375.178 194.335 375.123 194.315 375.08 194.278C374.986 194.167 374.94 194.024 374.95 193.878V177.878C374.956 177.688 375 177.501 375.08 177.328C375.145 177.177 375.253 177.049 375.39 176.958L379.34 174.658ZM382 179.998C381.991 179.538 381.924 179.081 381.8 178.638C381.721 178.297 381.548 177.985 381.3 177.738C381.19 177.633 381.06 177.55 380.917 177.495C380.775 177.44 380.623 177.414 380.47 177.418C380.046 177.455 379.637 177.596 379.28 177.828L377.12 179.078V190.218L379.36 188.928C379.799 188.665 380.188 188.326 380.51 187.928C380.832 187.554 381.102 187.137 381.31 186.688C381.533 186.217 381.697 185.72 381.8 185.208C381.916 184.682 381.983 184.147 382 183.608C382 182.408 382 181.178 382 179.998Z" fill="#455A64"/>
</svg>
