<svg width="620" height="620" viewBox="0 0 620 620" fill="none" xmlns="http://www.w3.org/2000/svg">
<circle cx="320.5" cy="359.5" r="207.5" fill="#E2F0FF"/>
<path d="M530 318.92H113V319.128H530V318.92Z" fill="#D8D8D8"/>
<path d="M488.217 332.34H470.135V332.548H488.217V332.34Z" fill="#D8D8D8"/>
<path d="M400.455 328.02H372.007V328.228H400.455V328.02Z" fill="#D8D8D8"/>
<path d="M480.894 324.6H443.756V324.808H480.894V324.6Z" fill="#D8D8D8"/>
<path d="M257.299 328.803H248.008V329.011H257.299V328.803Z" fill="#D8D8D8"/>
<path d="M240.577 328.803H208.56V329.011H240.577V328.803Z" fill="#D8D8D8"/>
<path d="M191.404 325.283H168.302V325.492H191.404V325.283Z" fill="#D8D8D8"/>
<path d="M310.658 281.724H149.621C148.359 281.722 147.15 281.219 146.259 280.327C145.368 279.434 144.867 278.224 144.867 276.962V50.5896C144.878 49.3353 145.384 48.1359 146.274 47.2521C147.164 46.3683 148.367 45.8713 149.621 45.8691H310.658C311.921 45.8691 313.132 46.3709 314.025 47.2639C314.918 48.157 315.42 49.3683 315.42 50.6313V276.962C315.42 278.225 314.918 279.436 314.025 280.33C313.132 281.223 311.921 281.724 310.658 281.724ZM149.621 46.0359C148.415 46.0382 147.259 46.5189 146.406 47.3726C145.554 48.2263 145.076 49.3833 145.076 50.5896V276.962C145.076 278.168 145.554 279.325 146.406 280.179C147.259 281.033 148.415 281.514 149.621 281.516H310.658C311.865 281.514 313.022 281.033 313.876 280.18C314.729 279.326 315.209 278.169 315.212 276.962V50.5896C315.209 49.3826 314.729 48.2256 313.876 47.3721C313.022 46.5186 311.865 46.0381 310.658 46.0359H149.621Z" fill="#D8D8D8"/>
<path d="M491.06 281.724H330.015C328.753 281.722 327.543 281.22 326.65 280.327C325.758 279.435 325.255 278.225 325.253 276.962V50.5896C325.266 49.3345 325.773 48.1352 326.665 47.2516C327.556 46.368 328.76 45.8713 330.015 45.8691H491.06C492.313 45.8735 493.514 46.3714 494.402 47.255C495.291 48.1386 495.795 49.3367 495.806 50.5896V276.962C495.806 278.222 495.307 279.431 494.417 280.324C493.528 281.216 492.321 281.72 491.06 281.724ZM330.015 46.0359C328.808 46.0381 327.651 46.5186 326.798 47.3721C325.944 48.2256 325.464 49.3826 325.461 50.5896V276.962C325.464 278.169 325.944 279.326 326.798 280.18C327.651 281.033 328.808 281.514 330.015 281.516H491.06C492.267 281.514 493.424 281.033 494.278 280.18C495.131 279.326 495.612 278.169 495.614 276.962V50.5896C495.612 49.3826 495.131 48.2256 494.278 47.3721C493.424 46.5186 492.267 46.0381 491.06 46.0359H330.015Z" fill="#D8D8D8"/>
<path d="M293.202 167.533L293.578 156.574L286.856 154.372C286.567 150.658 285.964 146.976 285.054 143.363L290.759 139.193L286.889 128.902L279.833 129.469C278.16 126.153 276.207 122.986 273.995 120.003L277.648 113.906L270.142 105.892L263.837 109.119C261.002 106.696 257.973 104.509 254.78 102.581L255.797 95.5751L245.789 91.0381L241.202 96.4091C237.664 95.2771 234.037 94.4403 230.36 93.9071L228.692 87.0433L217.7 86.668L215.532 93.3983C211.822 93.69 208.142 94.2898 204.531 95.1915L200.295 89.5202L190.003 93.365L190.57 100.421C187.256 102.119 184.09 104.091 181.104 106.317L174.966 102.581L166.918 110.087L170.146 116.425C167.721 119.246 165.545 122.271 163.64 125.466L156.643 124.415L152.073 134.423L157.477 139.001C156.337 142.538 155.5 146.165 154.975 149.843L148.028 151.587L147.653 162.545L154.408 164.747C154.687 168.459 155.287 172.139 156.201 175.748L150.497 179.918L154.375 190.217L161.43 189.65C163.099 192.968 165.052 196.136 167.268 199.116L163.607 205.213L171.113 213.227L177.418 210C180.246 212.423 183.27 214.607 186.459 216.53L185.408 223.527L195.416 228.073L200.028 222.702C203.566 223.844 207.192 224.695 210.87 225.245L212.538 232.109L223.53 232.485L225.698 225.754C229.411 225.459 233.093 224.859 236.707 223.961L240.877 229.632L251.169 225.788L250.635 218.732C253.943 217.023 257.108 215.051 260.101 212.835L266.164 216.488L274.212 208.982L270.985 202.644C273.409 199.824 275.586 196.799 277.49 193.603L284.487 194.654L289.057 184.646L283.653 180.059C284.812 176.525 285.663 172.898 286.197 169.217L293.202 167.533ZM219.151 203.036C210.551 202.745 202.23 199.911 195.241 194.89C188.252 189.87 182.909 182.89 179.888 174.833C176.867 166.775 176.303 158.003 178.268 149.625C180.233 141.247 184.639 133.641 190.928 127.767C197.217 121.894 205.107 118.017 213.599 116.628C222.091 115.239 230.805 116.4 238.637 119.964C246.47 123.528 253.069 129.335 257.601 136.651C262.132 143.966 264.393 152.461 264.096 161.061C263.7 172.586 258.743 183.483 250.315 191.354C241.886 199.226 230.677 203.428 219.151 203.036Z" fill="#D8D8D8"/>
<path d="M480.794 131.287L483.554 128.71L482.462 126.533C483.295 125.558 484.046 124.514 484.705 123.414L487.124 123.772L488.684 120.32L486.832 118.743C487.231 117.523 487.524 116.27 487.708 114.999L490.085 114.407L490.201 110.62L487.883 109.87C487.781 108.587 487.575 107.315 487.266 106.067L489.226 104.607L487.891 101.063L485.464 101.254C484.879 100.111 484.201 99.0178 483.438 97.9851L484.697 95.9001L482.103 93.1312L479.935 94.2404C478.958 93.4089 477.915 92.6586 476.816 91.997L477.166 89.5784L473.722 88.0021L472.137 89.8619C470.914 89.4811 469.661 89.2021 468.392 89.0279L467.8 86.6594L464.014 86.5176L463.255 88.8528C461.978 88.9504 460.711 89.1569 459.469 89.4699L458.017 87.51L454.465 88.8361L454.665 91.2714C453.518 91.8509 452.424 92.529 451.395 93.298L449.294 92.0387L446.525 94.6157L447.601 96.7424C446.761 97.715 446.008 98.7586 445.349 99.8616L442.939 99.503L441.371 102.956L443.231 104.54C442.845 105.759 442.566 107.009 442.397 108.277L440.011 108.869L439.895 112.655L442.221 113.406C442.316 114.688 442.52 115.961 442.83 117.209L440.862 118.66L442.196 122.204L444.632 122.021C445.217 123.164 445.895 124.258 446.658 125.29L445.399 127.375L447.993 130.144L450.161 129.035C451.136 129.869 452.179 130.62 453.28 131.278L452.922 133.689L456.374 135.265L457.959 133.413C459.183 133.79 460.435 134.069 461.704 134.247L462.296 136.616L466.082 136.758L466.841 134.423C468.119 134.325 469.385 134.119 470.627 133.805L472.079 135.765L475.631 134.439L475.44 132.004C476.583 131.424 477.674 130.746 478.701 129.977L480.794 131.287ZM461.095 115.332C460.367 114.552 459.886 113.573 459.714 112.519C459.542 111.466 459.687 110.385 460.129 109.414C460.572 108.442 461.293 107.624 462.2 107.062C463.108 106.501 464.162 106.221 465.229 106.258C466.295 106.295 467.327 106.648 468.193 107.272C469.059 107.896 469.721 108.763 470.095 109.763C470.468 110.763 470.537 111.851 470.292 112.89C470.046 113.929 469.499 114.872 468.718 115.599C468.199 116.088 467.589 116.469 466.922 116.72C466.256 116.972 465.546 117.088 464.834 117.064C464.122 117.039 463.422 116.873 462.774 116.576C462.127 116.279 461.545 115.856 461.061 115.332H461.095Z" fill="#D8D8D8"/>
<path d="M379.88 243.81L371.256 237.847C370.411 234.742 369.248 231.732 367.787 228.865L369.997 220.191L357.487 206.797L348.68 208.407C345.917 206.751 342.991 205.385 339.948 204.329L334.594 195.313L316.246 194.688L310.291 203.311C307.19 204.156 304.183 205.316 301.317 206.772L292.644 204.562L279.25 217.072L280.859 225.862C279.205 228.631 277.841 231.563 276.789 234.611L267.774 239.965L267.148 258.313L275.78 264.268C276.611 267.39 277.772 270.415 279.241 273.292L277.006 281.891L289.516 295.285L298.265 293.683C301.048 295.341 303.994 296.71 307.055 297.77L312.401 306.769L330.749 307.403L336.695 298.779C339.825 297.934 342.86 296.771 345.753 295.31L354.376 297.511L367.779 285.001L366.169 276.211C367.828 273.442 369.192 270.507 370.239 267.454L379.254 262.1L379.88 243.81ZM322.793 271.657C318.719 271.518 314.779 270.174 311.469 267.796C308.16 265.417 305.63 262.111 304.2 258.294C302.769 254.478 302.502 250.323 303.433 246.355C304.364 242.387 306.45 238.784 309.428 236.002C312.406 233.22 316.143 231.383 320.165 230.724C324.187 230.065 328.314 230.614 332.024 232.3C335.734 233.987 338.861 236.735 341.01 240.199C343.158 243.662 344.231 247.685 344.093 251.758C343.902 257.221 341.55 262.385 337.555 266.116C333.56 269.847 328.248 271.84 322.784 271.657H322.793Z" fill="#D8D8D8"/>
<path d="M399.521 191.818H399.462L385.017 191.326C384.725 191.321 384.438 191.242 384.185 191.096C383.931 190.95 383.718 190.742 383.566 190.492L379.671 183.945C377.572 183.178 375.541 182.235 373.6 181.126L367.37 182.202C367.08 182.255 366.781 182.234 366.501 182.141C366.221 182.048 365.969 181.885 365.769 181.669L355.902 171.11C355.695 170.891 355.548 170.623 355.475 170.331C355.402 170.039 355.406 169.733 355.485 169.442L357.062 163.262C356.085 161.26 355.287 159.175 354.676 157.032L348.396 152.695C348.153 152.528 347.956 152.302 347.823 152.038C347.69 151.774 347.626 151.481 347.637 151.186L348.13 136.741C348.139 136.449 348.22 136.165 348.366 135.912C348.511 135.659 348.716 135.445 348.964 135.29L355.527 131.395C356.284 129.301 357.225 127.277 358.338 125.349L357.187 119.069C357.133 118.777 357.154 118.477 357.247 118.195C357.34 117.914 357.503 117.661 357.721 117.459L368.279 107.601C368.497 107.393 368.765 107.245 369.057 107.17C369.349 107.096 369.656 107.098 369.947 107.176L376.152 108.76C378.149 107.783 380.228 106.982 382.365 106.367L386.702 100.087C386.863 99.8373 387.088 99.6354 387.354 99.502C387.619 99.3685 387.915 99.3084 388.212 99.3278L402.648 99.8282C402.942 99.8344 403.229 99.914 403.484 100.06C403.739 100.205 403.953 100.412 404.108 100.662L408.002 107.217C410.087 107.983 412.101 108.926 414.024 110.036L420.329 108.877C420.619 108.823 420.918 108.844 421.198 108.937C421.479 109.031 421.73 109.194 421.93 109.411L431.796 119.969C432.002 120.189 432.148 120.457 432.221 120.749C432.294 121.041 432.292 121.347 432.213 121.637L430.629 127.834C431.606 129.832 432.409 131.911 433.031 134.047L439.302 138.384C439.546 138.551 439.743 138.777 439.876 139.041C440.009 139.305 440.072 139.598 440.061 139.894L439.569 154.33C439.559 154.623 439.478 154.909 439.333 155.163C439.188 155.417 438.982 155.632 438.735 155.79L432.172 159.684C431.41 161.774 430.469 163.794 429.361 165.723L430.512 172.011C430.566 172.301 430.545 172.6 430.452 172.88C430.359 173.161 430.196 173.412 429.978 173.612L419.353 183.478C419.134 183.685 418.866 183.833 418.574 183.906C418.282 183.979 417.976 183.975 417.685 183.895L411.514 182.319C409.503 183.292 407.413 184.092 405.267 184.713L400.972 190.984C400.817 191.232 400.604 191.438 400.351 191.583C400.097 191.728 399.812 191.809 399.521 191.818ZM386.102 187.84L398.612 188.266L402.782 182.269C403.013 181.919 403.367 181.669 403.774 181.569C406.121 180.927 408.398 180.052 410.571 178.958C410.95 178.776 411.381 178.731 411.789 178.833L417.627 180.326L426.801 171.777L425.75 165.748C425.669 165.326 425.746 164.89 425.967 164.522C427.205 162.456 428.226 160.268 429.011 157.991C429.143 157.579 429.422 157.229 429.795 157.007L436.075 153.288L436.5 140.778L430.495 136.608C430.179 136.392 429.942 136.078 429.82 135.715C429.82 135.673 429.82 135.623 429.82 135.573C429.177 133.268 428.306 131.033 427.218 128.901C427.025 128.52 426.977 128.081 427.084 127.667L428.585 121.762L420.037 112.588L414.041 113.689C413.622 113.765 413.19 113.688 412.823 113.472C410.754 112.231 408.563 111.206 406.284 110.412C406.154 110.37 406.028 110.314 405.909 110.245C405.669 110.095 405.468 109.889 405.325 109.644L401.564 103.348L389.054 102.914L384.884 108.927C384.635 109.28 384.268 109.531 383.85 109.636C381.527 110.271 379.275 111.14 377.128 112.23C376.749 112.423 376.313 112.47 375.902 112.363L369.997 110.862L360.823 119.41L361.924 125.39C361.989 125.767 361.934 126.156 361.765 126.499L361.682 126.641C360.442 128.714 359.421 130.911 358.638 133.197C358.5 133.588 358.228 133.919 357.871 134.131L351.591 137.859L351.165 150.369L357.178 154.539C357.521 154.773 357.77 155.122 357.879 155.523C358.504 157.865 359.374 160.134 360.473 162.295C360.532 162.418 360.58 162.546 360.614 162.678C360.677 162.953 360.677 163.238 360.614 163.512L359.113 169.35L367.662 178.524L373.617 177.432C374.033 177.356 374.462 177.433 374.826 177.649C376.911 178.888 379.115 179.913 381.406 180.709C381.819 180.832 382.169 181.11 382.382 181.485L386.102 187.84ZM393.833 172.019C393.524 172.019 393.216 172.019 392.907 172.019C385.974 171.897 379.37 169.042 374.532 164.074C369.694 159.107 367.014 152.43 367.075 145.496C367.136 138.562 369.933 131.933 374.858 127.052C379.782 122.17 386.436 119.431 393.37 119.431C400.304 119.431 406.957 122.17 411.882 127.052C416.807 131.933 419.604 138.562 419.665 145.496C419.726 152.43 417.046 159.107 412.208 164.074C407.37 169.042 400.766 171.897 393.833 172.019ZM393.833 122.738C387.774 122.843 382.002 125.336 377.773 129.676C373.544 134.016 371.201 139.85 371.253 145.91C371.305 151.969 373.749 157.762 378.052 162.028C382.355 166.294 388.169 168.688 394.229 168.688C400.288 168.688 406.103 166.294 410.406 162.028C414.709 157.762 417.152 151.969 417.205 145.91C417.257 139.85 414.914 134.016 410.685 129.676C406.456 125.336 400.684 122.843 394.625 122.738H393.833Z" fill="#D8D8D8"/>
<path d="M432.789 87.8367L426.801 86.2354L425.199 80.2473L427.543 77.9121L430.012 83.0245L435.132 85.5015L432.789 87.8367Z" fill="#E0E0E0"/>
<path d="M433.156 83.833C433.415 83.574 433.62 83.2665 433.761 82.9281C433.901 82.5897 433.973 82.2269 433.973 81.8606C433.973 81.4943 433.901 81.1316 433.761 80.7932C433.62 80.4547 433.415 80.1472 433.156 79.8882C432.897 79.6292 432.589 79.4237 432.251 79.2835C431.913 79.1434 431.55 79.0712 431.184 79.0712C430.817 79.0712 430.455 79.1434 430.116 79.2835C429.778 79.4237 429.47 79.6292 429.211 79.8882L432.189 75.418L436.175 77.4362L437.051 81.6062L433.156 83.833Z" fill="#E0E0E0"/>
<path d="M427.068 78.3947L431.454 74.0078L437.426 75.6008L439.036 81.5805L434.649 85.9674L428.669 84.3578L427.068 78.3947ZM435.032 81.9809C435.423 81.59 435.689 81.0922 435.796 80.5503C435.904 80.0084 435.848 79.4468 435.637 78.9364C435.425 78.4261 435.067 77.9899 434.608 77.683C434.148 77.3762 433.608 77.2124 433.056 77.2124C432.503 77.2124 431.963 77.3762 431.504 77.683C431.044 77.9899 430.686 78.4261 430.475 78.9364C430.263 79.4468 430.208 80.0084 430.315 80.5503C430.423 81.0922 430.689 81.59 431.079 81.9809C431.608 82.4992 432.319 82.7881 433.059 82.785C433.799 82.7819 434.508 82.4869 435.032 81.9642V81.9809Z" fill="#F0F0F0"/>
<path d="M188.243 247.456L191.454 246.589L192.313 243.378L191.062 242.127L189.736 244.871L186.984 246.197L188.243 247.456Z" fill="#E0E0E0"/>
<path d="M188.06 245.303C187.809 245.016 187.677 244.645 187.689 244.264C187.702 243.884 187.859 243.522 188.128 243.253C188.397 242.983 188.759 242.826 189.14 242.814C189.521 242.801 189.892 242.934 190.178 243.185L188.586 240.791L186.392 241.859L185.925 244.11L188.06 245.303Z" fill="#E0E0E0"/>
<path d="M191.313 242.375L188.961 240.023L185.75 240.857L184.916 244.068L187.226 246.445L190.437 245.611L191.313 242.375ZM187.042 244.302C186.888 244.166 186.763 244.001 186.675 243.815C186.587 243.629 186.538 243.428 186.531 243.222C186.524 243.017 186.56 242.812 186.635 242.621C186.711 242.43 186.825 242.256 186.97 242.111C187.115 241.966 187.289 241.852 187.48 241.776C187.671 241.701 187.876 241.665 188.081 241.672C188.286 241.679 188.488 241.728 188.674 241.816C188.86 241.904 189.025 242.029 189.161 242.184C189.412 242.47 189.544 242.841 189.532 243.222C189.519 243.603 189.362 243.965 189.093 244.234C188.824 244.503 188.462 244.66 188.081 244.673C187.7 244.685 187.329 244.553 187.042 244.302Z" fill="#F0F0F0"/>
<path d="M176.684 71.4397L179.353 74.1085C179.687 74.4365 180.136 74.6203 180.604 74.6203C181.072 74.6203 181.521 74.4365 181.855 74.1085C182.181 73.7737 182.364 73.3248 182.364 72.8575C182.364 72.3901 182.181 71.9413 181.855 71.6065L179.195 68.946C178.86 68.6199 178.411 68.4375 177.944 68.4375C177.476 68.4375 177.027 68.6199 176.693 68.946C176.366 69.2783 176.182 69.7252 176.181 70.1911C176.179 70.6571 176.36 71.1052 176.684 71.4397Z" fill="#F0F0F0"/>
<path d="M174.808 64.8095C175.504 64.6158 176.242 64.6298 176.931 64.8496C177.619 65.0694 178.229 65.4855 178.684 66.0468C179.14 66.6081 179.421 67.2902 179.494 68.0093C179.568 68.7284 179.429 69.4533 179.096 70.0948C178.763 70.7364 178.25 71.2668 177.62 71.6208C176.99 71.9748 176.27 72.1371 175.549 72.0878C174.828 72.0384 174.136 71.7795 173.56 71.3429C172.984 70.9063 172.548 70.311 172.306 69.63C172.152 69.1493 172.095 68.6428 172.137 68.1398C172.18 67.6368 172.321 67.1472 172.554 66.6992C172.786 66.2512 173.105 65.8536 173.492 65.5292C173.879 65.2049 174.326 64.9603 174.808 64.8095Z" fill="#E0E0E0"/>
<path d="M171.905 69.1825L172.292 70.2578L180.219 67.41L179.833 66.3347L171.905 69.1825Z" fill="#F0F0F0"/>
<path d="M321.5 356.585C410.807 356.585 483.204 352.358 483.204 347.144C483.204 341.93 410.807 337.703 321.5 337.703C232.193 337.703 159.796 341.93 159.796 347.144C159.796 352.358 232.193 356.585 321.5 356.585Z" fill="#F5F5F5"/>
<path d="M185.325 100.622C184.491 96.9436 184.858 93.8578 186.442 91.3392C188.027 88.8205 190.612 87.1692 194.29 86.3352C197.968 85.5012 201.146 85.8348 203.631 87.386C206.116 88.9372 207.801 91.556 208.635 95.1422C209.224 97.3556 209.272 99.6781 208.777 101.914C208.292 103.771 207.267 105.443 205.833 106.718C204.129 108.153 202.083 109.124 199.895 109.537C197.749 110.107 195.502 110.184 193.323 109.762C191.428 109.302 189.714 108.285 188.402 106.843C186.834 105.085 185.771 102.935 185.325 100.622ZM192.28 99.0703C192.797 101.339 193.589 102.873 194.657 103.674C195.208 104.041 195.828 104.294 196.479 104.415C197.13 104.537 197.799 104.526 198.445 104.383C199.092 104.239 199.703 103.967 200.241 103.581C200.78 103.196 201.235 102.705 201.579 102.139C202.18 100.98 202.188 99.1371 201.621 96.6267C201.137 94.5084 200.356 93.0572 199.277 92.2732C198.734 91.8835 198.111 91.6204 197.453 91.5035C196.794 91.3866 196.118 91.4188 195.474 91.5977C194.83 91.7184 194.221 91.9838 193.694 92.3738C193.166 92.7639 192.734 93.2684 192.43 93.8495C191.813 95.0755 191.755 96.7435 192.28 99.0703Z" fill="#263238"/>
<path d="M211.904 97.8701C211.608 96.7335 211.555 95.5472 211.749 94.3888C211.943 93.2304 212.38 92.126 213.03 91.148C213.759 90.109 214.686 89.2242 215.758 88.5444C216.83 87.8646 218.026 87.4031 219.277 87.1865C222.54 86.447 225.22 86.8335 227.316 88.3458C229.081 89.7133 230.28 91.6819 230.686 93.8767C231.092 96.0715 230.676 98.3389 229.518 100.247C228.217 102.232 226.099 103.555 223.163 104.217C220.901 104.849 218.488 104.654 216.358 103.666C215.218 103.11 214.223 102.296 213.451 101.291C212.678 100.285 212.149 99.1144 211.904 97.8701ZM218.168 96.4272C218.336 97.5927 218.905 98.663 219.777 99.4547C220.123 99.7162 220.521 99.8994 220.945 99.9915C221.368 100.084 221.807 100.082 222.23 99.9879C222.653 99.8935 223.05 99.7081 223.394 99.4446C223.738 99.1812 224.021 98.8459 224.222 98.4622C224.659 97.342 224.7 96.1062 224.339 94.9594C224.164 93.8213 223.601 92.7786 222.746 92.007C222.414 91.7381 222.025 91.5493 221.609 91.4553C221.192 91.3612 220.759 91.3645 220.344 91.4649C219.912 91.5546 219.505 91.7417 219.155 92.0119C218.805 92.2821 218.522 92.6284 218.326 93.0245C217.877 94.1053 217.821 95.3094 218.168 96.4272Z" fill="#263238"/>
<path d="M236.916 107.226L231.803 84.7083L237.641 83.3739L238.192 85.7842C238.604 84.823 239.202 83.9528 239.952 83.2238C240.774 82.5254 241.757 82.0412 242.812 81.8144C243.787 81.5491 244.813 81.5339 245.796 81.77C246.778 82.0062 247.685 82.4861 248.433 83.1654C250.082 84.7063 251.2 86.7295 251.628 88.9451C252.245 91.6556 252.061 93.874 251.094 95.6171C250.634 96.4504 249.998 97.1738 249.23 97.7369C248.463 98.3 247.582 98.6893 246.649 98.878C245.75 99.0911 244.818 99.128 243.905 98.9864C243.029 98.833 242.194 98.5008 241.453 98.0106L243.221 105.792L236.916 107.226ZM239.927 91.4971C240.08 92.5387 240.6 93.4912 241.394 94.1826C241.713 94.4264 242.082 94.595 242.475 94.6759C242.868 94.7568 243.274 94.7478 243.663 94.6496C244.024 94.5772 244.363 94.421 244.653 94.1936C244.943 93.9662 245.175 93.6739 245.331 93.3402C245.686 92.2964 245.686 91.1648 245.331 90.121C245.178 89.0741 244.676 88.1099 243.905 87.3855C243.619 87.1479 243.282 86.9793 242.921 86.8925C242.559 86.8058 242.182 86.8032 241.82 86.8851C241.437 86.9678 241.077 87.136 240.768 87.3772C240.459 87.6184 240.208 87.9263 240.035 88.2779C239.627 89.3059 239.588 90.4439 239.927 91.4971Z" fill="#263238"/>
<path d="M254.305 91.9909L260.376 89.9976C260.699 90.5846 261.202 91.0523 261.811 91.332C262.466 91.5217 263.159 91.5369 263.822 91.376C264.485 91.215 265.094 90.8836 265.589 90.4146C265.727 90.2675 265.828 90.0888 265.881 89.894C265.935 89.6993 265.941 89.4944 265.897 89.2971C265.847 89.0713 265.731 88.8656 265.563 88.7066C265.395 88.5476 265.183 88.4424 264.955 88.4047C264.013 88.3012 263.062 88.3012 262.119 88.4047C260.538 88.5392 258.947 88.5392 257.366 88.4047C256.44 88.2703 255.572 87.8738 254.864 87.2621C254.108 86.6084 253.587 85.7265 253.378 84.7499C253.168 83.7733 253.283 82.7551 253.704 81.8494C254.191 80.8804 254.947 80.0724 255.881 79.5226C257.211 78.7668 258.657 78.2343 260.159 77.9463C261.594 77.557 263.077 77.3772 264.563 77.4126C265.496 77.4726 266.401 77.7589 267.198 78.2466C268.049 78.82 268.77 79.5642 269.317 80.4316L263.479 82.3582C263.261 81.9237 262.898 81.5786 262.453 81.3824C261.845 81.1648 261.185 81.1357 260.56 81.299C260.007 81.376 259.495 81.6307 259.1 82.0246C258.975 82.1588 258.884 82.3218 258.836 82.4991C258.788 82.6765 258.784 82.8629 258.825 83.0421C258.87 83.2393 258.974 83.4181 259.123 83.5551C259.272 83.6921 259.459 83.7807 259.659 83.8093C260.591 83.9176 261.534 83.8979 262.461 83.751C264.07 83.5179 265.701 83.4955 267.315 83.6842C268.331 83.8276 269.282 84.2655 270.051 84.9436C270.746 85.5742 271.23 86.4044 271.435 87.3205C271.649 88.3028 271.571 89.3261 271.21 90.2645C270.769 91.3755 270.001 92.3264 269.008 92.9917C267.545 93.9479 265.907 94.6029 264.188 94.9182C261.213 95.5965 258.989 95.6549 257.516 95.0934C256.08 94.5201 254.927 93.406 254.305 91.9909Z" fill="#263238"/>
<path d="M274.671 71.3652H281.518V76.6194L280.259 87.1862H276.022L274.671 76.6361V71.3652ZM275.004 88.7792H281.393V94.4337H275.004V88.7792Z" fill="#263238"/>
<path d="M220.319 143.098H220.169C216.416 141.638 214.173 140.22 213.005 138.511C212.091 138.684 211.145 138.555 210.311 138.144C209.334 137.665 208.523 136.904 207.984 135.959C207.701 136.176 207.368 136.318 207.015 136.372C206.662 136.426 206.301 136.39 205.966 136.267C204.938 135.883 204.061 135.178 203.464 134.257C203.091 134.535 202.626 134.663 202.163 134.616C199.661 134.416 196.325 129.478 196.083 124.224C196.081 124.113 196.121 124.006 196.195 123.923C196.27 123.841 196.373 123.791 196.483 123.782C196.538 123.78 196.593 123.789 196.644 123.807C196.696 123.826 196.743 123.855 196.783 123.892C196.824 123.93 196.856 123.974 196.879 124.024C196.902 124.074 196.915 124.128 196.917 124.183C197.151 129.187 200.345 133.632 202.238 133.782C202.376 133.797 202.515 133.785 202.648 133.747C202.781 133.708 202.906 133.644 203.014 133.557C202.361 132.368 201.952 131.061 201.809 129.712C201.665 128.364 201.792 127 202.18 125.7C202.897 123.198 203.531 122.214 204.298 122.364C205.732 122.723 205.541 128.202 204.782 131.78C204.667 132.426 204.429 133.043 204.081 133.598C204.573 134.423 205.315 135.069 206.2 135.442C206.435 135.531 206.692 135.551 206.939 135.5C207.186 135.448 207.412 135.326 207.592 135.15C206.942 133.54 206.758 131.338 207.692 128.536C208.86 124.841 209.36 124.741 209.619 124.675C209.716 124.654 209.817 124.66 209.911 124.693C210.005 124.725 210.089 124.782 210.153 124.858C210.928 125.734 210.003 131.472 209.035 134.307C208.922 134.649 208.765 134.974 208.568 135.275C209.016 136.177 209.745 136.909 210.645 137.36C211.235 137.647 211.892 137.771 212.546 137.718C212.471 137.56 212.404 137.401 212.338 137.235C211.679 135.442 212.004 133.382 213.33 130.913C214.206 129.287 214.923 128.519 215.59 128.519C215.767 128.522 215.94 128.575 216.088 128.672C216.236 128.77 216.353 128.908 216.424 129.07C217.15 130.412 216.625 134.841 215.19 137.043C214.854 137.548 214.387 137.951 213.839 138.21C214.957 139.678 217.083 140.971 220.511 142.289C220.562 142.307 220.61 142.336 220.65 142.373C220.69 142.41 220.722 142.455 220.745 142.504C220.767 142.554 220.78 142.608 220.781 142.663C220.782 142.717 220.773 142.772 220.753 142.822C220.72 142.909 220.661 142.983 220.582 143.033C220.504 143.083 220.412 143.105 220.319 143.098ZM215.582 129.362C215.582 129.362 215.107 129.362 214.056 131.322C212.847 133.557 212.538 135.4 213.113 136.951C213.183 137.143 213.267 137.33 213.364 137.51C213.815 137.323 214.199 137.003 214.464 136.592C215.632 134.808 216.191 131.138 215.757 129.704C215.699 129.412 215.582 129.362 215.582 129.362ZM209.594 125.851C209.142 126.8 208.769 127.785 208.476 128.795C207.837 130.545 207.726 132.445 208.159 134.257L208.234 134.04C209.11 131.397 209.577 128.635 209.619 125.851H209.594ZM204.106 123.223C203.964 123.349 203.556 123.874 202.98 125.909C202.3 128.193 202.514 130.65 203.581 132.781C203.752 132.408 203.878 132.016 203.956 131.613C204.848 127.519 204.598 123.816 204.131 123.223H204.106Z" fill="#263238"/>
<path d="M252.028 186.816C250.694 186.829 249.382 186.486 248.225 185.824C248.129 185.766 248.06 185.674 248.032 185.566C248.004 185.459 248.019 185.345 248.075 185.248C248.102 185.201 248.139 185.16 248.182 185.127C248.226 185.095 248.275 185.071 248.328 185.058C248.381 185.045 248.436 185.042 248.49 185.05C248.544 185.059 248.595 185.078 248.642 185.106C251.619 186.849 255.464 185.632 256.256 184.356C256.313 184.276 256.354 184.185 256.375 184.089C256.397 183.993 256.399 183.894 256.381 183.797C254.859 183.884 253.351 183.455 252.103 182.579C249.976 181.253 249.809 180.853 249.826 180.536C249.83 180.445 249.859 180.357 249.908 180.28C249.958 180.204 250.028 180.143 250.11 180.102C250.944 179.685 254.705 181.412 256.273 182.446C256.461 182.571 256.634 182.716 256.79 182.88C257.406 182.74 257.961 182.407 258.374 181.929C258.607 181.656 258.775 181.333 258.867 180.986H258.7C257.365 181.12 256.031 180.544 254.605 179.227C253.621 178.326 253.245 177.7 253.37 177.208C253.408 177.07 253.485 176.946 253.591 176.85C253.698 176.753 253.83 176.69 253.971 176.666C255.122 176.374 257.974 177.592 259.133 178.868C259.392 179.145 259.576 179.484 259.667 179.852C260.76 179.343 261.911 178.184 263.27 176.291C263.302 176.246 263.342 176.207 263.388 176.178C263.435 176.149 263.487 176.129 263.541 176.119C263.595 176.11 263.651 176.112 263.705 176.124C263.758 176.136 263.809 176.159 263.854 176.191C263.943 176.256 264.004 176.354 264.022 176.463C264.041 176.571 264.016 176.683 263.954 176.775C262.378 178.976 261.06 180.227 259.742 180.736C259.674 181.353 259.421 181.934 259.017 182.404C258.536 182.963 257.905 183.371 257.199 183.58C257.238 183.779 257.238 183.984 257.198 184.183C257.158 184.382 257.079 184.571 256.965 184.739C256.264 185.932 254.246 186.816 252.028 186.816ZM251.285 181.028C251.569 181.237 251.969 181.512 252.545 181.862C253.442 182.467 254.472 182.845 255.547 182.963C254.205 182.158 252.775 181.509 251.285 181.028ZM254.196 177.484C254.436 177.935 254.768 178.33 255.172 178.643C256.406 179.785 257.532 180.311 258.616 180.177H258.883C258.824 179.918 258.697 179.68 258.516 179.485C257.349 178.167 254.78 177.35 254.196 177.484Z" fill="#263238"/>
<path d="M263.07 185.672L250.076 188.032L238.275 123.631L213.205 128.184L172.339 200.742L176.726 224.687L229.143 215.171L232.729 234.753L257.799 230.183L254.213 210.6L267.207 208.24L263.07 185.672ZM197.309 197.657L218.993 159.651L225.04 192.628L197.309 197.657Z" fill="#407BFF"/>
<path d="M367.729 119.262C367.334 115.213 366.438 111.229 365.06 107.402C363.643 103.736 361.674 100.308 359.222 97.2356C356.319 93.6616 352.714 90.721 348.63 88.5954C344.182 86.1546 338.283 84.456 330.933 83.4997C315.67 81.5092 303.778 84.2169 295.254 91.6228C286.731 99.0287 281.115 113.207 278.407 134.157C277.326 141.986 277.047 149.906 277.573 157.792C278.129 165.02 279.458 170.839 281.56 175.248C284.234 181.194 288.453 186.314 293.778 190.077C299.043 193.774 306.271 196.218 315.462 197.407C331.797 199.537 343.91 196.398 351.799 187.992C359.689 179.585 364.915 165.379 367.479 145.374C368.618 136.712 368.702 127.944 367.729 119.262Z" fill="#407BFF"/>
<path d="M322.976 188.843C320.966 188.776 318.806 188.593 316.63 188.309C308.99 187.317 303.085 185.382 299.065 182.563C295.057 179.732 291.887 175.871 289.891 171.387L289.85 171.296C288.248 167.96 287.198 163.164 286.739 157.118C286.253 149.855 286.51 142.561 287.506 135.35C290.484 112.232 296.63 102.582 301.259 98.5625C306.663 93.8754 313.961 91.757 323.552 92.0906C325.52 92.1574 327.605 92.3325 329.748 92.6077C335.903 93.4417 340.782 94.7761 344.235 96.661C347.218 98.1974 349.86 100.322 351.999 102.908C353.872 105.243 355.376 107.85 356.461 110.639C357.569 113.749 358.286 116.985 358.596 120.272C359.486 128.236 359.405 136.279 358.355 144.224C356.044 162.188 351.574 174.815 345.077 181.754C340.257 186.891 333.026 189.26 322.968 188.876L322.976 188.843Z" fill="#263238"/>
<path d="M339.298 119.503L339.406 116.342L337.463 115.708C337.38 114.639 337.207 113.579 336.946 112.539L338.614 111.321L337.496 108.352L335.461 108.519C334.983 107.565 334.425 106.652 333.793 105.792L334.844 104.032L332.676 101.722L330.858 102.656C330.044 101.957 329.174 101.326 328.256 100.771L328.547 98.7528L325.662 97.4435L324.344 98.9947C323.324 98.664 322.278 98.4185 321.217 98.2608L320.724 96.2842L317.555 96.1758L316.93 98.1107C315.861 98.1962 314.801 98.3691 313.761 98.6277L312.535 96.9597L309.566 98.069L309.732 100.104C308.778 100.583 307.866 101.141 307.005 101.772L305.254 100.713L302.935 102.873L303.869 104.699C303.168 105.512 302.54 106.386 301.993 107.31L299.975 107.001L298.657 109.887L300.216 111.204C299.878 112.226 299.632 113.275 299.483 114.34L297.498 114.841L297.389 117.993L299.332 118.627C299.414 119.699 299.587 120.762 299.849 121.805L298.181 123.014L299.299 125.983L301.334 125.816C301.808 126.773 302.366 127.686 303.002 128.543L301.943 130.303L304.111 132.613L305.929 131.687C306.743 132.384 307.613 133.012 308.531 133.564L308.231 135.582L311.117 136.892L312.443 135.349C313.466 135.678 314.515 135.92 315.579 136.074L316.071 138.059L319.232 138.168L319.857 136.224C320.929 136.143 321.992 135.97 323.035 135.707L324.244 137.375L327.213 136.266L327.055 134.24C328.005 133.754 328.917 133.197 329.782 132.572L331.533 133.622L333.852 131.462L332.926 129.636C333.625 128.826 334.25 127.955 334.794 127.034L336.812 127.334L338.13 124.448L336.579 123.131C336.911 122.111 337.153 121.065 337.304 120.003L339.298 119.503ZM317.947 129.736C315.477 129.646 313.089 128.826 311.084 127.379C309.08 125.933 307.549 123.925 306.684 121.61C305.82 119.294 305.66 116.774 306.227 114.368C306.793 111.962 308.06 109.777 309.866 108.091C311.673 106.404 313.939 105.29 316.378 104.889C318.817 104.489 321.321 104.82 323.572 105.841C325.823 106.863 327.721 108.528 329.027 110.627C330.332 112.725 330.987 115.164 330.908 117.635C330.855 119.281 330.477 120.901 329.797 122.402C329.116 123.902 328.146 125.254 326.942 126.378C325.737 127.502 324.323 128.378 322.779 128.954C321.236 129.53 319.594 129.796 317.947 129.736Z" fill="#407BFF"/>
<path opacity="0.3" d="M352.458 177.534L352.692 175.399L351.407 174.882C351.405 174.155 351.344 173.43 351.224 172.713L352.383 171.971L351.791 169.911H350.406C350.133 169.241 349.8 168.597 349.414 167.985L350.198 166.85L348.863 165.182L347.587 165.716C347.07 165.205 346.513 164.736 345.919 164.315L346.228 162.964L344.352 161.93L343.367 162.922C342.697 162.646 342.005 162.426 341.299 162.263L341.066 160.904L338.939 160.662L338.413 161.946C337.689 161.95 336.966 162.017 336.253 162.147L335.511 160.962L333.451 161.571V162.956C332.781 163.232 332.136 163.567 331.525 163.956L330.39 163.122L328.722 164.457L329.256 165.733C328.748 166.25 328.282 166.808 327.863 167.401L326.512 167.101L325.486 168.977L326.471 169.953C326.191 170.625 325.971 171.319 325.812 172.03L324.444 172.255L324.219 174.381L325.495 174.915C325.495 175.637 325.56 176.357 325.687 177.067L324.511 177.809L325.111 179.869H326.504C326.782 180.536 327.117 181.178 327.505 181.787L326.671 182.922L328.005 184.59L329.298 184.047C329.811 184.561 330.369 185.027 330.966 185.44L330.674 186.816L332.55 187.842L333.526 186.866C334.197 187.136 334.889 187.35 335.595 187.509L335.836 188.876L337.963 189.11L338.48 187.834C339.218 187.833 339.954 187.771 340.682 187.65L341.424 188.826L343.476 188.226V186.841C344.146 186.56 344.793 186.225 345.411 185.841L346.528 186.675L348.196 185.332L347.654 184.056C348.168 183.539 348.639 182.981 349.064 182.388L350.406 182.688L351.441 180.812L350.456 179.844C350.725 179.173 350.939 178.481 351.099 177.776L352.458 177.534ZM341.724 176.7C341.372 177.346 340.835 177.872 340.183 178.213C339.531 178.554 338.792 178.693 338.06 178.614C337.329 178.535 336.637 178.241 336.073 177.768C335.509 177.296 335.097 176.667 334.89 175.961C334.684 175.254 334.691 174.503 334.912 173.801C335.133 173.099 335.557 172.478 336.13 172.017C336.704 171.556 337.401 171.275 338.134 171.211C338.867 171.146 339.603 171.301 340.248 171.654C341.111 172.13 341.751 172.927 342.027 173.873C342.304 174.818 342.195 175.834 341.724 176.7Z" fill="#407BFF"/>
<path d="M364.276 141.487L361.774 139.769C361.528 138.876 361.192 138.01 360.773 137.184L361.407 134.682L357.804 130.82L355.302 131.287C354.508 130.815 353.67 130.421 352.8 130.111L351.257 127.509L345.978 127.334L344.26 129.836C343.366 130.078 342.499 130.414 341.674 130.837L339.172 130.195L335.311 133.806L335.778 136.308C335.299 137.098 334.905 137.937 334.602 138.81L332.008 140.353L331.825 145.632L334.327 147.35C334.569 148.25 334.905 149.122 335.328 149.952L334.694 152.454L338.297 156.315L340.799 155.857C341.593 156.329 342.431 156.722 343.301 157.033L344.835 159.626L350.123 159.81L351.833 157.308C352.734 157.063 353.609 156.728 354.443 156.307L356.945 156.941L360.806 153.338L360.348 150.836C360.822 150.043 361.216 149.205 361.524 148.334L364.117 146.791L364.276 141.487ZM347.821 149.51C346.647 149.47 345.512 149.082 344.558 148.397C343.605 147.711 342.876 146.758 342.464 145.658C342.052 144.558 341.975 143.361 342.244 142.217C342.513 141.074 343.114 140.036 343.973 139.235C344.831 138.433 345.908 137.904 347.068 137.715C348.227 137.526 349.416 137.684 350.485 138.171C351.554 138.658 352.455 139.45 353.073 140.449C353.691 141.447 354 142.607 353.959 143.78C353.903 145.353 353.225 146.84 352.074 147.914C350.924 148.988 349.394 149.562 347.821 149.51Z" fill="white"/>
<path d="M382.382 99.346L382.816 98.3035C383.111 98.1373 383.39 97.9447 383.65 97.728H384.617L385.751 96.06L385.384 95.1676C385.525 94.8704 385.637 94.5604 385.718 94.2419L386.552 93.4746L386.202 91.5147L385.151 91.081C384.986 90.7853 384.793 90.506 384.575 90.247V89.2796L382.949 88.1453L382.048 88.5206C381.719 88.4047 381.378 88.3263 381.031 88.2871L380.264 87.4531L378.312 87.8034L377.87 88.8542C377.561 89.0147 377.267 89.2046 376.994 89.4214H376.035L374.901 91.0894L375.268 91.9817C375.156 92.3121 375.078 92.653 375.034 92.9992L374.2 93.7748L374.551 95.7264L375.602 96.1601C375.761 96.4573 375.951 96.7369 376.169 96.9941V97.9532L377.837 99.0874L378.729 98.7205C379.063 98.8289 379.406 98.9043 379.755 98.9456L380.522 99.7796L382.382 99.346ZM378.212 93.9416C378.133 93.5065 378.185 93.0577 378.361 92.6521C378.538 92.2465 378.83 91.9024 379.202 91.6631C379.574 91.4239 380.009 91.3004 380.451 91.3083C380.893 91.3161 381.323 91.455 381.686 91.7073C382.05 91.9595 382.33 92.3139 382.491 92.7255C382.653 93.1371 382.689 93.5874 382.595 94.0195C382.501 94.4516 382.28 94.846 381.962 95.1528C381.643 95.4596 381.241 95.665 380.806 95.7431C380.223 95.8453 379.624 95.7134 379.138 95.376C378.652 95.0387 378.32 94.5232 378.212 93.9416Z" fill="#407BFF"/>
<path d="M359.539 93.8156L358.896 93.2735C360.273 91.5666 361.973 90.1493 363.9 89.1035L364.292 89.8374C362.46 90.8352 360.844 92.1875 359.539 93.8156Z" fill="#407BFF"/>
<path d="M366.194 89.0706L365.869 88.3034C368.949 86.965 372.316 86.4257 375.66 86.7354L375.577 87.5694C372.372 87.2674 369.144 87.784 366.194 89.0706Z" fill="#407BFF"/>
<path d="M364.618 94.8412L363.934 94.3742C365.943 91.6609 368.867 89.7676 372.165 89.0449L372.324 89.8789C369.242 90.552 366.506 92.3138 364.618 94.8412Z" fill="#407BFF"/>
<path d="M309.274 175.139C309.16 175.135 309.052 175.088 308.973 175.005L307.23 173.204C306.342 173.123 305.462 172.962 304.603 172.72L301.876 173.921C301.816 173.954 301.749 173.971 301.68 173.971C301.612 173.971 301.544 173.954 301.484 173.921L296.914 170.894C296.855 170.855 296.807 170.802 296.775 170.739C296.743 170.676 296.727 170.606 296.73 170.535V167.566C296.173 166.868 295.681 166.12 295.262 165.331L292.919 164.43C292.853 164.405 292.795 164.363 292.75 164.309C292.705 164.255 292.674 164.191 292.66 164.122L291.576 158.751C291.562 158.682 291.565 158.611 291.585 158.544C291.606 158.477 291.643 158.416 291.693 158.367L293.494 156.624C293.581 155.736 293.742 154.857 293.978 153.997L292.777 151.27C292.744 151.21 292.727 151.142 292.727 151.074C292.727 151.005 292.744 150.938 292.777 150.878L295.805 146.307C295.842 146.247 295.895 146.198 295.959 146.166C296.022 146.134 296.092 146.119 296.163 146.124L299.132 146.166C299.828 145.605 300.577 145.114 301.367 144.698L302.276 142.354C302.3 142.289 302.341 142.231 302.393 142.186C302.446 142.141 302.509 142.11 302.577 142.096L307.948 141.012C308.016 140.996 308.088 140.999 308.155 141.02C308.222 141.04 308.283 141.078 308.331 141.128L310.074 142.93C310.966 143.011 311.848 143.173 312.71 143.413L315.429 142.213C315.49 142.18 315.559 142.162 315.629 142.162C315.699 142.162 315.767 142.18 315.829 142.213L320.391 145.24C320.449 145.28 320.496 145.334 320.53 145.396C320.563 145.459 320.581 145.528 320.583 145.599L320.533 148.568C321.093 149.265 321.587 150.013 322.009 150.803L324.344 151.712C324.409 151.736 324.467 151.776 324.512 151.828C324.557 151.881 324.589 151.944 324.603 152.012L325.695 157.383C325.708 157.452 325.704 157.522 325.684 157.589C325.663 157.656 325.627 157.717 325.578 157.767L323.769 159.518C323.685 160.404 323.523 161.28 323.285 162.137L324.486 164.864C324.519 164.926 324.536 164.994 324.536 165.064C324.536 165.134 324.519 165.203 324.486 165.264L321.5 169.793C321.461 169.85 321.409 169.896 321.348 169.928C321.287 169.96 321.219 169.976 321.15 169.976L318.172 169.935C317.474 170.488 316.729 170.979 315.946 171.403L315.037 173.746C315.012 173.812 314.97 173.871 314.916 173.916C314.862 173.961 314.797 173.992 314.728 174.005L309.357 175.139H309.274ZM304.578 171.803C304.617 171.795 304.656 171.795 304.695 171.803C305.596 172.065 306.521 172.236 307.456 172.312C307.556 172.323 307.649 172.367 307.722 172.437L309.39 174.188L314.311 173.196L315.195 170.91C315.236 170.818 315.306 170.742 315.395 170.694C316.228 170.263 317.014 169.746 317.739 169.151C317.815 169.086 317.914 169.053 318.014 169.059L320.908 169.101L323.677 164.931L322.509 162.279C322.476 162.187 322.476 162.087 322.509 161.995C322.767 161.093 322.938 160.169 323.018 159.234C323.027 159.133 323.071 159.039 323.143 158.968L324.895 157.3L323.902 152.379L321.625 151.495C321.527 151.459 321.447 151.388 321.4 151.295C320.967 150.463 320.45 149.678 319.857 148.951C319.798 148.875 319.765 148.781 319.765 148.684V145.782L315.595 143.013L312.952 144.181C312.857 144.215 312.754 144.215 312.66 144.181C311.756 143.92 310.828 143.749 309.891 143.672C309.791 143.66 309.697 143.616 309.624 143.547L307.956 141.796L303.035 142.796L302.16 145.115C302.125 145.21 302.057 145.29 301.968 145.34C301.132 145.77 300.343 146.287 299.616 146.883C299.58 146.915 299.538 146.94 299.492 146.956C299.446 146.972 299.397 146.978 299.349 146.975L296.455 146.933L293.678 151.103L294.845 153.755C294.872 153.811 294.886 153.872 294.886 153.934C294.886 153.996 294.872 154.058 294.845 154.114C294.598 154.994 294.436 155.896 294.362 156.808C294.354 156.909 294.309 157.004 294.237 157.074L292.485 158.742L293.486 163.663L295.755 164.547C295.856 164.589 295.939 164.666 295.988 164.764C296.418 165.59 296.932 166.37 297.523 167.091C297.585 167.166 297.617 167.26 297.614 167.358V170.26L301.784 173.029L304.436 171.861C304.48 171.834 304.528 171.814 304.578 171.803ZM308.673 169.101C306.666 169.099 304.696 168.553 302.974 167.522C301.252 166.49 299.842 165.011 298.893 163.242C297.944 161.473 297.493 159.48 297.586 157.474C297.68 155.469 298.315 153.527 299.424 151.854C300.485 150.248 301.944 148.946 303.66 148.074C305.375 147.202 307.287 146.79 309.209 146.878C311.131 146.966 312.997 147.552 314.625 148.578C316.253 149.603 317.587 151.034 318.496 152.73C319.405 154.425 319.859 156.328 319.813 158.251C319.766 160.175 319.222 162.053 318.232 163.703C317.242 165.353 315.84 166.718 314.165 167.664C312.49 168.61 310.597 169.105 308.673 169.101ZM300.125 152.312C299.002 154.006 298.407 155.995 298.414 158.027C298.422 160.059 299.032 162.043 300.167 163.728C301.302 165.414 302.911 166.725 304.791 167.495C306.671 168.266 308.738 168.462 310.729 168.059C312.721 167.656 314.548 166.671 315.98 165.229C317.412 163.787 318.384 161.953 318.774 159.959C319.163 157.965 318.953 155.9 318.169 154.025C317.385 152.15 316.063 150.55 314.369 149.427C313.246 148.675 311.986 148.153 310.66 147.891C309.335 147.63 307.97 147.633 306.646 147.901C305.321 148.17 304.063 148.697 302.944 149.455C301.825 150.212 300.867 151.183 300.125 152.312Z" fill="white"/>
<path d="M468.142 193.195L455.048 191.427L463.705 126.534L438.452 123.131L377.195 179.526L373.975 203.654L426.759 210.776L424.124 230.517L449.377 233.919L452.013 214.187L465.107 215.955L468.142 193.195ZM401.906 184.255L434.232 154.79L429.795 188.016L401.906 184.255Z" fill="#407BFF"/>
<path d="M441.704 233.302H441.596C441.488 233.282 441.392 233.219 441.33 233.129C441.267 233.038 441.243 232.927 441.262 232.818L460.778 126.116C460.8 126.009 460.863 125.915 460.953 125.853C461.043 125.79 461.154 125.765 461.262 125.783C461.37 125.803 461.466 125.865 461.528 125.956C461.591 126.046 461.615 126.158 461.595 126.266L442.121 232.96C442.102 233.056 442.05 233.143 441.974 233.206C441.898 233.268 441.803 233.302 441.704 233.302Z" fill="#263238"/>
<path d="M458.968 127.911C458.962 128.092 458.883 128.263 458.75 128.387C458.617 128.51 458.441 128.576 458.259 128.569C458.078 128.563 457.907 128.484 457.783 128.351C457.66 128.218 457.594 128.042 457.601 127.86C457.607 127.679 457.686 127.508 457.819 127.384C457.951 127.261 458.128 127.195 458.309 127.202C458.491 127.208 458.662 127.287 458.786 127.42C458.909 127.553 458.975 127.729 458.968 127.911Z" fill="#263238"/>
<path d="M456.191 142.338C456.186 142.473 456.141 142.604 456.062 142.714C455.983 142.823 455.873 142.907 455.746 142.954C455.619 143.001 455.481 143.009 455.35 142.978C455.218 142.947 455.099 142.877 455.007 142.778C454.915 142.679 454.854 142.555 454.832 142.422C454.811 142.288 454.829 142.151 454.886 142.028C454.942 141.905 455.033 141.802 455.148 141.731C455.263 141.66 455.397 141.624 455.532 141.629C455.622 141.633 455.71 141.653 455.792 141.691C455.874 141.728 455.947 141.781 456.009 141.847C456.07 141.913 456.117 141.99 456.149 142.075C456.18 142.159 456.194 142.248 456.191 142.338Z" fill="#263238"/>
<path d="M453.414 156.791C453.411 156.881 453.39 156.97 453.352 157.051C453.315 157.133 453.262 157.207 453.196 157.268C453.13 157.329 453.053 157.377 452.969 157.408C452.884 157.439 452.795 157.454 452.705 157.45C452.616 157.448 452.527 157.428 452.446 157.392C452.364 157.355 452.29 157.303 452.229 157.238C452.168 157.173 452.12 157.096 452.089 157.012C452.057 156.928 452.043 156.839 452.046 156.75C452.048 156.659 452.068 156.57 452.105 156.487C452.142 156.405 452.195 156.33 452.261 156.268C452.327 156.206 452.405 156.157 452.489 156.126C452.574 156.094 452.665 156.079 452.755 156.082C452.936 156.091 453.106 156.17 453.229 156.303C453.352 156.435 453.418 156.611 453.414 156.791Z" fill="#263238"/>
<path d="M447.943 171.804C447.924 171.972 447.845 172.126 447.719 172.238C447.594 172.351 447.431 172.413 447.263 172.413C447.095 172.413 446.932 172.351 446.807 172.238C446.681 172.126 446.602 171.972 446.583 171.804C446.573 171.709 446.582 171.612 446.612 171.52C446.641 171.429 446.689 171.344 446.753 171.273C446.818 171.201 446.896 171.144 446.984 171.104C447.072 171.065 447.167 171.045 447.263 171.045C447.359 171.045 447.454 171.065 447.542 171.104C447.63 171.144 447.708 171.201 447.773 171.273C447.837 171.344 447.885 171.429 447.914 171.52C447.944 171.612 447.953 171.709 447.943 171.804Z" fill="#263238"/>
<path d="M447.851 185.622C447.849 185.713 447.829 185.802 447.792 185.884C447.755 185.966 447.702 186.04 447.636 186.101C447.569 186.163 447.492 186.21 447.407 186.241C447.322 186.272 447.232 186.286 447.142 186.281C447.007 186.276 446.876 186.231 446.767 186.152C446.657 186.073 446.574 185.963 446.526 185.836C446.479 185.709 446.471 185.572 446.502 185.44C446.533 185.308 446.603 185.189 446.702 185.097C446.801 185.005 446.925 184.944 447.059 184.923C447.192 184.901 447.329 184.92 447.452 184.976C447.575 185.032 447.678 185.124 447.749 185.239C447.821 185.354 447.856 185.487 447.851 185.622Z" fill="#263238"/>
<path d="M445.074 200.051C445.07 200.186 445.027 200.318 444.949 200.428C444.87 200.539 444.761 200.624 444.634 200.672C444.508 200.721 444.369 200.73 444.237 200.7C444.105 200.67 443.985 200.601 443.892 200.502C443.799 200.403 443.738 200.279 443.716 200.145C443.693 200.012 443.711 199.874 443.767 199.751C443.824 199.627 443.915 199.523 444.03 199.452C444.146 199.381 444.279 199.345 444.415 199.35C444.595 199.357 444.765 199.434 444.888 199.565C445.012 199.696 445.078 199.871 445.074 200.051Z" fill="#263238"/>
<path d="M442.296 214.478C442.29 214.661 442.212 214.833 442.079 214.958C441.946 215.083 441.77 215.15 441.588 215.146C441.498 215.142 441.409 215.122 441.328 215.084C441.246 215.047 441.172 214.994 441.111 214.928C441.05 214.862 441.002 214.785 440.971 214.7C440.94 214.616 440.925 214.527 440.929 214.437C440.931 214.347 440.952 214.259 440.989 214.177C441.026 214.095 441.078 214.021 441.144 213.959C441.209 213.898 441.286 213.85 441.37 213.818C441.454 213.786 441.544 213.771 441.633 213.774C441.723 213.776 441.812 213.797 441.894 213.834C441.975 213.871 442.049 213.923 442.111 213.989C442.172 214.054 442.221 214.131 442.252 214.215C442.284 214.299 442.299 214.389 442.296 214.478Z" fill="#263238"/>
<path d="M439.511 228.916C439.506 229.052 439.461 229.182 439.382 229.292C439.303 229.401 439.193 229.485 439.066 229.532C438.939 229.579 438.801 229.588 438.67 229.556C438.538 229.525 438.419 229.456 438.327 229.356C438.235 229.257 438.174 229.133 438.153 229C438.131 228.866 438.15 228.729 438.206 228.606C438.262 228.484 438.353 228.38 438.468 228.309C438.584 228.238 438.717 228.203 438.852 228.207C438.942 228.21 439.031 228.23 439.114 228.267C439.196 228.304 439.27 228.357 439.331 228.423C439.393 228.489 439.44 228.567 439.471 228.651C439.502 228.736 439.516 228.826 439.511 228.916Z" fill="#263238"/>
<path d="M447.259 172.178C447.165 172.178 447.074 172.146 447.001 172.087C446.928 172.027 446.878 171.945 446.859 171.853C446.846 171.799 446.845 171.744 446.854 171.689C446.863 171.635 446.883 171.583 446.913 171.537C446.942 171.49 446.981 171.45 447.026 171.418C447.071 171.387 447.122 171.364 447.176 171.353L449.244 170.911C449.298 170.898 449.354 170.897 449.409 170.907C449.464 170.917 449.516 170.937 449.563 170.968C449.609 170.998 449.649 171.037 449.681 171.083C449.712 171.129 449.733 171.181 449.744 171.236C449.755 171.289 449.756 171.345 449.745 171.399C449.735 171.452 449.714 171.504 449.684 171.549C449.653 171.595 449.615 171.634 449.569 171.665C449.524 171.696 449.473 171.717 449.419 171.728L447.351 172.17L447.259 172.178Z" fill="#263238"/>
<path d="M454.173 164.498C453.189 167.05 452.354 169.656 451.671 172.304C451.045 175.248 451.012 181.837 451.012 181.837" fill="#263238"/>
<path d="M451.012 182.254C450.901 182.25 450.796 182.204 450.719 182.125C450.641 182.046 450.597 181.94 450.595 181.829C450.595 181.562 450.645 175.157 451.271 172.221C451.949 169.55 452.785 166.921 453.773 164.348C453.789 164.294 453.817 164.243 453.854 164.199C453.891 164.155 453.937 164.12 453.989 164.095C454.04 164.07 454.097 164.056 454.154 164.053C454.211 164.051 454.269 164.06 454.322 164.081C454.376 164.102 454.424 164.133 454.465 164.173C454.506 164.214 454.538 164.262 454.559 164.315C454.58 164.369 454.59 164.426 454.588 164.483C454.586 164.541 454.573 164.597 454.548 164.649C453.565 167.181 452.73 169.768 452.046 172.397C451.437 175.266 451.396 181.771 451.387 181.837C451.388 181.941 451.35 182.041 451.28 182.118C451.211 182.196 451.115 182.244 451.012 182.254Z" fill="#263238"/>
<path d="M298.523 254.237C299.683 235.556 297.556 201.587 332.676 206.09C370.314 210.903 359.547 254.921 359.547 254.921L298.523 254.237Z" fill="#263238"/>
<path d="M322.759 243.011C331.225 243.011 338.088 236.148 338.088 227.682C338.088 219.217 331.225 212.354 322.759 212.354C314.293 212.354 307.43 219.217 307.43 227.682C307.43 236.148 314.293 243.011 322.759 243.011Z" fill="white"/>
<path d="M324.778 212.379C317.513 211.144 309.766 216.49 308.99 221.911L337.771 224.563C336.754 218.383 330.532 213.363 324.778 212.379Z" fill="#263238"/>
<path d="M334.494 227.299C334.285 231.311 332.1 234.455 329.615 234.321C327.129 234.188 325.278 230.844 325.445 226.815C325.612 222.787 327.838 219.66 330.324 219.793C332.809 219.927 334.694 223.296 334.494 227.299Z" fill="#263238"/>
<path d="M322.759 243.845C319.563 243.845 316.438 242.897 313.78 241.121C311.122 239.345 309.05 236.821 307.827 233.868C306.603 230.914 306.283 227.665 306.907 224.529C307.531 221.394 309.07 218.514 311.33 216.254C313.591 213.993 316.471 212.454 319.606 211.83C322.741 211.206 325.991 211.527 328.945 212.75C331.898 213.973 334.422 216.045 336.198 218.703C337.974 221.361 338.922 224.486 338.922 227.682C338.918 231.968 337.214 236.076 334.183 239.106C331.153 242.137 327.045 243.841 322.759 243.845ZM322.759 213.196C319.892 213.196 317.089 214.046 314.706 215.639C312.322 217.232 310.464 219.497 309.367 222.146C308.27 224.795 307.984 227.71 308.544 230.522C309.104 233.334 310.485 235.916 312.513 237.943C314.541 239.97 317.124 241.35 319.937 241.908C322.749 242.467 325.664 242.178 328.312 241.08C330.961 239.982 333.224 238.122 334.815 235.738C336.407 233.353 337.256 230.55 337.254 227.682C337.25 223.84 335.721 220.157 333.003 217.441C330.286 214.725 326.602 213.198 322.759 213.196Z" fill="#407BFF"/>
<path opacity="0.3" d="M355.269 253.77H355.169C355.115 253.758 355.064 253.735 355.02 253.704C354.975 253.672 354.937 253.632 354.908 253.585C354.879 253.538 354.86 253.486 354.852 253.432C354.844 253.378 354.847 253.322 354.86 253.269C354.86 253.161 357.546 241.852 354.785 230.418C354.758 230.307 354.777 230.19 354.836 230.093C354.896 229.996 354.991 229.927 355.102 229.901C355.213 229.874 355.329 229.892 355.426 229.952C355.523 230.011 355.592 230.107 355.619 230.217C358.43 241.893 355.719 253.353 355.694 253.461C355.669 253.553 355.614 253.635 355.536 253.691C355.459 253.747 355.364 253.775 355.269 253.77Z" fill="white"/>
<path opacity="0.3" d="M352.942 224.147C352.862 224.146 352.784 224.123 352.716 224.08C352.648 224.038 352.594 223.977 352.558 223.905C351.522 221.614 350.193 219.467 348.605 217.517C348.536 217.431 348.503 217.322 348.514 217.213C348.525 217.104 348.579 217.003 348.664 216.933C348.706 216.897 348.755 216.871 348.808 216.854C348.861 216.838 348.917 216.833 348.972 216.838C349.027 216.843 349.08 216.86 349.129 216.886C349.178 216.912 349.221 216.948 349.256 216.991C350.883 218.998 352.248 221.203 353.317 223.555C353.341 223.604 353.355 223.657 353.357 223.712C353.36 223.767 353.352 223.821 353.333 223.872C353.315 223.924 353.286 223.971 353.249 224.011C353.212 224.051 353.167 224.083 353.117 224.105C353.062 224.131 353.003 224.145 352.942 224.147Z" fill="white"/>
<path d="M220.361 341.874H220.052C218.946 341.843 217.898 341.374 217.138 340.57C216.378 339.766 215.968 338.694 215.999 337.588C216.03 336.482 216.499 335.433 217.303 334.673C218.107 333.913 219.18 333.503 220.286 333.534H220.361C222.771 333.534 228.567 330.607 240.694 311.492C241.016 310.984 241.443 310.552 241.948 310.225C242.452 309.898 243.022 309.684 243.616 309.598C244.211 309.512 244.818 309.555 245.394 309.725C245.971 309.895 246.504 310.187 246.957 310.583C256.48 318.769 266.866 325.895 277.932 331.833C278.444 332.066 278.904 332.4 279.283 332.815C279.663 333.23 279.954 333.718 280.14 334.249C280.327 334.78 280.403 335.343 280.366 335.904C280.329 336.466 280.179 337.014 279.924 337.515C279.67 338.017 279.316 338.462 278.885 338.824C278.454 339.185 277.955 339.456 277.416 339.619C276.878 339.782 276.312 339.835 275.753 339.774C275.194 339.713 274.653 339.54 274.162 339.264C263.878 333.799 254.157 327.335 245.139 319.965C234.972 335.269 227.433 341.874 220.361 341.874Z" fill="#263238"/>
<path d="M246.165 309.832H245.806C245.151 309.737 244.56 309.386 244.163 308.856C243.766 308.326 243.595 307.66 243.688 307.004C244.28 302.834 243.546 287.297 238.284 275.204C238.05 274.67 238.011 274.07 238.172 273.51C238.334 272.95 238.686 272.463 239.168 272.135C250.593 264.354 274.93 263.42 275.964 263.386C276.292 263.375 276.62 263.429 276.928 263.545C277.235 263.66 277.517 263.835 277.757 264.06C277.997 264.285 278.191 264.554 278.327 264.854C278.463 265.153 278.538 265.476 278.549 265.805C278.56 266.133 278.506 266.461 278.391 266.769C278.275 267.076 278.1 267.358 277.875 267.598C277.651 267.838 277.381 268.032 277.082 268.168C276.782 268.304 276.459 268.379 276.131 268.39C275.905 268.39 254.63 269.224 243.705 275.229C248.358 287.272 249.418 302.276 248.642 307.705C248.552 308.297 248.253 308.838 247.798 309.228C247.344 309.618 246.764 309.832 246.165 309.832Z" fill="#263238"/>
<path d="M250.368 306.595C248.7 302.667 241.194 303.109 236.799 306.478C234.447 308.271 231.261 313.684 230.961 315.652C230.861 316.12 230.876 316.605 231.005 317.066C231.133 317.526 231.372 317.949 231.7 318.296C232.029 318.644 232.436 318.907 232.889 319.063C233.341 319.218 233.824 319.261 234.297 319.189C237.174 318.938 241.119 314.76 241.119 314.76C238.492 317.337 241.886 319.155 246.957 315.427C249.726 313.351 252.228 310.99 250.368 306.595Z" fill="#407BFF"/>
<path d="M393.816 255.337C393.778 255.346 393.738 255.346 393.699 255.337C393.646 255.323 393.596 255.298 393.553 255.264C393.51 255.23 393.474 255.188 393.447 255.139C393.421 255.091 393.404 255.038 393.399 254.983C393.394 254.928 393.399 254.873 393.416 254.82C394.525 250.95 395.734 248.59 397.327 247.314C397.078 246.417 397.124 245.464 397.461 244.595C397.849 243.582 398.535 242.71 399.429 242.093C399.186 241.831 399.014 241.511 398.927 241.164C398.841 240.817 398.845 240.454 398.937 240.108C399.239 239.064 399.864 238.141 400.722 237.473C400.412 237.127 400.243 236.678 400.246 236.214C400.246 233.712 404.842 229.942 410.054 229.225C410.165 229.209 410.277 229.238 410.366 229.306C410.455 229.373 410.514 229.473 410.529 229.583C410.545 229.694 410.516 229.806 410.449 229.895C410.381 229.984 410.281 230.043 410.171 230.059C405.217 230.734 401.064 234.321 401.08 236.214C401.079 236.496 401.186 236.768 401.38 236.973C402.502 236.212 403.765 235.682 405.093 235.414C406.422 235.147 407.791 235.146 409.12 235.413C411.68 235.905 412.723 236.447 412.606 237.223C412.373 238.682 406.927 238.991 403.274 238.557C402.619 238.498 401.982 238.314 401.397 238.015C400.611 238.575 400.026 239.373 399.729 240.292C399.658 240.535 399.658 240.794 399.731 241.036C399.803 241.279 399.945 241.496 400.138 241.66C401.689 240.826 403.866 240.525 406.743 241.159C410.521 241.993 410.663 242.452 410.755 242.727C410.784 242.824 410.786 242.928 410.761 243.026C410.736 243.125 410.685 243.215 410.613 243.286C409.821 244.12 404.024 243.728 401.114 243.011C400.762 242.931 400.423 242.804 400.104 242.635C399.243 243.159 398.58 243.954 398.22 244.896C397.979 245.505 397.912 246.169 398.028 246.814C398.176 246.725 398.329 246.644 398.486 246.572C400.213 245.738 402.298 245.888 404.875 246.989C406.543 247.715 407.377 248.365 407.46 249.024C407.464 249.193 407.422 249.36 407.338 249.507C407.254 249.654 407.132 249.775 406.985 249.858C405.709 250.692 401.255 250.575 398.937 249.341C398.404 249.051 397.96 248.622 397.652 248.098C396.293 249.349 395.192 251.576 394.191 255.07C394.161 255.146 394.11 255.212 394.043 255.259C393.976 255.306 393.898 255.334 393.816 255.337ZM398.336 247.556C398.569 247.988 398.922 248.341 399.354 248.574C401.239 249.574 404.942 249.8 406.326 249.241C406.61 249.124 406.651 249.032 406.651 249.032C406.651 249.032 406.61 248.565 404.566 247.69C402.231 246.689 400.396 246.547 398.87 247.256C398.686 247.345 398.508 247.445 398.336 247.556ZM401.122 242.077L401.33 242.135C404.046 242.761 406.841 242.972 409.62 242.761C408.635 242.395 407.619 242.116 406.585 241.927C404.788 241.44 402.889 241.492 401.122 242.077ZM402.173 237.39C402.558 237.528 402.958 237.617 403.365 237.656C407.535 238.149 411.197 237.573 411.705 237.048C411.564 236.923 411.005 236.564 408.937 236.172C406.609 235.708 404.192 236.143 402.173 237.39Z" fill="#263238"/>
<path d="M285.246 340.48C285.797 340.305 285.613 339.771 284.996 339.771H273.704C252.203 337.495 237.183 340.547 246.649 341.264C256.114 341.981 245.981 341.831 239.068 344.45C232.154 347.069 290.484 347.728 295.78 344.45C300.65 341.431 277.623 342.924 285.246 340.48Z" fill="#263238"/>
<path d="M366.094 343.809L267.849 340.549L263.771 245.289L379.788 247.883L366.094 343.809Z" fill="#407BFF"/>
<path d="M298.523 341.982C298.418 341.982 298.317 341.943 298.24 341.872C298.162 341.8 298.115 341.703 298.106 341.598L290.233 245.922C290.226 245.811 290.262 245.703 290.334 245.619C290.406 245.535 290.507 245.482 290.617 245.471C290.727 245.466 290.834 245.503 290.918 245.574C291.001 245.645 291.055 245.746 291.067 245.855L298.982 341.531C298.987 341.586 298.98 341.641 298.963 341.694C298.946 341.746 298.919 341.794 298.884 341.836C298.848 341.878 298.805 341.913 298.756 341.937C298.707 341.962 298.653 341.977 298.598 341.982H298.523Z" fill="#263238"/>
<path d="M366.094 343.809L392.498 339.79L400.813 251.21L379.788 247.883L366.094 343.809Z" fill="#407BFF"/>
<path opacity="0.2" d="M366.094 343.809L392.498 339.79L400.813 251.21L379.788 247.883L366.094 343.809Z" fill="black"/>
<path d="M276.239 322.191L273.82 265.587C273.761 264.189 273.988 262.793 274.49 261.487C274.991 260.18 275.755 258.99 276.734 257.99C277.714 256.99 278.888 256.202 280.184 255.674C281.48 255.146 282.871 254.89 284.27 254.92L357.712 256.588C359.159 256.621 360.581 256.96 361.887 257.583C363.193 258.205 364.351 259.098 365.287 260.201C366.222 261.305 366.913 262.594 367.314 263.984C367.715 265.373 367.816 266.832 367.612 268.264L359.472 325.26C359.12 327.756 357.859 330.035 355.93 331.658C354.002 333.282 351.542 334.137 349.022 334.059L286.147 331.974C283.566 331.894 281.11 330.842 279.273 329.027C277.435 327.213 276.351 324.771 276.239 322.191Z" fill="#263238"/>
<path d="M284.179 272.293L295.538 272.652L295.446 275.579L288.332 275.354L288.265 277.539L294.862 277.747L294.77 280.55L288.173 280.333L288.09 283.043L295.404 283.277L295.304 286.379L283.737 286.012L284.179 272.293Z" fill="white"/>
<path d="M297.648 286.456L298.081 272.736L305.154 272.962C306.168 272.956 307.177 273.102 308.148 273.395C308.836 273.626 309.425 274.085 309.816 274.696C310.106 275.142 310.301 275.642 310.389 276.166C310.477 276.69 310.456 277.226 310.328 277.742C310.199 278.257 309.966 278.741 309.643 279.163C309.32 279.584 308.913 279.935 308.448 280.192C307.974 280.436 307.465 280.605 306.938 280.693C307.326 280.818 307.694 280.997 308.031 281.226C308.274 281.452 308.492 281.704 308.682 281.977C308.896 282.237 309.086 282.516 309.249 282.811L311.175 286.856L306.388 286.698L304.253 282.436C304.084 282.029 303.834 281.66 303.519 281.352C303.22 281.135 302.862 281.013 302.493 281.001H302.118L301.943 286.564L297.648 286.456ZM302.168 278.433L303.953 278.491C304.332 278.468 304.708 278.415 305.079 278.332C305.358 278.29 305.611 278.144 305.788 277.924C305.968 277.701 306.07 277.426 306.079 277.14C306.095 276.949 306.068 276.757 306 276.578C305.933 276.4 305.826 276.238 305.687 276.106C305.222 275.805 304.672 275.662 304.12 275.697L302.251 275.639L302.168 278.433Z" fill="white"/>
<path d="M312.56 286.897L312.993 273.178L320.057 273.403C321.071 273.397 322.081 273.543 323.051 273.837C323.741 274.065 324.33 274.524 324.719 275.138C325.143 275.806 325.341 276.592 325.286 277.381C325.289 278.047 325.111 278.7 324.772 279.273C324.433 279.846 323.945 280.316 323.36 280.634C322.885 280.876 322.376 281.045 321.85 281.134C322.236 281.258 322.601 281.438 322.935 281.668C323.184 281.887 323.405 282.137 323.593 282.41C323.807 282.671 323.996 282.95 324.161 283.244L326.087 287.281L321.3 287.131L319.165 282.869C318.994 282.463 318.745 282.094 318.431 281.785C318.133 281.56 317.77 281.437 317.397 281.434H317.03L316.846 287.005L312.56 286.897ZM317.072 278.874L318.865 278.924C319.244 278.91 319.621 278.859 319.991 278.774C320.268 278.733 320.519 278.586 320.691 278.365C320.878 278.147 320.981 277.869 320.983 277.581C321.001 277.391 320.976 277.199 320.91 277.02C320.843 276.841 320.737 276.679 320.599 276.547C320.134 276.239 319.579 276.095 319.023 276.138L317.163 276.08L317.072 278.874Z" fill="white"/>
<path d="M326.771 280.525C326.707 279.567 326.855 278.608 327.206 277.714C327.556 276.821 328.1 276.017 328.799 275.359C329.497 274.701 330.333 274.206 331.246 273.91C332.158 273.613 333.125 273.523 334.077 273.644C335.037 273.612 335.994 273.774 336.891 274.119C337.788 274.464 338.606 274.986 339.298 275.654C339.915 276.365 340.38 277.193 340.667 278.089C340.954 278.985 341.056 279.93 340.966 280.867C340.972 282.229 340.652 283.573 340.032 284.786C339.469 285.779 338.628 286.585 337.613 287.105C336.416 287.677 335.092 287.93 333.768 287.839C332.449 287.85 331.143 287.565 329.948 287.005C328.931 286.453 328.101 285.611 327.563 284.586C326.933 283.33 326.659 281.926 326.771 280.525ZM331.008 280.675C330.883 281.726 331.121 282.789 331.683 283.686C331.946 283.979 332.266 284.217 332.622 284.384C332.979 284.552 333.366 284.646 333.76 284.66C334.153 284.675 334.546 284.61 334.914 284.47C335.283 284.33 335.619 284.117 335.903 283.844C336.521 282.908 336.815 281.794 336.737 280.675C336.849 279.67 336.604 278.657 336.045 277.814C335.792 277.523 335.48 277.289 335.128 277.13C334.777 276.97 334.396 276.888 334.01 276.888C333.621 276.86 333.23 276.921 332.868 277.065C332.505 277.21 332.18 277.434 331.917 277.722C331.285 278.574 330.964 279.616 331.008 280.675Z" fill="white"/>
<path d="M343.109 287.905L343.543 274.178L350.607 274.403C351.62 274.401 352.629 274.547 353.601 274.837C354.287 275.071 354.875 275.529 355.269 276.138C355.69 276.807 355.888 277.592 355.836 278.381C355.84 279.048 355.663 279.704 355.323 280.278C354.984 280.852 354.495 281.324 353.909 281.642C353.432 281.878 352.924 282.044 352.4 282.134C352.786 282.261 353.151 282.444 353.484 282.676C353.733 282.896 353.954 283.145 354.143 283.418C354.358 283.678 354.547 283.957 354.71 284.252L356.636 288.297L351.849 288.147L349.714 283.877C349.544 283.473 349.295 283.107 348.98 282.801C348.681 282.577 348.32 282.452 347.946 282.443H347.579L347.396 288.014L343.109 287.905ZM347.621 279.874L349.414 279.932C349.793 279.918 350.17 279.868 350.54 279.782C350.816 279.738 351.066 279.592 351.24 279.374C351.437 279.141 351.541 278.844 351.532 278.54C351.55 278.351 351.525 278.16 351.459 277.982C351.392 277.805 351.286 277.644 351.149 277.514C350.683 277.206 350.129 277.062 349.572 277.105L347.713 277.047L347.621 279.874Z" fill="white"/>
<path d="M349.856 311.215C349.699 311.218 349.544 311.188 349.4 311.126C349.256 311.064 349.127 310.972 349.022 310.857L341.883 303.042L334.177 310.081C333.963 310.277 333.681 310.38 333.391 310.367C333.102 310.355 332.83 310.228 332.634 310.014L325.495 302.2L317.789 309.239C317.575 309.434 317.293 309.537 317.003 309.525C316.714 309.512 316.442 309.385 316.246 309.172L309.098 301.357L301.401 308.396C301.288 308.498 301.156 308.576 301.013 308.625C300.869 308.673 300.718 308.692 300.567 308.68C300.277 308.663 300.005 308.534 299.808 308.321L292.669 300.515L284.971 307.546C284.756 307.742 284.472 307.845 284.181 307.832C283.891 307.82 283.617 307.693 283.419 307.479C283.322 307.373 283.247 307.249 283.198 307.114C283.149 306.979 283.127 306.835 283.134 306.692C283.141 306.548 283.177 306.408 283.238 306.278C283.3 306.148 283.387 306.032 283.495 305.936L292.001 298.155C292.216 297.959 292.5 297.856 292.791 297.868C293.081 297.881 293.355 298.008 293.553 298.222L300.692 306.036L308.389 298.997C308.608 298.805 308.891 298.704 309.182 298.714C309.472 298.729 309.744 298.858 309.941 299.072L317.08 306.887L324.786 299.848C324.891 299.75 325.015 299.674 325.15 299.624C325.284 299.575 325.428 299.552 325.571 299.558C325.715 299.565 325.856 299.599 325.986 299.66C326.116 299.722 326.232 299.808 326.329 299.915L333.468 307.729L341.174 300.69C341.388 300.495 341.67 300.392 341.959 300.404C342.249 300.417 342.521 300.544 342.717 300.757L350.69 309.414C350.832 309.573 350.925 309.77 350.958 309.982C350.99 310.193 350.96 310.409 350.872 310.603C350.783 310.798 350.64 310.963 350.46 311.077C350.279 311.192 350.07 311.251 349.856 311.249V311.215Z" fill="white"/>
<path d="M217.876 345.835L212.655 343.341L208.001 320.682L210.528 317.904L217.876 345.835Z" fill="#407BFF"/>
<path d="M217.876 345.835L224.806 341.782L218.868 323.117L210.528 317.904L217.876 345.835Z" fill="#407BFF"/>
<path opacity="0.2" d="M217.876 345.835L224.806 341.782L218.868 323.117L210.528 317.904L217.876 345.835Z" fill="black"/>
<path d="M331.508 349.955H330.932C329.827 349.925 328.778 349.457 328.017 348.654C327.256 347.851 326.845 346.778 326.875 345.673C326.905 344.567 327.373 343.518 328.176 342.757C328.979 341.996 330.052 341.585 331.158 341.615C337.579 341.824 351.174 337.879 358.947 330.339C359.416 329.879 359.987 329.536 360.615 329.339C373.783 325.386 378.679 333.367 378.879 333.709L371.707 337.954C371.732 338.007 371.763 338.057 371.798 338.104C371.723 337.996 369.855 335.602 363.917 337.07C354.168 345.96 339.206 349.955 331.508 349.955Z" fill="#263238"/>
<path d="M330.999 355.494L315.812 354.543L314.62 326.537L335.028 327.296L330.999 355.494Z" fill="#407BFF"/>
<path d="M330.999 355.492L334.552 351.956L336.754 334.501L335.027 327.295L330.999 355.492Z" fill="#407BFF"/>
<path opacity="0.2" d="M330.999 355.492L334.552 351.956L336.754 334.501L335.027 327.295L330.999 355.492Z" fill="black"/>
<path d="M419.003 344.893C418.458 344.892 417.928 344.714 417.493 344.384C408.82 337.795 397.102 326.094 392.607 314.81C392.539 314.647 392.492 314.476 392.465 314.302C390.272 301.258 388.178 273.811 388.087 272.652C388.062 272.323 388.102 271.993 388.205 271.68C388.308 271.367 388.472 271.077 388.687 270.828C389.121 270.323 389.737 270.012 390.401 269.962C391.065 269.912 391.721 270.128 392.225 270.562C392.73 270.996 393.041 271.613 393.091 272.276C393.091 272.552 395.234 300.266 397.369 313.201C401.856 324.176 414.049 335.444 420.538 340.398C420.955 340.715 421.263 341.155 421.417 341.656C421.571 342.157 421.564 342.694 421.396 343.191C421.228 343.688 420.908 344.12 420.482 344.425C420.056 344.73 419.544 344.894 419.02 344.893H419.003Z" fill="#263238"/>
<path d="M430.571 346.153C428.636 346.153 426.442 345.277 424.049 343.55C423.511 343.161 423.15 342.574 423.046 341.919C422.941 341.264 423.101 340.593 423.49 340.056C423.879 339.518 424.466 339.158 425.121 339.053C425.777 338.948 426.447 339.108 426.984 339.497C429.053 340.99 430.179 341.165 430.571 341.165C431.234 341.165 431.871 341.429 432.34 341.898C432.809 342.367 433.073 343.004 433.073 343.667C433.073 344.331 432.809 344.967 432.34 345.436C431.871 345.906 431.234 346.169 430.571 346.169V346.153Z" fill="#263238"/>
<path d="M424.749 343.476C427.426 335.528 438.402 337.096 442.188 338.28C445.422 339.219 448.525 340.564 451.421 342.283C453.464 343.618 453.497 345.861 450.77 347.137C447.434 348.705 438.961 347.312 438.961 347.312C443.331 349.222 438.961 352.316 431.279 349.281C428.786 348.297 423.807 346.395 424.749 343.476Z" fill="#407BFF"/>
<path d="M398.111 276.055C397.119 282.811 391.523 287.789 386.969 287.122C382.415 286.455 382.232 280.45 383.224 273.662C384.217 266.873 386.018 261.986 390.572 262.653C395.126 263.32 399.104 269.325 398.111 276.055Z" fill="#263238"/>
<path d="M288.04 249.116C288.418 249.116 288.724 248.81 288.724 248.432C288.724 248.054 288.418 247.748 288.04 247.748C287.662 247.748 287.356 248.054 287.356 248.432C287.356 248.81 287.662 249.116 288.04 249.116Z" fill="#263238"/>
<path d="M294.987 253.354C294.987 253.489 294.947 253.621 294.872 253.734C294.797 253.846 294.69 253.934 294.565 253.986C294.44 254.037 294.303 254.051 294.17 254.025C294.037 253.998 293.915 253.933 293.82 253.837C293.724 253.742 293.659 253.62 293.633 253.487C293.606 253.355 293.62 253.217 293.671 253.092C293.723 252.967 293.811 252.86 293.923 252.785C294.036 252.71 294.168 252.67 294.303 252.67C294.485 252.67 294.659 252.742 294.787 252.87C294.915 252.998 294.987 253.172 294.987 253.354Z" fill="#263238"/>
<path d="M295.754 334.168C295.754 334.304 295.714 334.436 295.639 334.548C295.564 334.661 295.457 334.748 295.332 334.8C295.207 334.852 295.07 334.865 294.937 334.839C294.805 334.813 294.683 334.747 294.587 334.652C294.491 334.556 294.426 334.434 294.4 334.302C294.373 334.169 294.387 334.032 294.439 333.907C294.491 333.782 294.578 333.675 294.691 333.6C294.803 333.524 294.935 333.484 295.071 333.484C295.252 333.484 295.426 333.556 295.554 333.685C295.682 333.813 295.754 333.987 295.754 334.168Z" fill="#263238"/>
<path d="M302.018 339.096C302.018 339.231 301.978 339.363 301.903 339.476C301.827 339.588 301.721 339.676 301.596 339.728C301.471 339.78 301.333 339.793 301.201 339.767C301.068 339.74 300.946 339.675 300.85 339.58C300.755 339.484 300.69 339.362 300.663 339.229C300.637 339.097 300.65 338.959 300.702 338.834C300.754 338.709 300.842 338.603 300.954 338.527C301.067 338.452 301.199 338.412 301.334 338.412C301.515 338.412 301.689 338.484 301.818 338.612C301.946 338.741 302.018 338.915 302.018 339.096Z" fill="#263238"/>
<path d="M181.813 347.293C180.613 347.237 179.44 346.912 178.382 346.342C177.324 345.772 176.407 344.971 175.7 343.999C175.666 343.954 175.64 343.903 175.626 343.848C175.612 343.793 175.609 343.736 175.618 343.68C175.626 343.624 175.646 343.571 175.676 343.523C175.706 343.475 175.745 343.433 175.792 343.401C175.838 343.369 175.891 343.346 175.946 343.335C176.002 343.324 176.059 343.324 176.114 343.335C176.17 343.347 176.222 343.369 176.269 343.402C176.315 343.434 176.354 343.476 176.384 343.524C177.944 345.775 181.388 346.968 182.889 346.259C183.04 346.195 183.174 346.098 183.281 345.976C182.523 345.642 181.858 345.126 181.346 344.475C180.834 343.823 180.49 343.055 180.346 342.239C180.154 341.18 180.004 339.737 180.871 339.554C182.072 339.287 183.64 342.181 184.207 344.374C184.31 344.737 184.346 345.116 184.315 345.492C184.796 345.635 185.302 345.675 185.8 345.609C186.024 345.591 186.242 345.528 186.44 345.421C186.639 345.315 186.812 345.169 186.951 344.991C186.402 344.577 185.947 344.052 185.615 343.45C185.283 342.848 185.082 342.182 185.024 341.497C184.707 339.212 184.949 338.82 185.199 338.62C185.281 338.558 185.377 338.519 185.479 338.509C185.581 338.499 185.683 338.517 185.775 338.561C186.667 338.937 187.743 342.173 187.952 344.007C187.977 344.198 187.977 344.392 187.952 344.583C188.311 344.721 188.692 344.794 189.078 344.8C189.785 344.827 190.484 344.644 191.088 344.274C190.971 344.199 190.862 344.116 190.754 344.032C189.92 343.29 189.536 342.106 189.686 340.421C189.803 339.112 190.095 338.395 190.62 338.169C190.79 338.101 190.976 338.084 191.155 338.12C191.334 338.155 191.499 338.242 191.63 338.37C192.193 338.991 192.613 339.728 192.863 340.529C193.112 341.33 193.183 342.175 193.072 343.007C193 343.353 192.855 343.68 192.647 343.966C194.182 344.233 196.333 343.799 198.193 343.34C198.248 343.327 198.305 343.325 198.36 343.334C198.416 343.342 198.469 343.362 198.517 343.392C198.565 343.421 198.607 343.46 198.64 343.505C198.673 343.551 198.697 343.602 198.71 343.657C198.723 343.712 198.726 343.769 198.717 343.824C198.708 343.88 198.688 343.933 198.659 343.981C198.629 344.029 198.591 344.071 198.545 344.104C198.5 344.137 198.448 344.161 198.393 344.174C196.133 344.733 193.698 345.192 191.98 344.691C191.141 345.329 190.114 345.669 189.061 345.659C188.593 345.652 188.131 345.565 187.693 345.4C187.499 345.7 187.239 345.952 186.932 346.135C186.626 346.319 186.281 346.43 185.925 346.459C185.298 346.54 184.661 346.486 184.057 346.301C183.862 346.629 183.571 346.888 183.223 347.043C182.776 347.224 182.296 347.309 181.813 347.293ZM181.096 340.388C180.981 340.955 181.004 341.541 181.163 342.097C181.281 342.764 181.557 343.393 181.97 343.93C182.382 344.467 182.918 344.897 183.531 345.183C183.52 344.986 183.486 344.79 183.431 344.599C182.781 342.214 181.53 340.571 181.096 340.388ZM185.742 339.662C185.747 340.238 185.794 340.812 185.883 341.38C185.975 342.397 186.424 343.348 187.151 344.066C186.946 342.526 186.469 341.035 185.742 339.662ZM190.987 338.937C190.987 338.937 190.671 339.095 190.554 340.488C190.437 341.881 190.679 342.84 191.329 343.399C191.483 343.523 191.651 343.63 191.83 343.715C192.049 343.481 192.204 343.194 192.28 342.881C192.429 341.569 192.074 340.248 191.288 339.187C191.113 338.97 191.012 338.937 190.987 338.937Z" fill="#263238"/>
<path d="M303.878 353.597L306.138 349.678L303.878 345.758H301.459L302.827 349.678L301.459 353.597H303.878Z" fill="#263238"/>
<path d="M301.618 351.722C301.339 351.74 301.059 351.701 300.797 351.606C300.534 351.512 300.293 351.365 300.089 351.174C299.885 350.983 299.723 350.752 299.612 350.495C299.501 350.239 299.444 349.963 299.444 349.683C299.444 349.404 299.501 349.128 299.612 348.871C299.723 348.615 299.885 348.384 300.089 348.193C300.293 348.002 300.534 347.855 300.797 347.76C301.059 347.666 301.339 347.626 301.618 347.644L297.781 346.877L296.755 349.979L298.473 352.598L301.618 351.722Z" fill="#263238"/>
<path d="M301.951 345.758H297.422L295.162 349.678L297.422 353.597H301.951L304.211 349.678L301.951 345.758ZM299.691 351.721C299.287 351.723 298.891 351.604 298.554 351.381C298.216 351.157 297.953 350.839 297.797 350.465C297.641 350.092 297.6 349.681 297.678 349.284C297.755 348.887 297.949 348.522 298.235 348.236C298.52 347.949 298.884 347.754 299.281 347.674C299.678 347.595 300.089 347.635 300.463 347.789C300.836 347.943 301.156 348.205 301.381 348.542C301.606 348.878 301.726 349.273 301.726 349.678C301.726 350.218 301.512 350.737 301.13 351.12C300.749 351.502 300.231 351.719 299.691 351.721Z" fill="#407BFF"/>
<path d="M461.52 345.491L459.844 342.581L461.52 339.67H463.313L462.304 342.581L463.313 345.491H461.52Z" fill="#407BFF"/>
<path d="M463.197 344.098C463.405 344.114 463.614 344.086 463.811 344.017C464.008 343.948 464.189 343.839 464.342 343.697C464.495 343.555 464.617 343.383 464.701 343.191C464.784 343 464.827 342.794 464.827 342.585C464.827 342.376 464.784 342.169 464.701 341.978C464.617 341.787 464.495 341.614 464.342 341.472C464.189 341.33 464.008 341.221 463.811 341.152C463.614 341.083 463.405 341.056 463.197 341.071L466.049 340.504L466.808 342.806L465.54 344.749L463.197 344.098Z" fill="#407BFF"/>
<path d="M462.955 339.67H466.291L467.959 342.581L466.291 345.491H462.955L461.287 342.581L462.955 339.67ZM464.623 344.098C464.923 344.1 465.218 344.012 465.468 343.847C465.719 343.681 465.915 343.444 466.031 343.167C466.147 342.89 466.179 342.585 466.121 342.29C466.063 341.995 465.919 341.723 465.707 341.51C465.496 341.297 465.225 341.152 464.93 341.093C464.636 341.033 464.33 341.063 464.052 341.177C463.774 341.292 463.537 341.487 463.37 341.736C463.203 341.986 463.113 342.28 463.113 342.581C463.112 342.78 463.151 342.978 463.227 343.163C463.303 343.347 463.414 343.515 463.555 343.656C463.697 343.798 463.864 343.909 464.049 343.985C464.234 344.061 464.432 344.1 464.631 344.098H464.623Z" fill="#263238"/>
<path d="M399.062 349.362H402.832C403.304 349.36 403.756 349.171 404.088 348.837C404.421 348.502 404.608 348.05 404.608 347.578C404.608 347.106 404.421 346.653 404.088 346.319C403.756 345.984 403.304 345.795 402.832 345.793H399.062C398.589 345.793 398.135 345.981 397.8 346.316C397.465 346.65 397.277 347.104 397.277 347.578C397.277 348.051 397.465 348.505 397.8 348.84C398.135 349.174 398.589 349.362 399.062 349.362Z" fill="#263238"/>
<path d="M392.999 345.992C393.349 345.356 393.877 344.836 394.519 344.496C395.161 344.157 395.888 344.012 396.611 344.081C397.334 344.15 398.02 344.429 398.587 344.883C399.153 345.338 399.574 345.948 399.797 346.639C400.021 347.33 400.037 348.071 399.845 348.771C399.652 349.471 399.259 350.099 398.713 350.579C398.168 351.058 397.494 351.367 396.775 351.468C396.056 351.569 395.323 351.457 394.667 351.146C393.765 350.681 393.083 349.878 392.771 348.913C392.459 347.947 392.54 346.897 392.999 345.992Z" fill="#407BFF"/>
<path d="M394.016 351.146L395.05 351.633L398.641 344.014L397.608 343.526L394.016 351.146Z" fill="#263238"/>
<circle cx="583" cy="173" r="23" fill="#E2F0FF"/>
<circle cx="557" cy="61" r="14" fill="#E2F0FF"/>
<circle cx="533" cy="520" r="10" fill="#E2F0FF"/>
<circle cx="27.5" cy="585.5" r="27.5" fill="#E2F0FF"/>
<circle cx="84.5" cy="183.5" r="12.5" fill="#E2F0FF"/>
<circle cx="26.5" cy="415.5" r="10.5" fill="#E2F0FF"/>
</svg>
